 <svg xmlns="http://www.w3.org/2000/svg" viewBox="0 0 57.44 43.52"><defs><style>.cls-1,.cls-4{fill:none;}.cls-2{clip-path:url(#clip-path);}.cls-3{fill:#fff;opacity:0.3;}.cls-4{stroke:#b8d200;stroke-linecap:round;stroke-linejoin:round;stroke-width:6px;}</style><clipPath id="clip-path"><rect class="cls-1" x="-1311.65" y="-229.65" width="1238.76" height="502.93"/></clipPath></defs><title>arrow_bottom</title><g id="gnav"><g class="cls-2"><path class="cls-3" d="M-461.91-229c-72.76,126.05-29.58,287.2,96.46,360s287.22,29.58,360-96.46,29.59-287.17-96.47-359.95S-389.13-355-461.91-229Zm331.73-47.51a206.35,206.35,0,0,1,56.75,48.2l-98,56.57a98.33,98.33,0,0,0-13.72-9.61,97.2,97.2,0,0,0-113.06,11.5l-97.5-56.29C-332.95-305.16-220.17-328.47-130.18-276.51ZM-263.6-45.43a59.87,59.87,0,0,1-21.9-81.72A59.79,59.79,0,0,1-203.79-149a59.8,59.8,0,0,1,21.91,81.69A59.83,59.83,0,0,1-263.6-45.43Zm-163.71-125L-329.39-114A97.17,97.17,0,0,0-282.25-13.14a97.3,97.3,0,0,0,17.92,8.06V107.51A206.56,206.56,0,0,1-337.19,82C-426.34,30.54-462.7-77.22-427.31-170.48ZM-54.42,6.25A206.64,206.64,0,0,1-200.3,107V-6.06a96.6,96.6,0,0,0,50.73-42.63,96.79,96.79,0,0,0,10.79-69.18l.56.89L-41.08-173A206.58,206.58,0,0,1-54.42,6.25Z"/></g><polyline class="cls-4" points="3.27 22.91 28.55 40.05 53.83 22.91"/><polyline class="cls-4" points="3.27 3.59 28.55 20.73 53.83 3.59"/></g></svg>