<?xml version="1.0" encoding="utf-8"?><svg version="1.1" id="レイヤー_1" xmlns="http://www.w3.org/2000/svg" xmlns:xlink="http://www.w3.org/1999/xlink" x="0px" y="0px" viewBox="0 0 15.2 20.3" style="enable-background:new 0 0 15.2 20.3;" xml:space="preserve"><style type="text/css">.st0{fill:#323232;}</style><title>tit_mobara</title><g><path class="st0" d="M8,20.3c-0.2,0-0.4-0.1-0.6-0.2c-0.5-0.3-0.6-0.9-0.3-1.4l5.8-8.6L7.2,1.6C6.9,1.1,7,0.5,7.4,0.2S8.5,0,8.8,0.4L15,9.6c0.2,0.3,0.2,0.8,0,1.1l-6.2,9.2C8.6,20.2,8.3,20.3,8,20.3z M1,20.3c-0.2,0-0.4-0.1-0.6-0.2c-0.5-0.3-0.6-0.9-0.3-1.4L6,10.2L0.2,1.6C-0.1,1.1,0,0.5,0.4,0.2C0.9-0.1,1.5,0,1.8,0.4L8,9.6c0.2,0.3,0.2,0.8,0,1.1l-6.2,9.2C1.6,20.2,1.3,20.3,1,20.3z"/></g></svg>