<svg xmlns="http://www.w3.org/2000/svg" viewBox="0 0 113.38 111.39"><defs><style>.cls-1{fill:#fff;}</style></defs><title>アートボード 19</title><g id="greeting"><path class="cls-1" d="M30,45.63V83.07c6,11.12,17.32,11.12,39.9,11.12,14,0,30.66-.47,42.36-1.52a77.81,77.81,0,0,0-5.27,16.5c-9.13.47-21.65.82-33.35.82-28.55,0-40.83-.23-50.78-13-4.45,4.33-9,8.42-13,11.7a2.46,2.46,0,0,1-1.76,2.69L0,93.49c4.33-2.57,9.13-5.85,13.69-9.24V61.31H1.52V45.63ZM14.51,3.39C20.94,8.54,29,16.15,32.76,21.65l-14,10.65C15.56,26.79,7.84,18.72,1.52,13ZM60.73,43.64,80.62,44.7A103.39,103.39,0,0,1,68.56,40c-10.18,4.56-21.76,7.72-34,9.95a48.53,48.53,0,0,0-7.25-12.29,129.66,129.66,0,0,0,27.15-6.2c-1.4-1.05-2.69-2.22-4-3.28a71.61,71.61,0,0,1-8.31,5.38A82.11,82.11,0,0,0,30.3,24.69C41.54,19.42,51.95,10.06,57.1,0L73.71,5.27a3.09,3.09,0,0,1-3.16,1.4L69.5,8.31H86.58L89,7.84l10.65,4.91A4,4,0,0,1,98,14.51,51.84,51.84,0,0,1,83.31,31.24a148.09,148.09,0,0,0,30.07,5.5,55.58,55.58,0,0,0-9,13.1A129.64,129.64,0,0,1,80.73,44.7c-.12,1.29-1.17,2.11-3.51,2.46v1.52h19v11h-19v2.81H98.52V73.13H77.22v2.93h25.86V87.17H77.22v5.5H60.73v-5.5H35.57V76.05H60.73V73.13H39.43V62.48H60.73V59.67H41.89v-11H60.73Zm.12-23.28A47.4,47.4,0,0,0,68,25.16a48.6,48.6,0,0,0,6.67-4.8Z"/></g></svg>