<svg xmlns="http://www.w3.org/2000/svg" viewBox="0 0 58.62 57.36"><defs><style>.cls-1{fill:#b8d200;}</style></defs><title>アートボード 17</title><g id="greeting"><path class="cls-1" d="M55.08,40.92H45.24c3.48,5.64,7.74,7.62,13,9.12a19.93,19.93,0,0,0-5,7.2c-5.46-2.1-10-4.92-13.68-10.92-2.7,4.44-7.38,8.46-15.6,11a30.39,30.39,0,0,0-4.62-6.48c8.52-2.58,12.42-6.12,14.16-10H23.16V23.58h11.7V20.7h-6.6V17.34a38.14,38.14,0,0,1-5,2.88,48.7,48.7,0,0,0-2.16-4.38v4.32H16.2v1.92c1.56,2.1,5.64,8.46,6.48,9.9L18.3,38.7c-.48-1.5-1.26-3.42-2.1-5.4V57h-8V37.92a40.29,40.29,0,0,1-4.32,8.82A47.66,47.66,0,0,0,0,38.88c3.36-4.62,6.24-12.12,7.74-18.72H1.38v-8H8.16V0l9.78.54c-.06.6-.54,1-1.74,1.2V12.12h4.92v.12C26.76,9.36,32.1,4.38,34.68.12l9.48.3a1.52,1.52,0,0,1-1.2,1A38,38,0,0,0,58.62,12.66a48.88,48.88,0,0,0-4.44,7.74,35.64,35.64,0,0,1-4.56-2.64V20.7h-7v2.88H55.08Zm-24.42-6.6h4.2v-4.2h-4.2Zm13.62-20.7A36.84,36.84,0,0,1,38.7,7.5a34.91,34.91,0,0,1-5.64,6.12Zm3,16.5H42.66v4.2h4.62Z"/></g></svg>