<svg xmlns="http://www.w3.org/2000/svg" viewBox="0 0 110.8 108.81"><defs><style>.cls-1{fill:#fff;}</style></defs><title>アートボード 18</title><g id="greeting"><path class="cls-1" d="M45,54.41l3.51-.12,8.66.7-.35,4.56c-.94,28-2.22,39.31-5.5,43.41-3.86,4.8-7.84,6-23.4,5.62A38.57,38.57,0,0,0,23.52,94a83.84,83.84,0,0,0,11.12.47A4.19,4.19,0,0,0,37.91,93c1.52-1.76,2.46-8.42,3-23.87H31.12c-2.81,13.92-8.19,28.43-19.66,39.31A43.54,43.54,0,0,0,0,96.29c14.74-13.22,17.08-33.81,18-51H6.9V3H56.28V45.28H34.4c-.35,2.92-.58,6-.94,9.13ZM22.23,18v12.4H39.9V18Zm61.08-5c-.12,1.29-1.05,2.11-3.39,2.46V78.86H63.42V11.93ZM90.44,0,110.8.94c-.12,1.29-.94,2.22-3.51,2.57V88.69c0,15.8-4.56,20.12-31.83,20.12a68.1,68.1,0,0,0-5.85-17.67c7.37.35,15.09.35,17.67.35,2.22,0,3.16-.7,3.16-2.93Z"/></g></svg>