<svg xmlns="http://www.w3.org/2000/svg" viewBox="0 0 56.1 55.5"><defs><style>.cls-1{fill:#b8d200;}</style></defs><title>アートボード 13</title><g id="greeting"><path class="cls-1" d="M48.48,34l5.64,4.32a2.63,2.63,0,0,1-2,.36c-2,1.38-5.1,3.18-8,4.74a40.28,40.28,0,0,0,12,4,33.82,33.82,0,0,0-5.52,7.86C37.14,52.08,29.64,45.12,24.72,34h-6v11.1c3.6-.42,7.32-.9,11-1.32l.3,7.14c-8.52,1.44-17.52,2.76-23.46,3.6a1.34,1.34,0,0,1-1.08,1L2.34,46.74c2.1-.18,4.62-.42,7.38-.72V34H0V26.28H9.78V0H48.42V7.08H18.72v2h28v6.66h-28V17.7h28v6.66h-28v1.92H54.84V34ZM33.9,34a27,27,0,0,0,3.84,4.8A72.85,72.85,0,0,0,44.58,34Z"/></g></svg>