<svg xmlns="http://www.w3.org/2000/svg" viewBox="0 0 55.08 57.12"><defs><style>.cls-1{fill:#b8d200;}</style></defs><title>アートボード 14</title><g id="greeting"><path class="cls-1" d="M55.08,23.28V31.8H39.54V47.28c0,7.92-2.7,9.84-17.16,9.84a34.46,34.46,0,0,0-3-8.88c3.6.18,8.16.18,9.48.18s1.68-.3,1.68-1.32V31.8H0V23.28H30.54v-7.5l10.86.42c-.12.72-.54,1.14-1.86,1.38v5.7Zm-44.7-8.4v7H1.5V6.66H22.62V0L33.9.6c-.06.72-.6,1.14-1.92,1.32V6.66H53.46V21.84H44.1v-7Zm5.28,34c-1.38-3.42-5.22-8.58-8.64-12.3l7-4.44c3.48,3.42,7.56,8.22,9.24,11.76Z"/></g></svg>