<svg xmlns="http://www.w3.org/2000/svg" viewBox="0 0 819.71 71.37"><defs><style>.cls-1{fill:#fff;}.cls-2{fill:none;}</style></defs><title>tit_chibakita</title><g id="レイヤー_2" data-name="レイヤー 2"><g id="main_SHOP1"><path class="cls-1" d="M37.84,41.48c-.08,1.16-.17,2.4-.25,3.56-.58,11.34-4.39,20-17.3,20C1.24,65.08,0,53,0,36.43V27.57C.5,11.76,1.74,0,20.28,0c10.35.17,16.15,5.46,17,16.06a30.11,30.11,0,0,1,.25,4.72H26.08c-.5-4-.08-11.43-5.8-11.43-9.11,0-8.36,10.85-8.36,15.65V42.23c0,5.13.41,13.5,8.36,13.5,6.38,0,5.63-10.27,5.88-14.24Z"/><path class="cls-1" d="M47.11,63.59V1.49H58.7V26.08H74.93V1.49H86.52v62.1H74.93V35.19H58.7v28.4Z"/><path class="cls-1" d="M97.79,63.59V1.49h11.59v62.1Z"/><path class="cls-1" d="M120.47,63.59V1.49h18.71c5,0,9.85.33,13.16,4.55,2.65,3.39,3.06,7,3.06,11.18,0,5.38-1.16,10.68-7.45,13v.17c6.54.91,9,6.38,9,14.41a29.44,29.44,0,0,1-.83,7.62c-2.48,7.87-7,11.18-15.23,11.18Zm13.74-37c2.81,0,6.46.17,8.28-2.15,1.08-1.57,1.24-3.73,1.24-6.71,0-4.64-1-7-6.29-7.12h-5.38v16Zm.33,27.9c2.4,0,4.88.25,7-.66,3.15-1.41,3.56-5.46,3.56-8.61,0-6.71-1.32-9.52-8.53-9.52h-4.47V54.48Z"/><path class="cls-1" d="M161.87,63.59l14.82-62.1h15.65l14.08,62.1H194l-3.06-15.73H177.36l-3.06,15.73Zm17.3-24.84h9.94L186,21.11c-.58-2.9-.83-5.71-1.16-8.61-.08-1.41-.25-2.81-.41-4.14h-.17c-.17,1.32-.33,2.73-.41,4.14-.33,2.9-.58,5.71-1.16,8.61Z"/><path class="cls-1" d="M211.14,42.47V33h19.71v9.52Z"/><path class="cls-1" d="M240.37,63.59V1.49H252V29.06h.17a124.2,124.2,0,0,1,7.29-14.9L266.2,1.49h13.08L264,28.15,280,63.59H266.94L256,39.08,252,45.79v17.8Z"/><path class="cls-1" d="M288.14,63.59V1.49h11.59v62.1Z"/><path class="cls-1" d="M308.51,1.49h38.67V10.6h-13.5v53H322.09v-53H308.51Z"/><path class="cls-1" d="M345.94,63.59l14.82-62.1H376.4l14.08,62.1H378.06L375,47.86H361.42l-3.06,15.73Zm17.3-24.84h9.94L370,21.11c-.58-2.9-.83-5.71-1.16-8.61-.08-1.41-.25-2.81-.41-4.14h-.17c-.17,1.32-.33,2.73-.41,4.14-.33,2.9-.58,5.71-1.16,8.61Z"/><rect class="cls-2" width="819.71" height="71.37"/></g></g></svg>