<svg xmlns="http://www.w3.org/2000/svg" viewBox="0 0 819.71 71.37"><defs><style>.cls-1{fill:#fff;}.cls-2{fill:none;}</style></defs><title>tit_narita</title><g id="レイヤー_2" data-name="レイヤー 2"><g id="main_SHOP1"><path class="cls-1" d="M27.74.36H39.33v62.1H27.24l-9-22.11A208.87,208.87,0,0,1,9.94,15.68H9.77c.41,5.13.91,11.43,1.24,17.72s.58,12.42.58,17.39V62.46H0V.36H12L21,23a208.27,208.27,0,0,1,8.28,24.67h.17C29.06,42,28.65,36,28.32,30s-.58-11.92-.58-17.47Z"/><path class="cls-1" d="M47.36,62.46,62.18.36H77.83l14.08,62.1H79.49L76.42,46.73H62.84L59.78,62.46Zm17.3-24.84H74.6L71.45,20c-.58-2.9-.83-5.71-1.16-8.61C70.21,10,70,8.56,69.88,7.23h-.17c-.17,1.33-.33,2.73-.41,4.14-.33,2.9-.58,5.71-1.16,8.61Z"/><path class="cls-1" d="M111.36,35.71V62.46H99.77V.36h21.94c10,0,17.64,3.48,17.64,14.9,0,6.79-1.74,13.91-9.52,15v.17c6.87.91,8.94,5.3,8.94,11.26,0,2.57-.33,17.8,2.48,19.62v1.16H128.5c-1.41-4-1.16-11.59-1.24-15.73-.08-3.81,0-9-4-10.18-3.15-.91-6.54-.83-9.85-.83Zm0-9.11h9.11c3.81-.25,6.79-2.73,6.79-8.94,0-7-2.9-8.11-7.29-8.2h-8.61Z"/><path class="cls-1" d="M150.61,62.46V.36H162.2v62.1Z"/><path class="cls-1" d="M171,.36h38.67V9.47h-13.5v53H184.56v-53H171Z"/><path class="cls-1" d="M208.41,62.46,223.23.36h15.65L253,62.46H240.53l-3.06-15.73H223.89l-3.06,15.73Zm17.3-24.84h9.94L232.5,20c-.58-2.9-.83-5.71-1.16-8.61-.08-1.41-.25-2.81-.41-4.14h-.17c-.17,1.33-.33,2.73-.41,4.14-.33,2.9-.58,5.71-1.16,8.61Z"/><rect class="cls-2" width="819.71" height="71.37"/></g></g></svg>