 <svg xmlns="http://www.w3.org/2000/svg" viewBox="0 0 233.68 127.45"><defs><style>.cls-1{fill:#ff003c;}.cls-2{fill:#fff;}.cls-3{fill:none;stroke:#ff003c;stroke-miterlimit:10;stroke-width:12.26px;}</style></defs><title>icon_blog</title><g id="レイヤー_2" data-name="レイヤー 2"><g id="gnav"><path class="cls-1" d="M158.5,13.29S137.33.16,117.52.16C96.6.16,79.25,13.29,79.25,13.29S58.08.16,38.27.16C17.35.16,0,13.29,0,13.29V127.45s17.08-13.13,38.27-13.13c20.09,0,41,13.13,41,13.13s17.08-13.13,38.27-13.13c20.09,0,41,13.13,41,13.13Z"/><path class="cls-2" d="M34.34,77.68V46h9.55c2.54,0,5,.17,6.72,2.33A8.52,8.52,0,0,1,52.18,54c0,2.74-.59,5.45-3.81,6.63v.09C51.71,61.19,53,64,53,68.08A14.56,14.56,0,0,1,52.55,72c-1.26,4-3.54,5.71-7.77,5.71Zm7-18.9c1.44,0,3.3.09,4.23-1.1a6,6,0,0,0,.64-3.42c0-2.37-.51-3.55-3.22-3.64H40.25v8.16ZM41.52,73a9,9,0,0,0,3.55-.34c1.61-.72,1.82-2.79,1.82-4.4,0-3.42-.67-4.86-4.35-4.86H40.25V73Z"/><path class="cls-2" d="M58,77.68V46H63.9V73h11v4.65Z"/><path class="cls-2" d="M78,59.29c.25-8.07.89-14.08,10.36-14.08s10.1,6,10.35,14.08v4.52c0,8.46-.63,14.63-10.35,14.63S78,72.27,78,63.81Zm6.09,7.48c0,2.62.21,6.89,4.27,6.89,4.23,0,4.27-4.35,4.27-7.4V58.15c0-2.54.12-8.16-4.27-8.16-4.65,0-4.27,5.54-4.27,8Z"/><path class="cls-2" d="M103.58,59.29c.26-8.07.89-14.08,10.36-14.08,5.07,0,8.58,1.36,9.93,6.85a19.22,19.22,0,0,1,.3,3.85h-5.92c-.08-3.21-.3-5.75-4.31-5.92-4.65,0-4.27,5.54-4.27,8v8.79c0,2.62.21,6.89,4.27,6.89,3.38,0,4.48-3.59,4.35-8.37h-4.1V60.64H124v17H119.6V74h-.08a6,6,0,0,1-5.58,4.4c-9.73,0-10.36-6.17-10.36-14.63Z"/><path class="cls-3" d="M208.79,8.5,148.62,48,137.45,73.25l27.58,0,60.18-39.53ZM152.4,68.58l-4.64-7.13,4.42-9.78,11,16.81Z"/><path class="cls-2" d="M208.46,8.84,148.62,48,137.45,73.25l27.58,0L224.87,34ZM152.4,68.58l-4.64-7.13,4.42-9.78,11,16.81Z"/><rect class="cls-1" x="153.34" y="30.69" width="59.4" height="4.09" transform="translate(11.71 104.99) rotate(-33.01)"/><rect class="cls-1" x="158.34" y="38.23" width="59.4" height="4.09" transform="translate(8.41 108.93) rotate(-33.01)"/><rect class="cls-1" x="163.08" y="45.85" width="59.4" height="4.09" transform="translate(5.03 112.75) rotate(-33.01)"/></g></g></svg>