<svg xmlns="http://www.w3.org/2000/svg" width="351.695" height="342.367" viewBox="0 0 351.695 342.367"><defs><style>.cls-1{fill:#323232;}.cls-2{fill:none;opacity:0.24;}</style></defs><title>アートボード 26</title><g id="recruit_hover"><circle class="cls-1" cx="175.79" cy="171.38" r="137.5" transform="translate(-48.014 70.459) rotate(-20)"/><path class="cls-1" d="M252.068,321.291a6.169,6.169,0,0,1-4.473.736,5.485,5.485,0,0,1-3.328-3.081,6.628,6.628,0,0,1-.87-3.625,4.132,4.132,0,0,1,1.634-2.874l-.029-.054a4.019,4.019,0,0,1-2.656.16,4.576,4.576,0,0,1-2.08-1.941q-.338-.52-.7-1.147t-.8-1.408q-.861-1.531-1.4-2.295a1.722,1.722,0,0,0-1.292-.754l-.084-.164,4.268-2.208a2.38,2.38,0,0,1,.871.746,11.819,11.819,0,0,1,.683,1.052l2.048,3.691a3.478,3.478,0,0,0,1.509,1.508,2.37,2.37,0,0,0,2.09-.249l2.106-1.09-4.274-8.262,3.939-2.038,10.1,19.533Zm-2.719-9.412a3.627,3.627,0,0,0-1.842,1.8,3.227,3.227,0,0,0,.4,2.653q1.4,2.708,4.136,1.293l1.86-.962-2.915-5.635Z"/><path class="cls-1" d="M226.476,328.06l7.375-2.7-1.78-4.858-6.941,2.542-1.25-3.412,6.941-2.543-2.034-5.553-7.664,2.808-1.25-3.413L231.7,306.6l7.564,20.65-11.539,4.227Z"/><path class="cls-1" d="M210.873,331.838a2.132,2.132,0,0,0,2.271.6,2.083,2.083,0,0,0,1.235-.743,2.959,2.959,0,0,0,.5-1.6,12.379,12.379,0,0,0-.168-2.648q-.242-1.6-.769-3.884a38.477,38.477,0,0,0-1.071-3.894,8.938,8.938,0,0,0-1.046-2.209,2.18,2.18,0,0,0-1.126-.91,2.567,2.567,0,0,0-1.281-.005,2.965,2.965,0,0,0-1.021.44,1.855,1.855,0,0,0-.675.978,5.224,5.224,0,0,0-.19,1.782,15.441,15.441,0,0,0,.437,2.855l-4.322,1a19.893,19.893,0,0,1-.491-3.364,7.68,7.68,0,0,1,.376-2.963,5.126,5.126,0,0,1,1.649-2.308A8.049,8.049,0,0,1,208.5,313.5a8.377,8.377,0,0,1,4.052-.111,5.394,5.394,0,0,1,2.725,1.742,10.192,10.192,0,0,1,1.8,3.283,46.166,46.166,0,0,1,2.072,8.989,10.224,10.224,0,0,1-.178,3.755,5.7,5.7,0,0,1-1.676,2.8,7.988,7.988,0,0,1-3.682,1.717,7.676,7.676,0,0,1-3.819.091,5.249,5.249,0,0,1-2.435-1.446,6.783,6.783,0,0,1-1.4-2.3,20.978,20.978,0,0,1-.743-2.468l4.321-1A7.988,7.988,0,0,0,210.873,331.838Z"/><path class="cls-1" d="M190.778,338.842a6.181,6.181,0,0,1-4.425-.988,5.488,5.488,0,0,1-1.936-4.1,6.64,6.64,0,0,1,.547-3.687,4.134,4.134,0,0,1,2.589-2.056l-.006-.062a4.014,4.014,0,0,1-2.524-.844,4.57,4.57,0,0,1-1.2-2.577q-.119-.608-.219-1.325t-.214-1.6q-.227-1.742-.437-2.65a1.723,1.723,0,0,0-.917-1.182l-.018-.184,4.784-.454a2.372,2.372,0,0,1,.53,1.017,11.948,11.948,0,0,1,.24,1.23l.521,4.189a3.477,3.477,0,0,0,.836,1.962,2.369,2.369,0,0,0,2.032.549l2.362-.224-.879-9.26,4.415-.419,2.077,21.893Zm.993-9.747a3.626,3.626,0,0,0-2.382.983,3.232,3.232,0,0,0-.618,2.611q.288,3.035,3.354,2.745l2.085-.2-.6-6.316Z"/><path class="cls-1" d="M173,324.145a9.877,9.877,0,0,0-.054-1.527,3.447,3.447,0,0,0-.358-1.215,2.148,2.148,0,0,0-.772-.828,2.532,2.532,0,0,0-1.267-.337,2.5,2.5,0,0,0-1.3.247,2.183,2.183,0,0,0-.813.773,3.451,3.451,0,0,0-.442,1.187,9.917,9.917,0,0,0-.161,1.52l-.54,15.329-4.432-.156.539-15.329a8.871,8.871,0,0,1,.706-3.442,5.517,5.517,0,0,1,1.646-2.115,5.329,5.329,0,0,1,2.285-1,12.234,12.234,0,0,1,2.626-.185,13.708,13.708,0,0,1,2.607.338,5.313,5.313,0,0,1,2.212,1.08,5.129,5.129,0,0,1,1.495,2.194,9.366,9.366,0,0,1,.458,3.622l-.539,15.329-4.432-.156Z"/><path class="cls-1" d="M155.127,338.234l-4.4-.6,2.974-21.789,4.394.6Z"/><path class="cls-1" d="M131.143,329.858l4.677,1.1,4.208-17.868,4.318,1.017-4.209,17.868,4.677,1.1-.833,3.538-13.67-3.22Z"/><path class="cls-1" d="M29.369,254.1a6.18,6.18,0,0,1-.938-4.436,5.488,5.488,0,0,1,2.927-3.464,6.637,6.637,0,0,1,3.582-1.033,4.137,4.137,0,0,1,2.945,1.5l.053-.03a4.017,4.017,0,0,1-.281-2.646,4.57,4.57,0,0,1,1.845-2.165q.5-.362,1.115-.75t1.37-.861q1.491-.93,2.229-1.5a1.72,1.72,0,0,0,.694-1.324l.16-.092,2.4,4.163a2.373,2.373,0,0,1-.706.9,11.485,11.485,0,0,1-1.019.729l-3.594,2.214a3.478,3.478,0,0,0-1.438,1.575,2.372,2.372,0,0,0,.344,2.077l1.184,2.055,8.059-4.645,2.215,3.843L33.461,261.2Zm9.28-3.144a3.627,3.627,0,0,0-1.884-1.758,3.232,3.232,0,0,0-2.632.521q-2.643,1.523-1.1,4.191l1.045,1.814,5.5-3.168Z"/><path class="cls-1" d="M21.436,228.821l3.034,7.245,4.772-2-2.856-6.818,3.353-1.4,2.855,6.818,5.455-2.284L34.9,222.85l3.352-1.4,4.867,11.62-20.284,8.5-4.747-11.335Z"/><path class="cls-1" d="M16.953,213.413a2.133,2.133,0,0,0-.494,2.3,2.078,2.078,0,0,0,.8,1.2,2.961,2.961,0,0,0,1.622.427,12.32,12.32,0,0,0,2.638-.288q1.591-.316,3.845-.945a38.232,38.232,0,0,0,3.841-1.247,8.95,8.95,0,0,0,2.158-1.146,2.177,2.177,0,0,0,.858-1.167,2.574,2.574,0,0,0-.053-1.28,2.954,2.954,0,0,0-.487-1,1.855,1.855,0,0,0-1.007-.63,5.227,5.227,0,0,0-1.789-.108,15.441,15.441,0,0,0-2.832.566l-1.192-4.271a19.783,19.783,0,0,1,3.338-.644,7.678,7.678,0,0,1,2.977.24,5.134,5.134,0,0,1,2.381,1.542,8.068,8.068,0,0,1,1.609,3.245,8.373,8.373,0,0,1,.3,4.042,5.407,5.407,0,0,1-1.617,2.8,10.188,10.188,0,0,1-3.2,1.947,42.543,42.543,0,0,1-4.388,1.464,42.464,42.464,0,0,1-4.5,1.015A10.2,10.2,0,0,1,18,221.466a5.689,5.689,0,0,1-2.878-1.547,7.994,7.994,0,0,1-1.884-3.6,7.684,7.684,0,0,1-.264-3.812,5.241,5.241,0,0,1,1.333-2.5,6.789,6.789,0,0,1,2.235-1.5,20.94,20.94,0,0,1,2.431-.854l1.192,4.272A7.979,7.979,0,0,0,16.953,213.413Z"/><path class="cls-1" d="M9.048,193.672a6.178,6.178,0,0,1,.786-4.466,5.487,5.487,0,0,1,4.01-2.119,6.623,6.623,0,0,1,3.708.379,4.134,4.134,0,0,1,2.17,2.494l.061-.009a4.017,4.017,0,0,1,.728-2.56,4.577,4.577,0,0,1,2.521-1.319q.6-.146,1.313-.278t1.593-.286q1.73-.306,2.627-.557a1.721,1.721,0,0,0,1.139-.969l.183-.026.67,4.758a2.361,2.361,0,0,1-.992.575,11.694,11.694,0,0,1-1.218.3l-4.161.711a3.472,3.472,0,0,0-1.923.924,2.367,2.367,0,0,0-.457,2.055l.33,2.349,9.211-1.3.618,4.392L10.19,201.784Zm9.782.551a3.627,3.627,0,0,0-1.091-2.335,3.229,3.229,0,0,0-2.636-.5q-3.019.426-2.59,3.475l.292,2.074,6.283-.885Z"/><path class="cls-1" d="M22.932,175.255a9.969,9.969,0,0,0,1.523-.123,3.45,3.45,0,0,0,1.2-.413,2.138,2.138,0,0,0,.792-.81,2.975,2.975,0,0,0-.027-2.571,2.182,2.182,0,0,0-.809-.777,3.452,3.452,0,0,0-1.205-.388,9.963,9.963,0,0,0-1.525-.092L7.54,170.24l-.046-4.435,15.337-.16a8.891,8.891,0,0,1,3.471.55,5.536,5.536,0,0,1,2.188,1.548,5.336,5.336,0,0,1,1.1,2.237,12.215,12.215,0,0,1,.3,2.615,13.666,13.666,0,0,1-.219,2.62,5.317,5.317,0,0,1-.978,2.259,5.129,5.129,0,0,1-2.124,1.593,9.368,9.368,0,0,1-3.6.623L7.64,179.85l-.046-4.436Z"/><path class="cls-1" d="M8.055,158.017l.4-4.418,21.9,1.987-.4,4.417Z"/><path class="cls-1" d="M15.337,133.665l-.888,4.722L32.49,141.78l-.82,4.358-18.041-3.394-.888,4.723L9.169,146.8l2.6-13.8Z"/><path class="cls-1" d="M86.417,28.58a6.175,6.175,0,0,1,4.389-1.138A5.488,5.488,0,0,1,94.4,30.21a6.637,6.637,0,0,1,1.194,3.531,4.135,4.135,0,0,1-1.368,3.01l.034.052a4.013,4.013,0,0,1,2.63-.4,4.574,4.574,0,0,1,2.247,1.745q.383.486.8,1.08t.922,1.33q1,1.446,1.6,2.159a1.723,1.723,0,0,0,1.354.634l.1.155-4.05,2.585a2.377,2.377,0,0,1-.936-.664,11.772,11.772,0,0,1-.774-.985l-2.374-3.491a3.47,3.47,0,0,0-1.639-1.365,2.369,2.369,0,0,0-2.059.438l-2,1.275,5,7.841-3.738,2.386L79.51,32.988Zm3.561,9.128a3.632,3.632,0,0,0,1.671-1.961,3.232,3.232,0,0,0-.64-2.606q-1.64-2.57-4.237-.913l-1.765,1.127L88.419,38.7Z"/><path class="cls-1" d="M111.279,19.521l-7.1,3.361,2.214,4.677,6.681-3.164,1.556,3.285-6.68,3.163,2.53,5.345,7.377-3.493,1.555,3.285-11.385,5.391L98.616,21.5l11.107-5.26Z"/><path class="cls-1" d="M126.5,14.329a2.131,2.131,0,0,0-2.316-.39,2.075,2.075,0,0,0-1.163.852,2.96,2.96,0,0,0-.353,1.64,12.319,12.319,0,0,0,.407,2.622q.388,1.575,1.119,3.8a38.392,38.392,0,0,0,1.421,3.78,8.937,8.937,0,0,0,1.243,2.1,2.187,2.187,0,0,0,1.2.8,2.572,2.572,0,0,0,1.276-.111,2.948,2.948,0,0,0,.976-.532,1.854,1.854,0,0,0,.584-1.035,5.208,5.208,0,0,0,.027-1.792,15.5,15.5,0,0,0-.694-2.8l4.213-1.385a19.885,19.885,0,0,1,.795,3.306,7.677,7.677,0,0,1-.105,2.984,5.13,5.13,0,0,1-1.432,2.448,8.043,8.043,0,0,1-3.168,1.755,8.377,8.377,0,0,1-4.025.48,5.405,5.405,0,0,1-2.872-1.488,10.178,10.178,0,0,1-2.091-3.105,42.336,42.336,0,0,1-1.662-4.317,42.54,42.54,0,0,1-1.219-4.446,10.214,10.214,0,0,1-.164-3.755,5.689,5.689,0,0,1,1.415-2.945,7.983,7.983,0,0,1,3.51-2.045,7.677,7.677,0,0,1,3.8-.437,5.246,5.246,0,0,1,2.556,1.218,6.792,6.792,0,0,1,1.6,2.164,21.326,21.326,0,0,1,.964,2.391l-4.214,1.385A7.981,7.981,0,0,0,126.5,14.329Z"/><path class="cls-1" d="M145.857,5.534a6.178,6.178,0,0,1,4.5.583,5.487,5.487,0,0,1,2.3,3.909,6.63,6.63,0,0,1-.211,3.721,4.136,4.136,0,0,1-2.393,2.282l.012.061a4.015,4.015,0,0,1,2.59.611,4.566,4.566,0,0,1,1.432,2.458q.174.595.338,1.3t.358,1.578q.384,1.714.675,2.6a1.725,1.725,0,0,0,1.02,1.094l.034.182-4.723.885a2.377,2.377,0,0,1-.619-.965,12.031,12.031,0,0,1-.351-1.2l-.9-4.125a3.475,3.475,0,0,0-1.01-1.879,2.371,2.371,0,0,0-2.074-.364l-2.33.438,1.712,9.143-4.359.816L137.8,7.043Zm-.106,9.8a3.628,3.628,0,0,0,2.283-1.2,3.229,3.229,0,0,0,.379-2.656q-.562-3-3.589-2.43l-2.058.386,1.168,6.236Z"/><path class="cls-1" d="M164.907,18.57a9.928,9.928,0,0,0,.19,1.517,3.428,3.428,0,0,0,.464,1.178,2.138,2.138,0,0,0,.843.757,2.972,2.972,0,0,0,2.568-.139,2.186,2.186,0,0,0,.742-.842,3.466,3.466,0,0,0,.334-1.221,9.96,9.96,0,0,0,.025-1.528l-.826-15.316,4.428-.239.827,15.316a8.878,8.878,0,0,1-.4,3.491,5.53,5.53,0,0,1-1.452,2.253,5.323,5.323,0,0,1-2.187,1.2,12.186,12.186,0,0,1-2.6.418,13.713,13.713,0,0,1-2.628-.1,5.312,5.312,0,0,1-2.3-.878,5.122,5.122,0,0,1-1.684-2.053,9.364,9.364,0,0,1-.778-3.566l-.827-15.316,4.429-.239Z"/><path class="cls-1" d="M181.464,2.945l4.431.2-1.008,21.968-4.431-.2Z"/><path class="cls-1" d="M206.075,9.118l-4.758-.673-2.572,18.176L194.355,26l2.571-18.176-4.757-.674.509-3.6,13.906,1.967Z"/><path class="cls-1" d="M314.263,75.362a6.178,6.178,0,0,1,1.336,4.333,5.488,5.488,0,0,1-2.6,3.715,6.636,6.636,0,0,1-3.474,1.353,4.134,4.134,0,0,1-3.069-1.23l-.05.036a4.023,4.023,0,0,1,.519,2.61,4.575,4.575,0,0,1-1.643,2.323q-.468.405-1.042.846t-1.287.981q-1.4,1.061-2.085,1.693A1.718,1.718,0,0,0,300.3,93.4l-.152.106-2.765-3.93a2.37,2.37,0,0,1,.621-.964,11.535,11.535,0,0,1,.949-.818l3.379-2.53a3.477,3.477,0,0,0,1.291-1.7,2.372,2.372,0,0,0-.53-2.038l-1.365-1.94-7.606,5.354-2.553-3.627,17.984-12.656Zm-8.958,3.969a3.624,3.624,0,0,0,2.035,1.58,3.231,3.231,0,0,0,2.575-.757q2.494-1.755.721-4.273l-1.206-1.713-5.188,3.651Z"/><path class="cls-1" d="M324.445,99.795l-3.68-6.938-4.571,2.425,3.463,6.53-3.211,1.7-3.463-6.53-5.224,2.771,3.824,7.211-3.211,1.7-5.9-11.129,19.428-10.3,5.757,10.857Z"/><path class="cls-1" d="M330.319,114.748a2.132,2.132,0,0,0,.283-2.332,2.08,2.08,0,0,0-.9-1.123,2.97,2.97,0,0,0-1.654-.277,12.344,12.344,0,0,0-2.6.527q-1.556.459-3.744,1.291a38.428,38.428,0,0,0-3.711,1.592,8.95,8.95,0,0,0-2.045,1.338A2.177,2.177,0,0,0,315.2,117a2.565,2.565,0,0,0,.169,1.27,2.949,2.949,0,0,0,.576.951,1.855,1.855,0,0,0,1.061.536,5.192,5.192,0,0,0,1.791-.055,15.434,15.434,0,0,0,2.769-.821l1.576,4.146a19.825,19.825,0,0,1-3.265.945,7.684,7.684,0,0,1-2.986.031,5.133,5.133,0,0,1-2.511-1.319,8.039,8.039,0,0,1-1.9-3.084,8.372,8.372,0,0,1-.664-4,5.4,5.4,0,0,1,1.355-2.937,10.162,10.162,0,0,1,3.007-2.23,46.1,46.1,0,0,1,8.623-3.277,10.191,10.191,0,0,1,3.744-.336,5.7,5.7,0,0,1,3.006,1.278,7.988,7.988,0,0,1,2.2,3.413,7.677,7.677,0,0,1,.61,3.772,5.251,5.251,0,0,1-1.1,2.61,6.8,6.8,0,0,1-2.089,1.7,21.007,21.007,0,0,1-2.344,1.072l-1.576-4.146A8,8,0,0,0,330.319,114.748Z"/><path class="cls-1" d="M339.99,133.693a6.175,6.175,0,0,1-.378,4.519,5.487,5.487,0,0,1-3.8,2.475,6.633,6.633,0,0,1-3.728-.042,4.132,4.132,0,0,1-2.388-2.286l-.06.015a4.026,4.026,0,0,1-.493,2.615,4.574,4.574,0,0,1-2.391,1.542q-.587.2-1.283.4t-1.56.43q-1.7.461-2.566.793a1.725,1.725,0,0,0-1.046,1.068l-.18.043-1.1-4.678a2.372,2.372,0,0,1,.936-.663,11.818,11.818,0,0,1,1.187-.405l4.08-1.085a3.472,3.472,0,0,0,1.831-1.095,2.372,2.372,0,0,0,.269-2.088l-.542-2.309-9.055,2.127-1.014-4.317,21.408-5.03Zm-9.792.339a3.625,3.625,0,0,0,1.3,2.226,3.233,3.233,0,0,0,2.671.258q2.967-.7,2.264-3.7l-.479-2.039-6.176,1.451Z"/><path class="cls-1" d="M327.832,153.317a9.932,9.932,0,0,0-1.507.258,3.434,3.434,0,0,0-1.156.518,2.138,2.138,0,0,0-.718.876,2.97,2.97,0,0,0,.254,2.559,2.18,2.18,0,0,0,.875.7,3.472,3.472,0,0,0,1.235.279,9.961,9.961,0,0,0,1.528-.043l15.263-1.515.438,4.414-15.264,1.515a8.872,8.872,0,0,1-3.506-.24,5.52,5.52,0,0,1-2.315-1.349,5.32,5.32,0,0,1-1.294-2.131,12.119,12.119,0,0,1-.535-2.578,13.69,13.69,0,0,1-.014-2.629,5.318,5.318,0,0,1,.774-2.336,5.133,5.133,0,0,1,1.976-1.774,9.348,9.348,0,0,1,3.528-.938l15.263-1.515.438,4.414Z"/><path class="cls-1" d="M344.155,168.906l.046,4.436-21.99.228-.046-4.435Z"/><path class="cls-1" d="M339.12,194.024l.458-4.783L321.3,187.493l.422-4.415L340,184.826l.457-4.782,3.618.346-1.337,13.981Z"/><rect class="cls-2" width="351.695" height="342.367"/></g></svg>