<svg xmlns="http://www.w3.org/2000/svg" width="349.244" height="320.049" viewBox="0 0 349.244 320.049"><defs><style>.cls-1{fill:#ff003c;}.cls-2{fill:#fff;}</style></defs><title>アートボード 17</title><g id="recruit_hover"><circle class="cls-1" cx="188.762" cy="160.168" r="158.125" transform="translate(-43.397 74.22) rotate(-20)"/><path class="cls-1" d="M8.908,100.941l-2.485,8.684,5.72,1.638,2.34-8.172,4.018,1.15-2.34,8.172,6.538,1.872,2.584-9.024,4.018,1.15-3.988,13.927L1,113.378,4.89,99.791Z"/><path class="cls-1" d="M28.51,87.155l.028-.065-15.9-6.861,1.853-4.293L37.708,85.954l-2.3,5.334L16.676,90l-.028.065,16.261,7.016-1.852,4.292L7.836,91.351l2.329-5.4Z"/><path class="cls-1" d="M30.074,56.854l-2.818,4.752L45.414,72.373l-2.6,4.388L24.655,65.994l-2.819,4.752-3.595-2.131,8.238-13.893Z"/><path class="cls-1" d="M36.869,40.52a7.1,7.1,0,0,1,4.315-2.926,6.31,6.31,0,0,1,4.96,1.612A7.637,7.637,0,0,1,48.8,42.571a4.76,4.76,0,0,1-.321,3.789l.056.043a4.622,4.622,0,0,1,2.7-1.448,5.254,5.254,0,0,1,3.106,1.024q.6.379,1.282.862t1.511,1.085q1.638,1.184,2.563,1.723a1.981,1.981,0,0,0,1.712.164l.168.13L58.185,54.3a2.731,2.731,0,0,1-1.27-.358,13.681,13.681,0,0,1-1.22-.769l-3.918-2.866a4,4,0,0,0-2.3-.847,2.727,2.727,0,0,0-2.062,1.268L45.74,52.887l8.446,6.564-3.13,4.027L31.087,47.959Zm7.378,8.516a4.167,4.167,0,0,0,1.053-2.77,3.713,3.713,0,0,0-1.7-2.576q-2.769-2.152-4.942.645l-1.478,1.9,5.761,4.478Z"/><path class="cls-1" d="M58.468,30.849l.05-.05-4.444-9.4,3.892-3.922,6.271,15.454L71.3,39.942l-3.592,3.621-7.065-7.011L45.141,30.4l4.042-4.073Z"/><path class="cls-1" d="M67.814,18.22a9.354,9.354,0,0,1-1.473-2.583,6.306,6.306,0,0,1-.4-2.619,6.015,6.015,0,0,1,.792-2.542A7.976,7.976,0,0,1,68.8,8.148q2.947-2.325,5.56-2.017A6.725,6.725,0,0,1,78.9,8.887a7.8,7.8,0,0,1,1.335,2.465,9.57,9.57,0,0,1,.335,3.255l-.126,2.129a8.3,8.3,0,0,0,.12,2.3,5.09,5.09,0,0,0,1.041,1.977l.329.417-3.449,2.72-.855-1.084a7.964,7.964,0,0,1-1.464-2.657,9.071,9.071,0,0,1-.256-3.069l.113-2.03a4.74,4.74,0,0,0-.266-2.023,6.514,6.514,0,0,0-1-1.758,3.638,3.638,0,0,0-1.821-1.337A2.087,2.087,0,0,0,71,10.653a2.025,2.025,0,0,0-.846,2.044,5.9,5.9,0,0,0,1.285,2.573l.548.7-3.671,2.9Zm18.662,8.559-3.837,3.027-2.9-3.671,3.838-3.027Z"/><path class="cls-2" d="M58.389,151.2H85.433v5.741H74.861v14.77h13.3v5.7H55.656v-5.7H68.644v-14.77H58.389Z"/><path class="cls-2" d="M99.89,148.39a51.411,51.411,0,0,1,11.522,5.108l-3.168,5.5a61.321,61.321,0,0,0-11.206-5.385Zm-1.9,26.451c13.027-3.96,22.095-11.681,26.609-22.531a40.45,40.45,0,0,0,5.663,3.564c-4.91,10.77-14.294,19.244-27.243,23.956a1.512,1.512,0,0,1-.752,1.069Z"/><path class="cls-2" d="M160.634,168.822a97.259,97.259,0,0,0-11.681-5.7v17.9H142.5v-35l7.722.4c-.04.476-.4.911-1.267,1.069v10.929l1.148-1.584a118.837,118.837,0,0,1,13.9,6.058Z"/><path class="cls-2" d="M174.774,168.426v-19.64l7.365.4c-.04.436-.4.752-1.228.871v18.373ZM198.928,147c-.04.436-.4.752-1.228.871V160.15c0,8.434-2.732,16.354-13.74,21.065a30.924,30.924,0,0,0-4.633-4.435c10.216-4,12.117-10.453,12.117-16.67v-13.5Z"/><path class="cls-2" d="M209.679,160.032h29.763v6.019H211.247a1.842,1.842,0,0,1-1.283.752Z"/><path class="cls-2" d="M248.907,150.845c2.376-.079,5.939-.079,9.067-.158,1.782-.08,4.277-.159,6.731-.238,0-.04-.079-3.326-.237-5.266l7.721.356a1.361,1.361,0,0,1-1.109.911c-.04.554,0,3.247,0,3.88,5.346-.159,10.572-.277,12.354-.317v5.623c-1.267-.04-3.089-.079-5.187-.079-2.138,0-4.553.04-7.087.119.04,1.069.2,5.939.2,6.534a14.731,14.731,0,0,1,.634,4.712,13.862,13.862,0,0,1-1.03,5.86,19.316,19.316,0,0,1-11.087,9.463,29.813,29.813,0,0,0-4.514-4.712c3.445-1.108,6.613-2.613,8.2-4.435a6.779,6.779,0,0,1-1.228.119,7.257,7.257,0,0,1-7.246-7.325,7.754,7.754,0,0,1,7.879-7.8,7.283,7.283,0,0,1,2.02.277c0-.356-.079-2.178-.079-2.574-3.524.079-14.69.475-15.839.515Zm16.829,14.849c0-1.663-.594-2.97-2.495-2.97a2.84,2.84,0,0,0-2.772,3.088,2.778,2.778,0,0,0,2.653,2.851C264.785,168.663,265.735,167.436,265.735,165.694Z"/><path class="cls-2" d="M305.771,160.982a19.072,19.072,0,0,1,6.494-1.069c5.9,0,10.176,3.683,10.176,10.058,0,7.088-6.137,11.246-15.125,11.246-5.068,0-8.711-2.455-8.711-6.692,0-3.326,3.405-6.058,7.207-6.058,4.079,0,7.286,2.455,8,5.781a4.7,4.7,0,0,0,2.257-4.2c0-3.009-2.613-4.91-6.177-4.91a18.838,18.838,0,0,0-12.592,4.751c-.832.792-2.455,2.336-3.445,3.405l-4.276-4.237c2.455-2.336,11.8-11.166,17.066-16.037-1.742.238-8.117.634-10.612.832-.119.317-.673.554-1.03.634l-.475-6.652c4.91,0,16.512-.436,19.006-.871l.634-.317,3.722,4.791a2.413,2.413,0,0,1-1.267.436c-1.7,1.148-7.484,6.177-10.85,9.068Zm.515,15.047c.436,0,1.584-.08,1.861-.119a3.018,3.018,0,0,0-2.851-2.692c-.95,0-1.822.515-1.822,1.307C303.474,175.2,303.752,176.029,306.286,176.029Z"/></g></svg>