<svg xmlns="http://www.w3.org/2000/svg" width="331.767" height="336.962" viewBox="0 0 331.767 336.962"><defs><style>.cls-1{fill:#ff003c;}</style></defs><title>アートボード 18</title><g id="recruit"><circle class="cls-1" cx="163.33" cy="168.647" r="137.5" transform="translate(-47.831 66.033) rotate(-20)"/><path class="cls-1" d="M251.383,307.834l6.471-4.451-2.933-4.263-6.09,4.189-2.06-2.994,6.09-4.189-3.352-4.872-6.724,4.626-2.06-2.994,10.379-7.14,12.464,18.118-10.125,6.965Z"/><path class="cls-1" d="M230.625,306.247l-.055.028,6.89,13.393-3.615,1.86-10.061-19.555,4.492-2.311,11.866,11.215.055-.028-7.045-13.694,3.616-1.86,10.06,19.556-4.546,2.339Z"/><path class="cls-1" d="M212.82,325.736l4.518-1.634L211.1,306.839l4.171-1.508,6.241,17.264,4.519-1.634,1.235,3.418-13.208,4.775Z"/><path class="cls-1" d="M199.235,332.935a6.176,6.176,0,0,1-4.514-.424,5.491,5.491,0,0,1-2.436-3.826,6.641,6.641,0,0,1,.08-3.727,4.138,4.138,0,0,1,2.311-2.364l-.013-.06a4.018,4.018,0,0,1-2.61-.52,4.571,4.571,0,0,1-1.518-2.406q-.194-.588-.383-1.287t-.414-1.564q-.444-1.7-.767-2.575a1.72,1.72,0,0,0-1.058-1.057l-.04-.181,4.688-1.051a2.381,2.381,0,0,1,.653.943,11.962,11.962,0,0,1,.393,1.19l1.043,4.091a3.471,3.471,0,0,0,1.076,1.842,2.37,2.37,0,0,0,2.085.29l2.314-.519-2.034-9.077,4.328-.97,4.809,21.459ZM199,323.141a3.629,3.629,0,0,0-2.239,1.275,3.236,3.236,0,0,0-.286,2.668q.668,2.975,3.673,2.3l2.043-.458-1.387-6.191Z"/><path class="cls-1" d="M179.369,327.465l-.062.006-2.229,8.762-4.781.473,4.357-13.833-.852-8.613,4.414-.437.852,8.613,6.983,12.711-4.965.491Z"/><path class="cls-1" d="M166.139,330.751a8.126,8.126,0,0,1-.441,2.547,5.465,5.465,0,0,1-1.184,1.976,5.225,5.225,0,0,1-1.938,1.267,6.941,6.941,0,0,1-2.673.418,6.638,6.638,0,0,1-4.846-1.725,5.85,5.85,0,0,1-1.521-4.362,6.8,6.8,0,0,1,.468-2.393,8.326,8.326,0,0,1,1.578-2.368l1.262-1.358a7.227,7.227,0,0,0,1.191-1.607,4.437,4.437,0,0,0,.4-1.9l.01-.462,3.818.084-.026,1.2a6.951,6.951,0,0,1-.488,2.593,7.914,7.914,0,0,1-1.527,2.2l-1.2,1.3a4.115,4.115,0,0,0-.941,1.5,5.634,5.634,0,0,0-.3,1.734,3.156,3.156,0,0,0,.482,1.905,1.814,1.814,0,0,0,1.554.758,1.76,1.76,0,0,0,1.7-.9,5.133,5.133,0,0,0,.562-2.437l.018-.77,4.064.09Zm-7.779-16.068,4.249.094-.089,4.064-4.249-.094Z"/><path class="cls-1" d="M61.982,298.317l6.37,4.6,3.027-4.2-6-4.325,2.126-2.947,5.995,4.325,3.46-4.8-6.62-4.775,2.126-2.948,10.217,7.37L69.823,308.454l-9.967-7.189Z"/><path class="cls-1" d="M56.472,278.227l-.045-.042-10.288,11-2.969-2.777,15.021-16.062,3.689,3.45-6.56,14.951.045.042,10.519-11.248,2.969,2.777L53.833,296.38,50.1,292.888Z"/><path class="cls-1" d="M32.126,268.072l3.066,3.7,14.133-11.715,2.831,3.414L38.023,275.186l3.066,3.7-2.8,2.32-8.963-10.812Z"/><path class="cls-1" d="M20.74,257.731a6.182,6.182,0,0,1-1.134-4.39,5.487,5.487,0,0,1,2.772-3.59,6.628,6.628,0,0,1,3.533-1.19,4.136,4.136,0,0,1,3.008,1.371l.052-.033a4.023,4.023,0,0,1-.4-2.631,4.573,4.573,0,0,1,1.748-2.245q.487-.382,1.081-.8t1.331-.92q1.448-.995,2.161-1.595a1.722,1.722,0,0,0,.635-1.354l.156-.1,2.581,4.053a2.379,2.379,0,0,1-.665.935,11.792,11.792,0,0,1-.986.773l-3.493,2.37a3.478,3.478,0,0,0-1.368,1.637,2.374,2.374,0,0,0,.436,2.06l1.273,2,7.847-5,2.381,3.741-18.55,11.81Zm9.132-3.55a3.626,3.626,0,0,0-1.96-1.673,3.232,3.232,0,0,0-2.606.637q-2.572,1.638-.918,4.236l1.125,1.767,5.353-3.407Z"/><path class="cls-1" d="M19.136,237.191l-.026-.056-9,.88-2.069-4.336,14.491-.6,7.812-3.727,1.91,4-7.812,3.727-9.584,10.885-2.148-4.5Z"/><path class="cls-1" d="M11.546,225.834A8.125,8.125,0,0,1,9,226.279a5.479,5.479,0,0,1-2.26-.446,5.23,5.23,0,0,1-1.847-1.4,6.931,6.931,0,0,1-1.3-2.375,6.636,6.636,0,0,1-.013-5.143,5.847,5.847,0,0,1,3.592-2.905,6.79,6.79,0,0,1,2.41-.367,8.312,8.312,0,0,1,2.762.685l1.705.729a7.215,7.215,0,0,0,1.914.579,4.425,4.425,0,0,0,1.923-.27l.439-.146,1.21,3.623-1.14.38a6.932,6.932,0,0,1-2.6.416,7.9,7.9,0,0,1-2.586-.695l-1.627-.69a4.125,4.125,0,0,0-1.734-.378,5.669,5.669,0,0,0-1.733.3,3.163,3.163,0,0,0-1.631,1.1A1.812,1.812,0,0,0,6.293,221a1.759,1.759,0,0,0,1.423,1.294A5.137,5.137,0,0,0,10.2,222l.73-.244,1.289,3.856Zm12.5-12.748,1.347,4.031-3.855,1.288-1.347-4.031Z"/><path class="cls-1" d="M6.876,116.849,4.714,124.4l4.975,1.425,2.034-7.106,3.495,1-2.035,7.106,5.686,1.627,2.247-7.847,3.494,1-3.468,12.11L0,127.663l3.383-11.814Z"/><path class="cls-1" d="M23.922,104.861l.024-.057L10.118,98.838l1.611-3.733,20.192,8.712-2,4.638-16.288-1.123-.024.057,14.141,6.1-1.611,3.733L5.945,108.51l2.025-4.694Z"/><path class="cls-1" d="M25.283,78.513l-2.45,4.133,15.789,9.363L36.36,95.823,20.57,86.46,18.12,90.593,14.994,88.74l7.163-12.081Z"/><path class="cls-1" d="M31.192,64.309a6.174,6.174,0,0,1,3.752-2.544,5.488,5.488,0,0,1,4.313,1.4,6.635,6.635,0,0,1,2.309,2.926,4.134,4.134,0,0,1-.278,3.294l.049.038a4.014,4.014,0,0,1,2.344-1.26,4.566,4.566,0,0,1,2.7.89q.525.33,1.115.749t1.314.944q1.423,1.029,2.229,1.5a1.722,1.722,0,0,0,1.489.143l.146.113L49.727,76.3a2.372,2.372,0,0,1-1.1-.312,11.87,11.87,0,0,1-1.061-.668l-3.407-2.492a3.475,3.475,0,0,0-2-.737,2.369,2.369,0,0,0-1.793,1.1l-1.455,1.873,7.344,5.708-2.722,3.5L26.164,70.778Zm6.416,7.4a3.626,3.626,0,0,0,.916-2.409,3.232,3.232,0,0,0-1.478-2.24q-2.407-1.871-4.3.561L31.463,69.28l5.01,3.894Z"/><path class="cls-1" d="M49.973,55.9l.043-.043-3.865-8.174,3.384-3.411L54.989,57.71l6.144,6.1-3.124,3.148-6.143-6.1-13.48-5.35L41.9,51.967Z"/><path class="cls-1" d="M58.1,44.919a8.15,8.15,0,0,1-1.281-2.246,5.472,5.472,0,0,1-.345-2.277,5.234,5.234,0,0,1,.688-2.21,6.948,6.948,0,0,1,1.8-2.025,6.634,6.634,0,0,1,4.834-1.754,5.848,5.848,0,0,1,3.95,2.4A6.787,6.787,0,0,1,68.9,38.946a8.311,8.311,0,0,1,.291,2.83l-.109,1.851a7.215,7.215,0,0,0,.1,2,4.419,4.419,0,0,0,.9,1.718l.286.363-3,2.365-.744-.943a6.925,6.925,0,0,1-1.273-2.311,7.879,7.879,0,0,1-.222-2.669l.1-1.765a4.141,4.141,0,0,0-.231-1.76,5.676,5.676,0,0,0-.873-1.528,3.165,3.165,0,0,0-1.584-1.163,1.815,1.815,0,0,0-1.682.4,1.759,1.759,0,0,0-.736,1.777,5.133,5.133,0,0,0,1.118,2.237l.477.6-3.192,2.518Zm16.228,7.442L70.99,54.993,68.473,51.8l3.337-2.633Z"/><path class="cls-1" d="M159.068,3.694,151.23,4.2l.334,5.164,7.376-.478.234,3.627-7.376.478.382,5.9,8.145-.527.234,3.627-12.571.813L146.57.86,158.833.067Z"/><path class="cls-1" d="M176.111,15.674l.061,0L177.094.645l4.058.249-1.346,21.95-5.042-.309L170.3,6.832l-.061,0L169.292,22.2l-4.058-.249L166.581,0l5.1.313Z"/><path class="cls-1" d="M201.358,8l-4.719-.9L193.2,25.131l-4.357-.831,3.44-18.032-4.72-.9.682-3.57,13.8,2.631Z"/><path class="cls-1" d="M216.73,8.742A6.177,6.177,0,0,1,220.4,11.41a5.487,5.487,0,0,1,.143,4.533,6.629,6.629,0,0,1-1.97,3.165,4.137,4.137,0,0,1-3.194.854l-.019.059a4.02,4.02,0,0,1,1.98,1.779,4.572,4.572,0,0,1,.078,2.843c-.089.4-.2.838-.328,1.3s-.277.984-.442,1.557q-.486,1.688-.654,2.6a1.725,1.725,0,0,0,.37,1.449l-.057.175-4.568-1.488a2.377,2.377,0,0,1-.082-1.144,12.109,12.109,0,0,1,.27-1.224l1.19-4.05a3.478,3.478,0,0,0,.015-2.133,2.371,2.371,0,0,0-1.645-1.313l-2.255-.734-2.881,8.844-4.218-1.374L208.94,6.2Zm-4.792,8.545a3.626,3.626,0,0,0,2.577.046,3.233,3.233,0,0,0,1.607-2.149q.944-2.9-1.984-3.853l-1.992-.649-1.965,6.033Z"/><path class="cls-1" d="M231.023,23.584l.056.026,6.39-6.4,4.353,2.035-10.81,9.668-3.666,7.84-4.018-1.878,3.666-7.84.486-14.495L232,14.658Z"/><path class="cls-1" d="M242.551,45.316l-3.6-2.256,2.158-3.446,3.6,2.256ZM244.1,27.531a8.132,8.132,0,0,1,1.683-1.962,5.485,5.485,0,0,1,2.028-1.092,5.237,5.237,0,0,1,2.313-.1,6.933,6.933,0,0,1,2.512,1.01,6.635,6.635,0,0,1,3.279,3.961,5.851,5.851,0,0,1-.927,4.526,6.783,6.783,0,0,1-1.628,1.815,8.311,8.311,0,0,1-2.567,1.227l-1.779.521a7.214,7.214,0,0,0-1.846.771,4.434,4.434,0,0,0-1.314,1.43l-.245.392-3.237-2.027.638-1.018a6.932,6.932,0,0,1,1.747-1.977,7.912,7.912,0,0,1,2.438-1.108l1.695-.5a4.123,4.123,0,0,0,1.58-.81,5.667,5.667,0,0,0,1.146-1.336,3.156,3.156,0,0,0,.562-1.883,1.813,1.813,0,0,0-.947-1.447,1.759,1.759,0,0,0-1.921-.095,5.14,5.14,0,0,0-1.73,1.805l-.409.652-3.445-2.158Z"/><path class="cls-1" d="M317.045,108.628l-3.136-7.2-4.744,2.066,2.952,6.777-3.332,1.451-2.952-6.777-5.421,2.362,3.259,7.483-3.333,1.451-5.03-11.549L315.47,95.91l4.907,11.267Z"/><path class="cls-1" d="M311.522,128.72l.017.059,14.465-4.2,1.132,3.9-21.12,6.127-1.408-4.851,13.28-9.5-.017-.06L303.082,124.5l-1.132-3.9,21.12-6.127,1.425,4.91Z"/><path class="cls-1" d="M327.231,149.9l-.738-4.748-18.138,2.821-.682-4.383,18.139-2.82-.738-4.748,3.591-.559,2.157,13.878Z"/><path class="cls-1" d="M331.709,164.6a6.175,6.175,0,0,1-1.275,4.351,5.49,5.49,0,0,1-4.219,1.664,6.633,6.633,0,0,1-3.644-.788,4.135,4.135,0,0,1-1.883-2.718l-.061,0a4.022,4.022,0,0,1-1.006,2.464,4.571,4.571,0,0,1-2.651,1.032q-.614.08-1.336.132t-1.614.108q-1.753.113-2.673.263a1.721,1.721,0,0,0-1.239.837l-.185.005-.14-4.8a2.377,2.377,0,0,1,1.05-.462,11.81,11.81,0,0,1,1.243-.159l4.214-.247a3.473,3.473,0,0,0,2.013-.706,2.371,2.371,0,0,0,.682-1.992l-.07-2.371-9.3.271-.129-4.433,21.982-.642Zm-9.662-1.628a3.627,3.627,0,0,0,.826,2.441,3.232,3.232,0,0,0,2.565.788q3.049-.089,2.958-3.168l-.061-2.093-6.342.185Z"/><path class="cls-1" d="M322.587,183.042l-.006.061,8.187,3.837-.435,4.785-12.765-6.882-8.62-.783.4-4.417,8.62.784,13.8-4.467-.452,4.969Z"/><path class="cls-1" d="M306.063,201.306l.9-4.154,3.974.859-.9,4.155Zm17.252-4.589a8.139,8.139,0,0,1,2.417.917,5.491,5.491,0,0,1,1.715,1.537,5.231,5.231,0,0,1,.876,2.143,6.943,6.943,0,0,1-.1,2.705,6.636,6.636,0,0,1-2.612,4.43,5.849,5.849,0,0,1-4.571.666,6.777,6.777,0,0,1-2.26-.914,8.306,8.306,0,0,1-2.026-2l-1.094-1.5a7.222,7.222,0,0,0-1.352-1.474,4.432,4.432,0,0,0-1.792-.75l-.451-.1.807-3.733,1.174.254a6.927,6.927,0,0,1,2.454.972,7.9,7.9,0,0,1,1.87,1.917l1.047,1.424a4.128,4.128,0,0,0,1.3,1.21,5.667,5.667,0,0,0,1.646.624,3.155,3.155,0,0,0,1.961-.111,1.815,1.815,0,0,0,1.04-1.382,1.761,1.761,0,0,0-.563-1.839,5.141,5.141,0,0,0-2.287-1.014l-.752-.163.859-3.974Z"/></g></svg>