<svg xmlns="http://www.w3.org/2000/svg" viewBox="0 0 71.02 66.7"><defs><style>.cls-1{fill:#fff}</style></defs><title>gnav_shopping</title><g id="レイヤー_2" data-name="レイヤー 2"><path class="cls-1" d="M.65 59.29a17.35 17.35 0 0 1 3.07 1.11l-.65 1.31A17.88 17.88 0 0 0 0 60.53zM1 64.88a12 12 0 0 0 8-6.65c.3.26 1 .78 1.31 1a13.33 13.33 0 0 1-8 6.86.31.31 0 0 1-.19.33zm1.11-8.54a18.79 18.79 0 0 1 3.09 1.18l-.74 1.27a17.8 17.8 0 0 0-3-1.27zm17.95 2.73v7.41h-1.2V66h-5.11v-1.12h5.11v-1.79h-4.59V62h4.59v-1.81H14v-1.12zm6.05.07a13.3 13.3 0 0 1 .89 2.54l-1.2.32a13.65 13.65 0 0 0-.8-2.53zm7 .28a.26.26 0 0 1-.3.15c-1 3.54-2.84 5.63-5.58 6.73a5.32 5.32 0 0 0-.81-1c2.57-.95 4.36-2.86 5.17-6.42zM29 58.64a15 15 0 0 1 .57 2.64l-1.22.25a16.32 16.32 0 0 0-.59-2.65zm13.76 5.99a25 25 0 0 0 2.65-.23c0 .49 0 1 .06 1.52a25.42 25.42 0 0 1-2.57.15h-2.7c-2.1 0-3.05-.86-3.05-2.78v-6.94l1.91.09c0 .14-.11.24-.37.28v3.55a33.66 33.66 0 0 0 5.21-2.21l1 1.43a.53.53 0 0 1-.2 0 .43.43 0 0 1-.19 0 40.79 40.79 0 0 1-5.84 2.18v1.64c0 1 .44 1.31 1.54 1.31zm2.64-9a1.31 1.31 0 1 1-1.3 1.31 1.31 1.31 0 0 1 1.3-1.35zm.84 1.31a.85.85 0 1 0-.84.85.84.84 0 0 0 .84-.89zm2.86-.19a15.87 15.87 0 0 1 3.52 1.59l-.79 1.37a17.62 17.62 0 0 0-3.43-1.65zm-.4 8.13c4-1.25 6.82-3.6 8.21-6.9a9.07 9.07 0 0 0 1.4.89A13.85 13.85 0 0 1 50 66.1a.4.4 0 0 1-.2.31zm20.73-6.25a.59.59 0 0 1-.27.22c-1.4 4.13-3.27 6.29-6.35 7.85a5.55 5.55 0 0 0-1.12-1.17 9.77 9.77 0 0 0 5.52-6.11h-3.4a11.79 11.79 0 0 1-2.47 2.66 7.13 7.13 0 0 0-1.22-1 10.82 10.82 0 0 0 3.71-5.19l1.9.44c0 .13-.2.2-.38.22-.2.43-.48 1-.7 1.42H68l.23-.09zm-1.83-3a9.66 9.66 0 0 1 1.53 1.54l-.69.6A9.86 9.86 0 0 0 67 56.19zm1.91-.33A9.55 9.55 0 0 1 71 56.84l-.69.58a9.8 9.8 0 0 0-1.45-1.55zM57.34 11.53a1.5 1.5 0 0 0-1.22-.64h-35.6L19.3 1.31A1.49 1.49 0 0 0 17.82 0H10a1.5 1.5 0 0 0 0 3h6.48l1.18 9.29a2.81 2.81 0 0 0 0 .29l2.24 17.78a1.21 1.21 0 0 0 .11.37l.93 7.27a1.49 1.49 0 0 0 1.49 1.31h26.2a1.5 1.5 0 0 0 0-3H23.75l-.59-4.68h26.66a1.5 1.5 0 0 0 1.41-1l6.3-17.79a1.5 1.5 0 0 0-.19-1.31zm-8.58 17.14h-26L20.9 13.89H54zM31.63 45.23a3.08 3.08 0 1 1-3.08-3.08 3.08 3.08 0 0 1 3.08 3.08zm15.63 0a3.08 3.08 0 1 1-3.08-3.08 3.08 3.08 0 0 1 3.08 3.08z" id="gnav"/></g></svg>