<svg xmlns="http://www.w3.org/2000/svg" viewBox="0 0 47.53 60.67"><defs><style>.cls-1{fill:#fff}</style></defs><title>gnav_company</title><g id="レイヤー_2" data-name="レイヤー 2"><path class="cls-1" d="M6.92 49.36a.39.39 0 0 1-.32.24 13.28 13.28 0 0 0 5.07 4 7.71 7.71 0 0 0-1 1.3 16.22 16.22 0 0 1-4.91-4.2A15.23 15.23 0 0 1 .91 55 6.79 6.79 0 0 0 0 53.83a13.32 13.32 0 0 0 5-4.59zm-.28 7.23V59H11v1.31H.67V59H2v-4.2l1.74.09c0 .12-.1.19-.32.24V59h1.7v-6.28l1.86.1c0 .12-.11.2-.34.23v2.26h3.24v1.28zm16.57 1.29h-3.49a10.77 10.77 0 0 0 3.83 1.32 6.09 6.09 0 0 0-1 1.31 10.29 10.29 0 0 1-4.07-2v2.17h-1.39v-2.1a11.69 11.69 0 0 1-4.06 2 6.6 6.6 0 0 0-.92-1.2 12.5 12.5 0 0 0 3.82-1.42h-3.46V56.7h4.62v-.54H13.6v-1h3.49v-.54H13v-1.17h2.3a5.68 5.68 0 0 0-.41-1h.14-2.53V51.3h1.62a9.54 9.54 0 0 0-.75-1.5l1.23-.42a9.07 9.07 0 0 1 .93 1.7l-.59.22H16v-2l1.66.09c0 .12-.11.2-.31.22v1.69h.88v-2l1.69.09c0 .13-.12.2-.32.24v1.67h1l-.42-.16a9.21 9.21 0 0 0 .8-1.72l1.62.5c0 .1-.14.15-.31.13a13.71 13.71 0 0 1-.77 1.25h1.6v1.18H21h.11c-.05.1-.17.13-.31.12a9.24 9.24 0 0 1-.47.82h2.4v1.12h-4.2v.54h3.64v1h-3.66v.54h4.7zm-4.37-4.43c.13-.28.3-.64.44-1h-2.87a5.91 5.91 0 0 1 .41.93h-.2 2.22zm8.9-2.29a10.23 10.23 0 0 1 1 1.69l-1 .56a9.28 9.28 0 0 0-.63-1.28v8.5h-1.4V52.8a5.08 5.08 0 0 1-.71 2.36l-1-.6a5.77 5.77 0 0 0 .62-2.8l1.05.15v-2.59l1.72.1c0 .12-.1.19-.32.23v1.84zm4.76 2.1h3v1.13H28v-1.13h3v-.5h-2v-1h2v-.5h-2.59v-1H31v-.89l1.87.11c0 .12-.11.2-.34.23v.55h2.58v1H32.5v.5h2v1h-2zm2 1.61v4.43c0 1.14-.46 1.34-2.31 1.34a5 5 0 0 0-.4-1.18h1.08c.14 0 .21 0 .21-.18v-.43h-2.76v1.74h-1.4v-5.72zM33.13 56h-2.81v.51h2.81zm-2.81 2h2.81v-.49h-2.81zm9.34-6.45v.89h2.07v1.21h-1.57l1.21.38c0 .09-.13.12-.28.12-.17.33-.45.8-.69 1.16h1.14v1.21h-1.88v.91h1.7v1.21h-1.7v2h-1.33v-2h-1.75v-1.21h1.75v-.91h-1.9v-1.21h1a6.82 6.82 0 0 0-.44-1.4l.92-.26h-1.74v-1.21h2.16v-.89h-1.62v-1.2h1.62v-1l1.64.1c0 .11-.1.18-.31.2v.72h1.61v1.2zm.12 3.76l-.3-.14a10.21 10.21 0 0 0 .52-1.52h-2a6.33 6.33 0 0 1 .5 1.46l-.61.2zm6.57-1l.85.26a.55.55 0 0 1-.11.23A10.73 10.73 0 0 1 46 58.42a4.55 4.55 0 0 0 1.49 1 4.89 4.89 0 0 0-1 1.21 5.36 5.36 0 0 1-1.32-1.05 5.5 5.5 0 0 1-1 1 4.14 4.14 0 0 0-.92-1 5.17 5.17 0 0 0 1.09-1.15 10.34 10.34 0 0 1-1-2.52l1.09-.24a6.78 6.78 0 0 0 .63 1.46 8.73 8.73 0 0 0 .47-1.65h-2.21v5.08H42V49.84h5v2.7c0 1.28-.61 1.35-2.35 1.35a5.06 5.06 0 0 0-.38-1.22h1.18c.17 0 .22 0 .22-.17v-1.4h-2.35v3.23h2.78zm.07-13.58h-4.54V0H5.76v40.73H1.22a1 1 0 1 0 0 2h45.2a1 1 0 0 0 0-2zM21.06 30.15h-8.82v-8.82h8.82zm0-14.33h-8.82V7h8.82zM35.4 30.15h-8.82v-8.82h8.82zm0-14.33h-8.82V7h8.82z" id="gnav"/></g></svg>