<svg xmlns="http://www.w3.org/2000/svg" viewBox="0 0 47.44 66.28"><defs><style>.cls-1{fill:#fff}</style></defs><title>gnav_recruit</title><g id="レイヤー_2" data-name="レイヤー 2"><path class="cls-1" d="M4.22 61.39L3 61.76v2.88C3 66 2.48 66.22.65 66.22a5.08 5.08 0 0 0-.4-1.37h.69c.63 0 .66 0 .66-.23v-2.46l-1 .3a.3.3 0 0 1-.23.21L0 61.08c.44-.08 1-.2 1.6-.35v-2.17H.16v-1.33H1.6V54.9l1.67.1c0 .12-.09.19-.31.22v2h1.18v1.33H3v1.86l1.11-.26zm7 .78H9a7.79 7.79 0 0 0 2.58 2.56 5.69 5.69 0 0 0-1 1.07 8.53 8.53 0 0 1-2.3-2.49v2.82H7v-2.92a8.37 8.37 0 0 1-2.61 2.62 6.45 6.45 0 0 0-1-1.12 7.1 7.1 0 0 0 2.79-2.54H4.23v-1.25H7v-1.23l1.66.09c0 .11-.1.18-.31.22v.92h2.95zm-.22-6.1a.3.3 0 0 1-.18 0h-.13a32.34 32.34 0 0 1-6.26.93A4.22 4.22 0 0 0 4 55.89a29.46 29.46 0 0 0 6-1zM5.46 57.3a9.53 9.53 0 0 1 .76 2.21l-1.22.3a9.63 9.63 0 0 0-.7-2.26zm2.22-.3a8.12 8.12 0 0 1 .55 2.24L7 59.47a9 9 0 0 0-.48-2.28zm3.74.33c-.05.09-.17.13-.34.12a18.65 18.65 0 0 1-1.53 2.65l-1-.48a16.93 16.93 0 0 0 1.41-2.9zm11.15-1.62v8.8c0 1.43-.6 1.66-3 1.63a4.9 4.9 0 0 0-.47-1.38h1.22c.75 0 .8 0 .8-.29v-1.8h-2.61V66h-1.4v-3.33h-2.46a6.87 6.87 0 0 1-1.52 3.61 5.77 5.77 0 0 0-1.13-.94c1.32-1.45 1.43-3.61 1.43-5.32v-4.31zm-7.73 4.15v1.46h2.3v-1.46zm2.27-2.79h-2.27v1.44h2.27zm4 1.44v-1.44h-2.6v1.44zm-2.63 2.81h2.63v-1.46h-2.6zm9.18-4.59a10.23 10.23 0 0 1 1 1.69l-1 .56A9.71 9.71 0 0 0 27 57.7v8.5h-1.4v-7.83a5.33 5.33 0 0 1-.66 2.36l-1-.6a5.67 5.67 0 0 0 .61-2.8l1.06.15v-2.59l1.71.1c0 .12-.09.19-.31.22v1.85zm4.76 2.09h3V60H28v-1.18h2.93v-.49h-2v-1h2v-.5h-2.6v-1h2.55v-.89l1.88.11c0 .12-.11.2-.34.23v.55H35v1h-2.58v.5h2v1h-2zm2 1.62v4.43c0 1.14-.47 1.34-2.31 1.34a5 5 0 0 0-.4-1.18h1.08c.14 0 .2 0 .2-.18v-.43h-2.8v1.74h-1.36v-5.72zM33 61.52h-2.8V62H33zm-2.8 2H33V63h-2.8zm9.37-6.4V58h2.08v1.21h-1.57l1.21.38c0 .09-.13.12-.29.12a13.32 13.32 0 0 1-.68 1.16h1.14v1.21h-1.89V63h1.71v1.21h-1.71v2h-1.33v-2h-1.75V63h1.75v-.91h-1.89v-1.21h.95a7.55 7.55 0 0 0-.45-1.4l.93-.26h-1.7V58h2.16v-.89h-1.62v-1.2h1.62v-1l1.65.1c0 .11-.1.18-.32.2v.72h1.61v1.2zm.12 3.76l-.3-.14a9.24 9.24 0 0 0 .61-1.52h-2.13a6.39 6.39 0 0 1 .51 1.46l-.62.2zm6.58-1l.85.26a.7.7 0 0 1-.11.23A10.73 10.73 0 0 1 46 64a4.77 4.77 0 0 0 1.49 1 5.41 5.41 0 0 0-.95 1.21 5.31 5.31 0 0 1-1.31-1 5.85 5.85 0 0 1-1 1 4.19 4.19 0 0 0-.93-1 5.22 5.22 0 0 0 1.1-1.15 10 10 0 0 1-1.05-2.52l1.09-.24a7.61 7.61 0 0 0 .56 1.47 9.8 9.8 0 0 0 .47-1.65h-2.24v5.08H41.9V55.41h5v2.7c0 1.28-.62 1.35-2.35 1.35a4.68 4.68 0 0 0-.39-1.22h1.19c.17 0 .21 0 .21-.17v-1.4h-2.33v3.23H46zM5.6 47.56H42c0-12.82-4.2-22.29-13.36-24.68a11.95 11.95 0 1 0-9.64 0C9.81 25.39 5.6 35.23 5.6 47.56z" id="gnav"/></g></svg>