<svg xmlns="http://www.w3.org/2000/svg" viewBox="0 0 58.94 55.38"><defs><style>.cls-1{fill:#fff}</style></defs><title>gnav_stock</title><g id="レイヤー_2" data-name="レイヤー 2"><path class="cls-1" d="M6 44.47a.31.31 0 0 1-.34.17c-.1.35-.22.7-.34 1h5.85v1.38H4.7a15.3 15.3 0 0 1-1.37 2.37l.2.05c0 .11-.12.2-.33.21v5.63H1.76v-4.03a9.66 9.66 0 0 1-1 .84 12.23 12.23 0 0 0-.76-1.4 9.57 9.57 0 0 0 3-3.62H.38v-1.38h3.27q.35-.86.54-1.69zm2.21 6.46v2.76h2.92V55H3.85v-1.31h2.87v-2.76H4.31V49.6h2.41v-2l1.77.1c0 .13-.09.19-.32.24v1.66h2.44v1.33zm15.11 1.94V54h-3.93v1.31H18V54h-3.64v-1.13H18v-.58h-2.79v-3.75H18V48h-3.13v-1.08H18v-.62h-3.59v2.25c0 2-.18 4.94-1.27 6.83a5.4 5.4 0 0 0-1.14-.79c1-1.73 1.06-4.25 1.06-6V45h4.33v-1l1.83.09c0 .12-.1.2-.33.24V45h4.38v1.3H19.7c0 .11-.11.17-.31.21v.41h3.52V48h-3.52v.54h2.94v3.75h-2.94v.58zm-6.85-3.44V50H18v-.57zm0 2H18v-.58h-1.53zm4.54-2h-1.62V50H21zm0 2v-.58h-1.62v.58zm13.88-1.73a.19.19 0 0 1-.1 0 .28.28 0 0 1-.16-.06c-.9.26-2.09.65-3 1a6.78 6.78 0 0 1 0 .8v.95l-1.51.11a11.84 11.84 0 0 0 .05-1.28c-.94.46-1.62 1.08-1.62 1.53s.66.75 2 .75a25.91 25.91 0 0 0 3-.14v1.39a28.63 28.63 0 0 1-3 .09c-2.31 0-3.46-.52-3.46-2 0-1 1.24-2.05 2.93-2.92 0-.35-.21-.67-.57-.67a3.61 3.61 0 0 0-2.62 1.52c-.28.34-.73.81-1.24 1.31l-1.07-1A14 14 0 0 0 26 49.67a7.32 7.32 0 0 0 1.35-2.51h-2.32v-1.34h2.7a14.61 14.61 0 0 0 .27-1.56l1.84.18a.34.34 0 0 1-.3.23c-.06.38-.16.74-.25 1.11a13.28 13.28 0 0 0 3.64-.66l.24 1.42a18.82 18.82 0 0 1-4.28.59 7.35 7.35 0 0 1-.59 1.4 2.83 2.83 0 0 1 1.65-.59 1.55 1.55 0 0 1 1.48 1.4c.93-.39 2-.8 2.92-1.15zm5.11.77l-1.15.37v3c0 1.21-.45 1.54-2.16 1.52a5.44 5.44 0 0 0-.4-1.36H37c.46 0 .51 0 .51-.21v-2.52l-.9.28a.31.31 0 0 1-.22.22L36 50.2l1.48-.35v-2.17h-1.31v-1.33h1.32V44l1.63.08c0 .12-.09.19-.3.22v2H40v1.33h-1.18v1.83l1-.25zm7.26 1.08H45a8 8 0 0 0 2.52 2.2 5.11 5.11 0 0 0-1 1.1 8.6 8.6 0 0 1-2.33-2.33v2.8h-1.37v-2.79a7.6 7.6 0 0 1-2.62 2.41 6.8 6.8 0 0 0-.93-1.09 6.92 6.92 0 0 0 2.73-2.3h-2v-1.28h2.81v-1.2l1.54.08c-.38-.19-.48-.59-.48-1.31V46l1.59.1c0 .11-.09.18-.31.21v1.56c0 .3.05.33.27.33H46c.19 0 .24-.1.27-.74a3 3 0 0 0 1.12.46c-.1 1.08-.39 1.38-1.21 1.38h-1a2.37 2.37 0 0 1-.66-.08c0 .09-.13.15-.31.17v.88h3zm-3.71-5.42c0 .1-.1.18-.28.19-.16 1.58-.52 2.77-2.68 3.43a3.42 3.42 0 0 0-.7-1c1.76-.47 2-1.31 2.11-2.71zm-2.11-.41v1.36h-1.25V44.5h7v2.6h-1.32v-1.38zm7.09.28l2.74-.06 2.28-.07c0-.18 0-1.15-.07-1.69l2 .09a.38.38 0 0 1-.32.27v1.29c1.57-.05 3.14-.08 3.79-.09v1.36h-3.79l.07 2.13a5.2 5.2 0 0 1-.07 3 5.5 5.5 0 0 1-3.39 3.07 7.86 7.86 0 0 0-1.12-1.19 4.78 4.78 0 0 0 2.7-1.81 1.1 1.1 0 0 1-.66.23 2.15 2.15 0 0 1-2.14-2.18A2.32 2.32 0 0 1 52.86 48a1.86 1.86 0 0 1 .78.18v-1c-.89 0-4.84.16-5 .17zm5.31 4.34c0-.26 0-1.1-.91-1.1a1 1 0 0 0-1 1.13 1 1 0 0 0 1 1 1 1 0 0 0 .91-1.08zm-.57-34.19h-2.68L46.84 0H12.65L8.91 16.15H6.22l-1.14 17.1H7.9V39h6.65v-5.7H45V39h6.6v-5.7h2.82zM16.36 4h26.78L46 16.15H13.54zm-1.81 22.6a2.85 2.85 0 1 1 2.85-2.85 2.85 2.85 0 0 1-2.85 2.85zm30.4 0a2.85 2.85 0 1 1 2.85-2.85A2.85 2.85 0 0 1 45 26.6z" id="gnav"/></g></svg>