<svg xmlns="http://www.w3.org/2000/svg" viewBox="0 0 48.5 56.29"><defs><style>.cls-1{fill:#fff}</style></defs><title>gnav_contact</title><g id="レイヤー_2" data-name="レイヤー 2"><path class="cls-1" d="M7.57 48.19a12 12 0 0 1-2.08.41v1.65a8.83 8.83 0 0 1 2.29-.4c2 0 3.48 1 3.48 2.93a2.78 2.78 0 0 1-3 3A2.87 2.87 0 0 1 6 54.72a8.38 8.38 0 0 0 .74-1.15 2 2 0 0 0 1.52.81 1.44 1.44 0 0 0 1.48-1.6c0-1-.69-1.65-2-1.65a8.67 8.67 0 0 0-2.25.41v2.38A2 2 0 0 1 3.3 56a2 2 0 0 1-2.23-2.05 3 3 0 0 1 1.45-2.31A7.62 7.62 0 0 1 4 50.77v-2.05c-.79.05-1.68.06-2.65.06v-1.44h2.67v-2h1.9c0 .15-.13.26-.32.28 0 .47-.06 1-.08 1.57a8.61 8.61 0 0 0 1.83-.44zM4 52.14c-.7.42-1.61 1-1.61 1.76a.74.74 0 0 0 .82.81.75.75 0 0 0 .8-.85c.04-.3.04-1.01-.01-1.72zm6.75-2.78a9.51 9.51 0 0 0-2.7-1.6l.74-1.24a9.09 9.09 0 0 1 2.81 1.56zm7.06.57h-3.2v6.35h-1.42V45.43h4.62zm-1.34-3.4h-1.86v.65h1.86zm-1.86 2.31h1.86v-.69h-1.86zm5.94 5.72H17.2v.69h-1.34v-4.49h4.69zM19.21 52h-2v1.44h2zm4.17-6.52v9.12c0 1.48-.56 1.73-3 1.73a4.89 4.89 0 0 0-.5-1.48h1.17c.86 0 .91 0 .91-.31V50h-3.32v-4.57zm-1.45 1.09H20v.66h1.92zM20 48.85h1.92v-.7H20zm7.25.41a18.56 18.56 0 0 1-1.88 1.19 6.45 6.45 0 0 0-.89-1.15 13 13 0 0 0 4.95-4.3l1.93.1a.32.32 0 0 1-.32.24 13 13 0 0 0 5 3.82 6.66 6.66 0 0 0-.94 1.29 15.42 15.42 0 0 1-1.85-1.14v.86h-6zm-.79 7v-5h7.67v5h-1.47v-.44h-4.79v.44zm6.26-7.44a13 13 0 0 1-2.51-2.45 11.83 11.83 0 0 1-2.42 2.45zm-.06 3.76h-4.79v2h4.79zm15.02-3.38c-.62 0-1.5.16-2.41.29a12 12 0 0 1-.16 2.44 1.54 1.54 0 0 1-1.63 1.24 3.92 3.92 0 0 1-1.75-.48 8.05 8.05 0 0 0 .16-1.22 3 3 0 0 0 1.27.41.55.55 0 0 0 .54-.45 13 13 0 0 0 .08-1.72l-3.12.52c0 1.08 0 2.14.08 2.67.09 1.1.55 1.46 1.72 1.51h.66a19.27 19.27 0 0 0 3.14-.23v1.4a28 28 0 0 1-3 .15c-2 0-3.78-.11-4-2.75-.06-.55-.08-1.5-.11-2.49-.69.14-1.65.32-2.11.43l-.22-1.42c.55-.08 1.49-.24 2.32-.38v-3l1.92.14c0 .14-.11.23-.34.28v2.29l3.07-.52c0-1-.09-2.15-.16-3l1.83.07c0 .11-.07.2-.26.27.05.7.06 1.61.09 2.4.83-.13 1.7-.28 2.32-.36zM32.75 0h-17a15.75 15.75 0 0 0 0 31.5H21c-.62 4.62-5.15 7.35-5.15 7.35s8.4 0 11.55-5.25a10.09 10.09 0 0 0 .92-2.1h4.43a15.75 15.75 0 0 0 0-31.5zM14.8 17.85a2.1 2.1 0 1 1 2.1-2.1 2.1 2.1 0 0 1-2.1 2.1zm9.45 0a2.1 2.1 0 1 1 2.1-2.1 2.1 2.1 0 0 1-2.1 2.1zm9.45 0a2.1 2.1 0 1 1 2.1-2.1 2.1 2.1 0 0 1-2.1 2.1z" id="gnav"/></g></svg>