<svg xmlns="http://www.w3.org/2000/svg" viewBox="0 0 79.89 79.88"><defs><style>.cls-1{fill:#fff}</style></defs><title>logo_handle_white</title><g id="レイヤー_2" data-name="レイヤー 2"><path class="cls-1" d="M5.36 20A39.94 39.94 0 1 0 59.91 5.36 39.93 39.93 0 0 0 5.36 20zm50.27-7.2a31.27 31.27 0 0 1 8.6 7.3l-14.85 8.55a15 15 0 0 0-2.08-1.46 14.73 14.73 0 0 0-17.13 1.74l-14.78-8.52a31.38 31.38 0 0 1 40.24-7.64zm-20.22 35a9.06 9.06 0 1 1 12.38-3.32 9.07 9.07 0 0 1-12.38 3.31zm-24.81-19l14.84 8.57a14.74 14.74 0 0 0 9.86 16.5V71a31.39 31.39 0 0 1-24.7-42.16zm56.51 26.83A31.32 31.32 0 0 1 45 70.9V53.76a14.71 14.71 0 0 0 9.32-16.95l.08.13 14.72-8.5a31.31 31.31 0 0 1-2.01 27.19z" id="gnav"/></g></svg>