<svg xmlns="http://www.w3.org/2000/svg" viewBox="0 0 323.6 62.88"><defs><style>.cls-1{isolation:isolate;}.cls-2{fill:#323232;}</style></defs><title>アートボード 8</title><g id="footer"><g class="cls-1"><path class="cls-2" d="M0,61.44v-60H22.88c10.72,0,14,8.64,14,17,0,5.12-1.36,10.88-5.6,14.24-3.52,2.8-8.24,3.68-12.56,3.6H11.2V61.44ZM11.2,27.52h6c4.88,0,8.16-2.08,8.16-9.36,0-6.88-2.72-7.92-9-7.92H11.2Z"/><path class="cls-2" d="M38.16,61.44l14.32-60H67.6l13.6,60h-12l-3-15.2H53.12l-3,15.2Zm16.72-24h9.6l-3-17c-.56-2.8-.8-5.52-1.12-8.32-.08-1.36-.24-2.72-.4-4h-.16c-.16,1.28-.32,2.64-.4,4-.32,2.8-.56,5.52-1.12,8.32Z"/><path class="cls-2" d="M87.92,26.64C88.4,11.36,89.6,0,107.52,0c9.6.08,16.24,2.56,18.8,13a37.19,37.19,0,0,1,.56,7.28h-11.2c-.16-6.08-.56-10.88-8.16-11.2-8.8,0-8.08,10.48-8.08,15.12V40.8c0,5,.4,13,8.08,13,6.4,0,8.48-6.8,8.24-15.84H108V29.2h18.64V61.44h-8.4V54.56h-.16c-2.24,6.24-6.48,8-10.56,8.32-18.4,0-19.6-11.68-19.6-27.68Z"/><path class="cls-2" d="M137.52,61.44v-60H169v8.8H148.72V25.36h18.72v8.8H148.72V52.64H169v8.8Z"/><path class="cls-2" d="M193.76,1.44h37.36v8.8h-13v51.2h-11.2V10.24H193.76Z"/><path class="cls-2" d="M237.28,26.64C237.76,11.36,239,0,256.88,0S276,11.36,276.48,26.64V35.2c0,16-1.2,27.68-19.6,27.68s-19.6-11.68-19.6-27.68ZM248.8,40.8c0,5,.4,13,8.08,13,8,0,8.08-8.24,8.08-14V24.48c0-4.8.24-15.44-8.08-15.44-8.8,0-8.08,10.48-8.08,15.12Z"/><path class="cls-2" d="M286.72,61.44v-60H309.6c10.72,0,14,8.64,14,17,0,5.12-1.36,10.88-5.6,14.24-3.52,2.8-8.24,3.68-12.56,3.6h-7.52V61.44Zm11.2-33.92h6c4.88,0,8.16-2.08,8.16-9.36,0-6.88-2.72-7.92-9-7.92h-5.12Z"/></g></g></svg>