<svg xmlns="http://www.w3.org/2000/svg" viewBox="0 0 114.31 111.86"><defs><style>.cls-1{fill:#fff;}</style></defs><title>アートボード 23</title><g id="greeting"><path class="cls-1" d="M107.41,79.8H88.22c6.79,11,15.09,14.86,25.27,17.78a38.86,38.86,0,0,0-9.71,14c-10.65-4.1-19.42-9.59-26.68-21.29-5.27,8.66-14.39,16.5-30.42,21.53-1.52-3.39-6.32-9.95-9-12.64,16.61-5,24.22-11.93,27.61-19.42H45.16V46H68V40.37H55.11V33.81a74.31,74.31,0,0,1-9.71,5.62,94.94,94.94,0,0,0-4.21-8.54v8.42H31.59v3.74c3,4.1,11,16.5,12.64,19.31l-8.54,13.1c-.94-2.93-2.46-6.67-4.1-10.53v46.22H15.91V73.95a78.52,78.52,0,0,1-8.42,17.2A92.88,92.88,0,0,0,0,75.82c6.55-9,12.17-23.64,15.09-36.51H2.69V23.63H15.91V0L35,1.05c-.12,1.17-1.05,2-3.39,2.34V23.63h9.59v.23C52.18,18.25,62.6,8.54,67.63.23L86.12.82a3,3,0,0,1-2.34,2c6.9,8.89,19.42,17.9,30.54,21.88a95.37,95.37,0,0,0-8.66,15.09,69.58,69.58,0,0,1-8.89-5.15v5.73H83.19V46h24.22ZM59.79,66.93H68V58.74H59.79ZM86.35,26.56A71.91,71.91,0,0,1,75.47,14.63a68.07,68.07,0,0,1-11,11.93ZM92.2,58.74h-9v8.19h9Z"/></g></svg>