<svg xmlns="http://www.w3.org/2000/svg" viewBox="0 0 109.4 108.23"><defs><style>.cls-1{fill:#fff;}</style></defs><title>アートボード 20</title><g id="greeting"><path class="cls-1" d="M94.54,66.22l11,8.42c-.7.7-2.34.94-4,.7-4,2.69-9.95,6.2-15.56,9.24a78.56,78.56,0,0,0,23.4,7.72c-3.74,3.63-8.54,10.76-10.76,15.33C72.43,101.56,57.8,88,48.21,66.22H36.51V87.87c7-.82,14.27-1.75,21.41-2.57l.59,13.92c-16.61,2.81-34.17,5.38-45.75,7a2.62,2.62,0,0,1-2.11,2L4.56,91.15c4.1-.35,9-.82,14.39-1.4V66.22H0v-15H19.07V0H94.42V13.81H36.51v4H91.15v13H36.51v3.74H91.15v13H36.51v3.74h70.44v15Zm-28.43,0a52.59,52.59,0,0,0,7.49,9.36,142,142,0,0,0,13.34-9.36Z"/></g></svg>