<svg xmlns="http://www.w3.org/2000/svg" viewBox="0 0 108.7 111.74"><defs><style>.cls-1{fill:#fff;}</style></defs><title>アートボード 22</title><g id="greeting"><path class="cls-1" d="M101.91,46.33V89.74H84.83V83.31H28.55c-2.34,10.41-6.9,20.83-15.21,28.43A69.74,69.74,0,0,0,0,100.27c13-11.58,14.16-28.08,14.16-39.9v-14Zm6.79-23.75H65.29v4.68H103.2V41.42H12.64V27.26H48.09V22.58H4.91V8.31H48.09V0L68.8,1.05c-.12,1.4-1.05,2.11-3.51,2.57V8.31H108.7ZM48.56,60H31c0,2,0,4.56-.35,9.13h17.9Zm36.27,9.13V60H65.05v9.13Z"/></g></svg>