<svg xmlns="http://www.w3.org/2000/svg" viewBox="0 0 326.58 78.82"><defs><style>.cls-1{fill:#b8d200}.cls-2{fill:#fff}</style></defs><title>tit_shop</title><g id="レイヤー_2" data-name="レイヤー 2"><g id="main_SHOP1"><path class="cls-1" d="M137.59 26.57c.1-6.48-.48-12.87-7.94-12.87-4.55 0-7.45 1.84-7.45 6.77 0 5.52 3.48 7.65 7.74 10.35 4.45 2.81 12.68 8.23 16.45 11.9 4.65 4.55 6.1 8.9 6.1 15.19 0 13.74-9.1 20.9-22.35 20.9-16.26 0-22.06-9.1-22.06-22.06v-5.31h13.55v4.26c-.29 7.06 1.84 12.19 8.52 12.19 5.71 0 8.42-3 8.42-8.52 0-4.26-1.94-7.16-5.42-9.58-7.06-5.52-15.87-9.48-21.39-16.74a20.16 20.16 0 0 1-3.48-11.13c0-12.39 7-19.16 21.29-19.16 21.58 0 21 16.64 21.1 23.81zm26.13 50.51V4.5h13.55v28.74h19V4.5h13.55v72.58h-13.59V43.89h-19v33.19zM222.16 35c.58-18.48 2-32.22 23.71-32.22S269 16.5 269.58 35v10.34c0 19.35-1.45 33.48-23.71 33.48s-23.71-14.13-23.71-33.48zm13.94 17.11c0 6 .48 15.77 9.77 15.77 9.68 0 9.77-10 9.77-16.94V32.37c0-5.81.29-18.68-9.77-18.68-10.64 0-9.77 12.68-9.77 18.29zM282 77.08V4.5h27.68c13 0 16.94 10.45 16.94 20.61 0 6.19-1.65 13.16-6.77 17.23-4.26 3.39-10 4.45-15.19 4.35h-9.1v30.39zm13.55-41h7.26c5.9 0 9.87-2.52 9.87-11.32 0-8.32-3.29-9.58-10.93-9.58h-6.19z"/><circle class="cls-1" cx="39.35" cy="39.35" r="39.35"/><path class="cls-2" d="M26.54 35.29h27.42v22.2H26.54z"/><path class="cls-2" d="M62.51 40.08H17.98l22.27-18.87 22.26 18.87z"/><path class="cls-1" d="M32.51 42.24h6.31v4.15h-6.31zm9.16 0h6.31v4.15h-6.31z"/><path class="cls-2" d="M24.95 25.59h5.89v9.04h-5.89z"/></g></g></svg>