<svg xmlns="http://www.w3.org/2000/svg" viewBox="0 0 268.3 45.64"><defs><style>.cls-1{isolation:isolate}.cls-2{fill:#323232}</style></defs><title>アートボード 7</title><g id="main"><g class="cls-1"><path class="cls-2" d="M68.29 25.84v18.75h-8.13V1h15.38c7 0 12.37 2.44 12.37 10.45 0 4.76-1.22 9.75-6.68 10.51v.12c4.82.64 6.27 3.72 6.27 7.9 0 1.8-.23 12.48 1.74 13.76v.81h-8.93c-1-2.79-.81-8.13-.87-11-.06-2.67 0-6.33-2.79-7.14a24.92 24.92 0 0 0-6.91-.58zm0-6.39h6.39c2.67-.17 4.76-1.92 4.76-6.27 0-4.88-2-5.69-5.11-5.75h-6zm27.23 25.14V1h22.88v6.43h-14.75v11h13.59v6.39h-13.59V38.2h14.75v6.39zm55.04-15.5c-.06.81-.12 1.68-.17 2.5-.41 8-3.08 14.05-12.13 14.05-13.36 0-14.26-8.48-14.26-20.09v-6.22C124.37 8.24 125.24 0 138.25 0c7.26.12 11.32 3.83 11.9 11.26a21.06 21.06 0 0 1 .17 3.31h-8c-.35-2.79-.06-8-4.06-8-6.39 0-5.86 7.61-5.86 11v12.04c0 3.6.29 9.46 5.86 9.46 4.47 0 3.95-7.2 4.12-10zm13.35-3.25v18.75h-8.13V1h15.39c7 0 12.37 2.44 12.37 10.45 0 4.76-1.22 9.75-6.68 10.51v.12c4.82.64 6.27 3.72 6.27 7.9 0 1.8-.23 12.48 1.74 13.76v.81h-8.94c-1-2.79-.81-8.13-.87-11-.06-2.67 0-6.33-2.79-7.14a24.92 24.92 0 0 0-6.91-.58zm0-6.39h6.39c2.67-.17 4.76-1.92 4.76-6.27 0-4.88-2-5.69-5.11-5.75h-6zM209.72 1h8.13v30.41c0 9.64-3.14 14.22-13.76 14.22S190.21 41 190.21 31.41V1h8.13v29.71c0 4.18.29 8.36 5.81 8.36 5.28 0 5.57-4.18 5.57-8.36zm17.19 43.59V1H235v43.59zM241.19 1h27.11v6.43h-9.46v37.16h-8.13V7.43h-9.52z"/></g><g class="cls-1"><circle class="cls-2" cx="16.42" cy="12.46" r="10.79"/><path class="cls-2" d="M16.42 21.78C5.11 21.78 0 31.68 0 44.59h32.83c0-13.44-5.11-22.81-16.41-22.81z"/></g></g></svg>