<svg xmlns="http://www.w3.org/2000/svg" viewBox="0 0 308.1 45.6"><style>.st0,.st1{fill:#fff}.st1{opacity:.85}.st2{clip-path:url(#SVGID_2_)}.st3{opacity:.65;fill:#323232}.st4,.st5{fill:#a47359}.st5{stroke:#fff;stroke-width:1.7156;stroke-miterlimit:10}.st6{fill:#dfeb8c}.st7{fill:#b8d200}.st8{fill:#e9f1b2}.st9{fill:#c2d926}.st10{fill:none;stroke:#b8d200;stroke-width:6;stroke-linecap:round;stroke-linejoin:round;stroke-miterlimit:10}.st11{fill:#2878f5}.st12{fill:#ff003c}.st13,.st14{fill:none;stroke:#fff;stroke-width:4;stroke-miterlimit:10}.st14{stroke-width:4.5}.st15{display:none}.st16{display:inline}.st17,.st18{fill:none;stroke:#fff;stroke-width:2;stroke-miterlimit:10}.st18{stroke-width:2.8}.st19{clip-path:url(#SVGID_4_)}.st20{fill:#323232}.st21,.st22,.st23{fill:none;stroke:#b8d200;stroke-width:3;stroke-miterlimit:10}.st22,.st23{fill:#fff;stroke:#2878f5;stroke-width:20}.st23{stroke:#b8d200;stroke-width:3}.st24,.st25,.st26{display:inline;fill:#323232}.st25,.st26{fill:none;stroke:#b8d200;stroke-width:3;stroke-miterlimit:10}.st26{fill:#fff;stroke:#2878f5;stroke-width:20}.st27,.st28{display:inline;fill:#2878f5}.st28{fill:#fff;stroke:#b8d200;stroke-width:3;stroke-miterlimit:10}.st29{fill:#dbe87f}.st30,.st31{fill:none;stroke:#b8d200;stroke-width:2.4;stroke-miterlimit:10}.st31{stroke:#323232;stroke-width:2;stroke-linecap:round}.st32{fill-rule:evenodd;clip-rule:evenodd;fill:#fff}.st33{fill:#fff;stroke:#b8d200;stroke-width:5.616;stroke-linecap:round;stroke-linejoin:round;stroke-miterlimit:10}.st34{clip-path:url(#SVGID_18_)}.st35{clip-path:url(#SVGID_20_);fill:#a0be00}.st36{fill:none;stroke:#fff;stroke-width:6;stroke-linecap:round;stroke-linejoin:round;stroke-miterlimit:10}</style><g id="main"><path class="st20" d="M93.2 29.1c-.1.8-.1 1.7-.2 2.5-.4 8-3.1 14.1-12.1 14.1-13.4 0-14.2-8.5-14.2-20.1v-6.2C67.1 8.2 67.9 0 80.9 0c7.3.1 11.3 3.8 11.9 11.3.1 1.1.2 2.2.2 3.3h-8c-.3-2.8-.1-8-4.1-8-6.4 0-5.9 7.6-5.9 11v12.1c0 3.6.3 9.5 5.9 9.5 4.5 0 3.9-7.2 4.1-10h8.2zm6.1-9.8C99.7 8.2 100.6 0 113.6 0s13.9 8.2 14.2 19.3v6.2c0 11.6-.9 20.1-14.2 20.1s-14.2-8.5-14.2-20.1v-6.2zm8.4 10.3c0 3.6.3 9.5 5.9 9.5 5.8 0 5.9-6 5.9-10.2V17.8c0-3.5.2-11.2-5.9-11.2-6.4 0-5.9 7.6-5.9 11v12zm35.6 15h-8.1V1h12.9l4.4 20.2c.7 3.3 1.2 6.7 1.5 10h.1c.4-4.3.7-7.2 1.3-10L159.7 1h12.9v43.5h-8.1V30.9c0-8.7.2-17.3.7-26h-.1l-8.7 39.7h-4.9L143 4.9h-.3c.5 8.7.7 17.3.7 26v13.7zm37.1 0V1H197c7.8 0 10.2 6.3 10.2 12.4 0 3.7-1 7.9-4.1 10.3-2.6 2-6 2.7-9.1 2.6h-5.5v18.2h-8.1zm8.1-24.6h4.4c3.5 0 5.9-1.5 5.9-6.8 0-5-2-5.7-6.6-5.7h-3.7V20zm20.7 24.6L219.6 1h11l9.9 43.5h-8.7l-2.1-11h-9.5l-2.1 11h-8.9zm12.2-17.4h7l-2.2-12.4c-.4-2-.6-4-.8-6-.1-1-.2-2-.3-2.9h-.1c-.1.9-.2 1.9-.3 2.9-.2 2-.4 4-.8 6l-2.5 12.4zm43-26.2h8.1v43.5H264L257.7 29c-2.1-5.2-3.9-10.5-5.8-17.3h-.1c.3 3.6.6 8 .9 12.4.2 4.4.4 8.7.4 12.2v8.2H245V1h8.4l6.3 15.9c2.1 5.1 3.8 10.2 5.8 17.3h.1c-.3-3.9-.6-8.2-.8-12.4-.2-4.2-.4-8.4-.4-12.3V1zm26.2 11.5c.9 2.1 1.6 4.4 1.9 6.7h.1c.6-3.4 1.7-5.8 2.7-8.2l3.9-9.9h8.9l-11.5 25v18.5h-8.1V26.1L277.2 1h8.9l4.5 11.5z"/><path class="st31" d="M1 43.3h45.2"/><path class="st20" d="M5.5 1.6v41.3h36.1V1.6H5.5zm15.3 30.1H12v-8.8h8.8v8.8zm0-14.3H12V8.6h8.8v8.8zm14.4 14.3h-8.8v-8.8h8.8v8.8zm0-14.3h-8.8V8.6h8.8v8.8z"/></g></svg>