<svg xmlns="http://www.w3.org/2000/svg" width="121.635" height="116.254" viewBox="0 0 121.635 116.254"><defs><style>.cls-1{fill:#1da1f2;}.cls-2{fill:none;opacity:0.14;}</style></defs><title>アートボード 11</title><g id="SNS_menu"><path class="cls-1" d="M38.552,107.044c45.293,0,70.062-37.524,70.062-70.062,0-1.066-.022-2.128-.07-3.183a50.1,50.1,0,0,0,12.284-12.75,49.153,49.153,0,0,1-14.141,3.876A24.709,24.709,0,0,0,117.515,11.3a49.348,49.348,0,0,1-15.636,5.977A24.646,24.646,0,0,0,59.916,39.738,69.909,69.909,0,0,1,9.16,14.01a24.643,24.643,0,0,0,7.623,32.873A24.444,24.444,0,0,1,5.63,43.8c-.005.1-.005.206-.005.314A24.635,24.635,0,0,0,25.38,68.259a24.586,24.586,0,0,1-11.12.422,24.652,24.652,0,0,0,23,17.1A49.412,49.412,0,0,1,6.68,96.325a50.128,50.128,0,0,1-5.874-.341,69.713,69.713,0,0,0,37.746,11.061"/><rect class="cls-2" width="121.635" height="116.254"/></g></svg>