<svg xmlns="http://www.w3.org/2000/svg" viewBox="0 0 819.71 71.37"><defs><style>.cls-1{fill:#fff;}.cls-2{fill:none;}</style></defs><title>tit_ichikawa</title><g id="レイヤー_2" data-name="レイヤー 2"><g id="main_SHOP1"><path class="cls-1" d="M0,63.59V1.49H11.59v62.1Z"/><path class="cls-1" d="M61.35,41.48c-.08,1.16-.17,2.4-.25,3.56-.58,11.34-4.39,20-17.3,20-19,0-20.28-12.09-20.28-28.65V27.57C24,11.76,25.25,0,43.8,0c10.35.17,16.15,5.46,17,16.06A30.1,30.1,0,0,1,61,20.78H49.6c-.5-4-.08-11.42-5.8-11.42-9.11,0-8.36,10.85-8.36,15.65V42.23c0,5.13.41,13.5,8.36,13.5,6.38,0,5.63-10.27,5.88-14.24Z"/><path class="cls-1" d="M72.28,63.59V1.49H83.88V26.08H100.1V1.49h11.59v62.1H100.1V35.19H83.88v28.4Z"/><path class="cls-1" d="M123,63.59V1.49h11.59v62.1Z"/><path class="cls-1" d="M145.89,63.59V1.49h11.59V29.06h.17a123.9,123.9,0,0,1,7.29-14.9l6.79-12.67h13.08L169.49,28.15l16.06,35.44H172.47L161.54,39.08l-4.06,6.71v17.8Z"/><path class="cls-1" d="M190.36,63.59l14.82-62.1h15.65l14.08,62.1H222.48l-3.06-15.73H205.84l-3.06,15.73Zm17.3-24.84h9.94l-3.15-17.64c-.58-2.9-.83-5.71-1.16-8.61-.08-1.41-.25-2.81-.41-4.14h-.17c-.17,1.33-.33,2.73-.41,4.14-.33,2.9-.58,5.71-1.16,8.61Z"/><path class="cls-1" d="M277.87,33.61c1.16,6.21,1.74,14.16,2.57,22.11h.17c.17-1.49.25-3,.41-4.47.41-5.3.91-10.6,1.74-15.9l4.64-33.86h12l-11.51,62.1H274l-4.64-24.51c-1.24-6.54-1.66-13.16-2.48-19.79h-.17c-.83,6.62-1.24,13.25-2.48,19.79l-4.14,24.51H246.16L234.32,1.49h12l5.22,33.86c.83,5.3,1.33,10.6,1.74,15.9.17,1.49.25,3,.33,4.47h.17c.91-7.95,1.49-15.9,2.65-22.11l5.63-32.12h9.6Z"/><path class="cls-1" d="M300.4,63.59l14.82-62.1h15.65l14.07,62.1H332.52l-3.06-15.73H315.88l-3.06,15.73Zm17.3-24.84h9.94l-3.15-17.64c-.58-2.9-.83-5.71-1.16-8.61-.08-1.41-.25-2.81-.41-4.14h-.17c-.17,1.33-.33,2.73-.41,4.14-.33,2.9-.58,5.71-1.16,8.61Z"/><path class="cls-1" d="M385,1.49h7.2L372.68,71.37h-7.2Z"/><path class="cls-1" d="M415.82,63.59V1.49h11.59v62.1Z"/><path class="cls-1" d="M477.17,41.48c-.08,1.16-.17,2.4-.25,3.56-.58,11.34-4.39,20-17.3,20-19,0-20.28-12.09-20.28-28.65V27.57C439.83,11.76,441.07,0,459.62,0c10.35.17,16.15,5.46,17,16.06a30.1,30.1,0,0,1,.25,4.72H465.41c-.5-4-.08-11.42-5.8-11.42-9.11,0-8.36,10.85-8.36,15.65V42.23c0,5.13.41,13.5,8.36,13.5,6.38,0,5.63-10.27,5.88-14.24Z"/><path class="cls-1" d="M488.1,63.59V1.49h11.59V26.08h16.23V1.49h11.59v62.1H515.92V35.19H499.69v28.4Z"/><path class="cls-1" d="M538.78,63.59V1.49h11.59v62.1Z"/><path class="cls-1" d="M561.71,63.59V1.49H573.3V29.06h.17a123.9,123.9,0,0,1,7.29-14.9l6.79-12.67h13.08L585.31,28.15l16.06,35.44H588.29L577.36,39.08l-4.06,6.71v17.8Z"/><path class="cls-1" d="M606.17,63.59,621,1.49h15.65l14.08,62.1H638.3l-3.06-15.73H621.66l-3.06,15.73Zm17.3-24.84h9.94l-3.15-17.64c-.58-2.9-.83-5.71-1.16-8.61-.08-1.41-.25-2.81-.41-4.14h-.17c-.17,1.33-.33,2.73-.41,4.14-.33,2.9-.58,5.71-1.16,8.61Z"/><path class="cls-1" d="M693.69,33.61c1.16,6.21,1.74,14.16,2.57,22.11h.17c.17-1.49.25-3,.41-4.47.41-5.3.91-10.6,1.74-15.9l4.64-33.86h12l-11.51,62.1H689.8l-4.64-24.51c-1.24-6.54-1.66-13.16-2.48-19.79h-.17c-.83,6.62-1.24,13.25-2.48,19.79l-4.14,24.51H662L650.14,1.49h12l5.22,33.86c.83,5.3,1.33,10.6,1.74,15.9.17,1.49.25,3,.33,4.47h.17c.91-7.95,1.49-15.9,2.65-22.11l5.63-32.12h9.6Z"/><path class="cls-1" d="M716.21,63.59,731,1.49h15.65l14.08,62.1H748.34l-3.06-15.73H731.7l-3.06,15.73Zm17.3-24.84h9.94l-3.15-17.64c-.58-2.9-.83-5.71-1.16-8.61-.08-1.41-.25-2.81-.41-4.14h-.17c-.17,1.33-.33,2.73-.41,4.14-.33,2.9-.58,5.71-1.16,8.61Z"/><path class="cls-1" d="M784.86,63.59a90.72,90.72,0,0,1,1-10.51c.75-4.31,3.81-9.94,10.93-17.47l5.63-6c3.73-4.06,5.71-6,5.71-11.92,0-5.63-2.24-7.37-5.55-7.37-2.4,0-4.55.75-5.38,3.06-1.16,2.73-.83,5.88-.91,8.78H785.43V20.45c0-5.46-.25-19.37,17.64-19.21,9.77.08,16.64,6.13,16.64,16.06,0,6.87-2.57,12.09-7.37,17l-9.11,9.44c-2.4,2.48-6,6.54-6,10.76H818.8v9.11Z"/><rect class="cls-2" width="819.71" height="71.37"/></g></g></svg>