<svg xmlns="http://www.w3.org/2000/svg" viewBox="0 0 819.71 71.37"><defs><style>.cls-1{fill:#fff;}.cls-2{fill:none;}</style></defs><title>tit_shinkoiwa</title><g id="レイヤー_2" data-name="レイヤー 2"><g id="main_SHOP1"><path class="cls-1" d="M26.41,20.51c.08-5.55-.41-11-6.79-11-3.89,0-6.38,1.57-6.38,5.79,0,4.72,3,6.54,6.62,8.86,3.81,2.4,10.85,7,14.08,10.18,4,3.89,5.22,7.62,5.22,13,0,11.76-7.78,17.88-19.13,17.88-13.91,0-18.88-7.78-18.88-18.88V41.79H12.75v3.64c-.25,6,1.57,10.43,7.29,10.43,4.88,0,7.2-2.57,7.2-7.29,0-3.64-1.66-6.13-4.64-8.2-6-4.72-13.58-8.11-18.3-14.32a17.24,17.24,0,0,1-3-9.52C1.33,5.94,7.29.15,19.54.15c18.46,0,18,14.24,18,20.37Z"/><path class="cls-1" d="M48.77,63.73V1.64H60.36V26.23H76.59V1.64H88.18v62.1H76.59V35.33H60.36v28.4Z"/><path class="cls-1" d="M99.44,63.73V1.64H111v62.1Z"/><path class="cls-1" d="M150.11,1.64h11.59v62.1H149.62l-9-22.11A208.7,208.7,0,0,1,132.31,17h-.17c.41,5.13.91,11.43,1.24,17.72s.58,12.42.58,17.39V63.73H122.38V1.64h12l9,22.6a208.23,208.23,0,0,1,8.28,24.67h.17c-.41-5.63-.83-11.67-1.16-17.63s-.58-11.92-.58-17.47Z"/><path class="cls-1" d="M171.31,42.62V33.1H191v9.52Z"/><path class="cls-1" d="M200.54,63.73V1.64h11.59V29.21h.17a124.14,124.14,0,0,1,7.29-14.9l6.79-12.67h13.08L224.14,28.3,240.2,63.73H227.12L216.19,39.23l-4.06,6.71v17.8Z"/><path class="cls-1" d="M246,27.72C246.49,11.9,247.74.15,266.28.15s19.79,11.76,20.29,27.57v8.86c0,16.56-1.24,28.65-20.29,28.65S246,53.14,246,36.58Zm11.92,14.65c0,5.13.41,13.5,8.36,13.5,8.28,0,8.36-8.53,8.36-14.49V25.48c0-5,.25-16-8.36-16-9.11,0-8.36,10.85-8.36,15.65Z"/><path class="cls-1" d="M297.25,63.73V1.64h11.59v62.1Z"/><path class="cls-1" d="M361.75,33.76c1.16,6.21,1.74,14.16,2.57,22.11h.17c.17-1.49.25-3,.41-4.47.41-5.3.91-10.6,1.74-15.9l4.64-33.86h12l-11.51,62.1H357.86l-4.64-24.51c-1.24-6.54-1.66-13.17-2.48-19.79h-.17c-.83,6.62-1.24,13.25-2.48,19.79l-4.14,24.51H330L318.2,1.64h12l5.22,33.86c.83,5.3,1.32,10.6,1.74,15.9.17,1.49.25,3,.33,4.47h.17c.91-7.95,1.49-15.9,2.65-22.11l5.63-32.13h9.6Z"/><path class="cls-1" d="M382.62,63.73l14.82-62.1h15.65l14.08,62.1H414.74L411.68,48H398.1L395,63.73Zm17.3-24.84h9.94l-3.15-17.63c-.58-2.9-.83-5.71-1.16-8.61-.08-1.41-.25-2.81-.41-4.14H405c-.17,1.33-.33,2.73-.41,4.14-.33,2.9-.58,5.71-1.16,8.61Z"/><rect class="cls-2" width="819.71" height="71.37"/></g></g></svg>