<svg xmlns="http://www.w3.org/2000/svg" viewBox="0 0 90 54.76"><defs><style>.cls-1,.cls-3{fill:#a47359;}.cls-2{fill:#fff;}.cls-3{stroke:#fff;stroke-miterlimit:10;stroke-width:1.72px;}</style></defs><title>アートボード 17</title><g id="greeting"><polygon class="cls-1" points="13.14 44.3 90 44.3 88.62 0 18.63 0 13.14 44.3"/><polygon class="cls-1" points="0.86 44.3 90 44.3 88.62 17.86 2.64 17.86 0.86 44.3"/><path class="cls-1" d="M74.95,53.16A10.23,10.23,0,1,1,85.17,42.93,10.24,10.24,0,0,1,74.95,53.16Z"/><path class="cls-2" d="M74.95,34.31a8.62,8.62,0,1,1-8.62,8.62,8.62,8.62,0,0,1,8.62-8.62m0-3.22A11.83,11.83,0,1,0,86.78,42.93,11.85,11.85,0,0,0,74.95,31.1Z"/><path class="cls-1" d="M18.25,53.16A10.23,10.23,0,1,1,28.48,42.93,10.24,10.24,0,0,1,18.25,53.16Z"/><path class="cls-2" d="M18.25,34.31a8.62,8.62,0,1,1-8.62,8.62,8.62,8.62,0,0,1,8.62-8.62m0-3.22A11.83,11.83,0,1,0,30.09,42.93,11.85,11.85,0,0,0,18.25,31.1Z"/><polygon class="cls-3" points="0.86 33.58 4.91 32.21 4.91 25.31 0.86 23.94 0.86 33.58"/><polygon class="cls-2" points="54.37 15.12 54.61 6.58 32 6.58 30.86 15.12 54.37 15.12"/><polygon class="cls-2" points="26.24 15.12 27.49 6.58 22.14 6.58 21.09 15.12 26.24 15.12"/><polygon class="cls-2" points="83.08 15.12 82.88 6.58 58.41 6.58 58.27 15.12 83.08 15.12"/></g></svg>