<svg xmlns="http://www.w3.org/2000/svg" width="351.695" height="342.367" viewBox="0 0 351.695 342.367"><defs><style>.cls-1{fill:none;opacity:0.24;}.cls-2{fill:#323232;}.cls-3{fill:#f8ea21;}</style></defs><title>アートボード 25</title><g id="recruit_hover"><rect class="cls-1" width="351.695" height="342.367"/><circle class="cls-2" cx="191.646" cy="173.106" r="158.125" transform="translate(-47.648 75.986) rotate(-20)"/><path class="cls-2" d="M4.121,125.725a7.109,7.109,0,0,1,2.745-4.433,6.312,6.312,0,0,1,5.187-.553,7.622,7.622,0,0,1,3.8,1.987,4.754,4.754,0,0,1,1.254,3.589l.069.017a4.622,4.622,0,0,1,1.87-2.423,5.256,5.256,0,0,1,3.254-.334q.706.1,1.522.264t1.823.373q1.978.412,3.044.526a1.978,1.978,0,0,0,1.629-.549l.207.051-1.314,5.367a2.735,2.735,0,0,1-1.305.19,13.522,13.522,0,0,1-1.427-.2l-4.747-1.017a4,4,0,0,0-2.448.167,2.725,2.725,0,0,0-1.365,2l-.648,2.649,10.39,2.544-1.213,4.954L1.881,134.876Zm10.212,4.761a4.171,4.171,0,0,0-.169-2.958,3.712,3.712,0,0,0-2.6-1.658q-3.405-.834-4.248,2.606l-.573,2.34,7.087,1.734Z"/><path class="cls-2" d="M17.614,98.436l-3.238,8.433L19.931,109l3.047-7.936,3.9,1.5L23.833,110.5l6.349,2.438,3.365-8.762,3.9,1.5L32.255,119.2l-23.61-9.066,5.066-13.193Z"/><path class="cls-2" d="M26.154,82.037a2.453,2.453,0,0,0-2.236,1.515,2.39,2.39,0,0,0-.291,1.633,3.4,3.4,0,0,0,1.008,1.644,14.169,14.169,0,0,0,2.421,1.857q1.573,1,3.947,2.271a44.133,44.133,0,0,0,4.183,2.017,10.279,10.279,0,0,0,2.706.764,2.5,2.5,0,0,0,1.639-.288,2.955,2.955,0,0,0,.974-1.106,3.4,3.4,0,0,0,.39-1.218,2.131,2.131,0,0,0-.336-1.324,6,6,0,0,0-1.4-1.512,17.839,17.839,0,0,0-2.8-1.781l2.406-4.5a22.785,22.785,0,0,1,3.285,2.118A8.817,8.817,0,0,1,44.328,86.7a5.9,5.9,0,0,1,.753,3.174,9.268,9.268,0,0,1-1.243,3.975,9.629,9.629,0,0,1-2.967,3.595,6.214,6.214,0,0,1-3.57,1.043,11.719,11.719,0,0,1-4.206-.924,53.048,53.048,0,0,1-9.354-5,11.755,11.755,0,0,1-3.119-2.993,6.548,6.548,0,0,1-1.161-3.574,9.185,9.185,0,0,1,1.3-4.489,8.825,8.825,0,0,1,2.811-3.377,6.033,6.033,0,0,1,3.094-1.016,7.805,7.805,0,0,1,3.052.528,24.061,24.061,0,0,1,2.7,1.223l-2.405,4.5A9.184,9.184,0,0,0,26.154,82.037Z"/><path class="cls-2" d="M35.249,59.369a7.1,7.1,0,0,1,4.2-3.089A6.311,6.311,0,0,1,44.467,57.7a7.634,7.634,0,0,1,2.782,3.262,4.756,4.756,0,0,1-.175,3.8l.057.041a4.623,4.623,0,0,1,2.639-1.55,5.258,5.258,0,0,1,3.144.9q.617.356,1.313.812t1.552,1.027q1.682,1.119,2.628,1.624a1.981,1.981,0,0,0,1.717.1l.173.124L57.075,72.33a2.738,2.738,0,0,1-1.282-.31,13.735,13.735,0,0,1-1.248-.721L50.52,68.585a4,4,0,0,0-2.333-.759,2.73,2.73,0,0,0-2.012,1.346l-1.589,2.216,8.69,6.236L50.3,81.769,29.755,67.023Zm7.7,8.228a4.172,4.172,0,0,0,.947-2.808,3.714,3.714,0,0,0-1.8-2.51q-2.848-2.045-4.914.833l-1.4,1.957,5.928,4.254Z"/><path class="cls-2" d="M61.44,55.056A11.432,11.432,0,0,0,62.8,56.165a3.973,3.973,0,0,0,1.322.609,2.46,2.46,0,0,0,1.3-.042,3.423,3.423,0,0,0,2.024-2.157,2.516,2.516,0,0,0-.055-1.289,3.962,3.962,0,0,0-.692-1.28,11.462,11.462,0,0,0-1.194-1.29L52.645,38.648l3.489-3.72L69,47a10.214,10.214,0,0,1,2.446,3.217,6.365,6.365,0,0,1,.585,3.026,6.122,6.122,0,0,1-.865,2.734,14.026,14.026,0,0,1-1.827,2.414,15.643,15.643,0,0,1-2.267,2,6.111,6.111,0,0,1-2.608,1.1,5.893,5.893,0,0,1-3.031-.366,10.778,10.778,0,0,1-3.483-2.345L45.085,46.708l3.49-3.72Z"/><path class="cls-2" d="M62.775,28.912l3.846-3.351L83.235,44.627,79.39,47.979Z"/><path class="cls-2" d="M88.155,14.491l-4.491,3.219,12.3,17.158-4.146,2.972-12.3-17.158L75.027,23.9l-2.435-3.4,13.127-9.41Z"/><path class="cls-3" d="M78.222,179.82l-3.683,1.069v8.355c0,4.078-.832,6.256-8,6.138a20.91,20.91,0,0,0-1.544-5.5c1.386.039,2.89.039,3.445.039.515,0,.673-.158.673-.712v-6.731l-2.851.792a1.016,1.016,0,0,1-.832.752l-1.267-6.3c1.386-.238,3.088-.594,4.949-.99v-6.3H64.759v-5.266h4.355v-7.4l6.573.277c-.04.436-.317.752-1.148.871v6.256h3.445v5.266H74.539v5.147l3.088-.673Zm23.362,2.812H94.852a22.983,22.983,0,0,0,7.8,7.325,20.609,20.609,0,0,0-3.762,4.316,26.724,26.724,0,0,1-6.573-6.89v7.643H86.893v-8.117a25.629,25.629,0,0,1-7.6,7.444,25.554,25.554,0,0,0-3.8-4.435,22.709,22.709,0,0,0,8.434-7.285H78.38v-4.95h8.513V173.8l6.573.356c-.04.436-.4.673-1.148.831v2.692h9.266Zm-.554-20.273c-.2.158-.356.158-1.148.158-5.464,1.544-13.621,2.534-20.788,2.93a17.836,17.836,0,0,0-1.5-4.593c7.048-.515,14.69-1.584,19.68-3.168ZM82.973,166.04a35.015,35.015,0,0,1,2.3,7.207l-4.831,1.108a36.684,36.684,0,0,0-2.02-7.4Zm7.127-.911a26.154,26.154,0,0,1,1.7,7.365l-5.068.792a27.927,27.927,0,0,0-1.386-7.484Zm12.314,1.346a1.261,1.261,0,0,1-1.228.436,55.817,55.817,0,0,1-5.029,8.434l-4.039-1.9a50.857,50.857,0,0,0,4.474-9.345Z"/><path class="cls-3" d="M145.064,160.3v28.589c0,5.108-1.979,6.3-10.137,6.217a20.411,20.411,0,0,0-1.821-5.5c1.307.119,2.851.119,4,.119,1.98,0,2.218,0,2.218-.911v-4.752h-7.365v10.612h-5.623V184.056h-7.009c-.752,4.316-2.257,8.553-5.029,11.563a21.958,21.958,0,0,0-4.553-3.762c4.316-4.712,4.633-11.839,4.633-17.422V160.3ZM120.079,174.79c0,1.188-.04,2.5-.119,3.841h6.375V174.79Zm6.256-9.027h-6.256v3.682h6.256Zm12.988,3.682v-3.682h-7.365v3.682Zm-7.365,9.187h7.365V174.79h-7.365Z"/><path class="cls-3" d="M155.165,178.038c2.812-2.851,7.84-8.632,10.572-11.681a6.111,6.111,0,0,1,4.435-2.3c1.5,0,3.088.99,4.751,2.416a180.368,180.368,0,0,1,17.9,19.006l-5.108,4.95A183.3,183.3,0,0,0,172.153,172.1c-.872-.831-1.347-1.307-1.782-1.307-.436.04-.911.515-1.663,1.347-1.069,1.346-5.385,6.811-7.8,9.622a1.776,1.776,0,0,1-.634,1.5Zm29.816-19.481a4.237,4.237,0,1,1-4.237,4.237A4.242,4.242,0,0,1,184.982,158.556Zm2.653,4.237a2.653,2.653,0,1,0-2.653,2.652A2.653,2.653,0,0,0,187.635,162.793Z"/><path class="cls-3" d="M201.277,172.969H231.04v6.019H202.846a1.84,1.84,0,0,1-1.283.753Z"/><path class="cls-3" d="M242.326,169.92a52.858,52.858,0,0,1,9.9,3.722l-2.613,5.187a57.842,57.842,0,0,0-9.9-4Zm.515,18.017c11.8-3.484,20.669-9.741,26.134-21.422a53.8,53.8,0,0,0,5.267,3.96,44.209,44.209,0,0,1-26.332,22.293,1.075,1.075,0,0,1-.673,1.148Zm4.435-27.718a63.7,63.7,0,0,1,10.018,3.92l-2.97,5.068a53.988,53.988,0,0,0-9.78-4.315Zm17.779-1.267a28.3,28.3,0,0,1,4.435,5.424l-2.811,2.1a36.794,36.794,0,0,0-4.276-5.5Zm6.256-2.1a35.761,35.761,0,0,1,4.474,5.306l-2.811,2.1a36.452,36.452,0,0,0-4.277-5.385Z"/><path class="cls-3" d="M281.372,176.177c2.574-2.455,7.127-7.246,8.989-9.147,2.1-2.138,4-3.049,6.137-3.049,3.049,0,4.91,1.347,7.325,4.4a186.966,186.966,0,0,0,15.4,16.433l-4.672,5.5a143.781,143.781,0,0,1-13.7-15.284c-2.217-2.931-3.128-4.475-4.435-4.475-.99,0-2.138,1.346-4.355,4.078-1.267,1.544-3.6,4.355-5.108,6.138a1.619,1.619,0,0,1-.673,1.5Z"/></g></svg>