<svg xmlns="http://www.w3.org/2000/svg" width="193.329" height="193.317" viewBox="0 0 193.329 193.317"><defs><style>.cls-1{fill:#f8ea21;}</style></defs><title>アートボード 29</title><g id="recruit_hover"><path class="cls-1" d="M12.963,48.337A96.646,96.646,0,1,0,144.985,12.961,96.641,96.641,0,0,0,12.963,48.337ZM134.625,30.912a75.685,75.685,0,0,1,20.814,17.675l-35.93,20.749a36.227,36.227,0,0,0-5.033-3.524,35.646,35.646,0,0,0-41.464,4.217L37.253,49.384A75.937,75.937,0,0,1,134.625,30.912ZM85.7,115.659a21.936,21.936,0,1,1,29.968-8.04A21.953,21.953,0,0,1,85.7,115.659ZM25.653,69.8,61.566,90.527A35.671,35.671,0,0,0,85.425,130.46v41.29A75.96,75.96,0,0,1,25.653,69.8Zm136.759,64.817a75.783,75.783,0,0,1-53.5,36.963V130.1a35.6,35.6,0,0,0,22.565-41.008l.205.327L167.3,68.858A75.778,75.778,0,0,1,162.412,134.615Z"/></g></svg>