<svg xmlns="http://www.w3.org/2000/svg" viewBox="0 0 85.65 71.18"><defs><style>.cls-1{fill:#fff}</style></defs><title>gnav_campaign</title><g id="レイヤー_2" data-name="レイヤー 2"><path class="cls-1" d="M5.62 67.16L6 70.65l-1.48.17-.37-3.47-4 .55L0 66.5l4-.5-.24-2.1-3.25.4-.16-1.4 3.27-.46-.23-2.17 1.81-.07c0 .12-.08.24-.3.3l.17 1.75 3.17-.44.16 1.43-3.17.43.23 2.09 4-.53.16 1.39zm13.78-2.72a.29.29 0 0 1-.18.12 11.18 11.18 0 0 1-2 3.28 4.94 4.94 0 0 0-.95-.69 8.47 8.47 0 0 0 1.4-2l-2.31.52 1 4.87-1.16.25-1-4.84-2.31.56-.27-1.12 2.38-.53-.53-2.38 1.49-.17c0 .13-.09.22-.23.29l.42 2 3.29-.74.11-.08zM21.14 61a14.77 14.77 0 0 1 3.34 1.59l-.76 1.36a16.54 16.54 0 0 0-3.26-1.64zm-.39 8.12a11.87 11.87 0 0 0 7.81-6.89 8.48 8.48 0 0 0 1.33.88A13.44 13.44 0 0 1 22 70.34a.42.42 0 0 1-.19.31zm9.7-3.12c.83-.89 2.39-2.76 3.13-3.62a1.59 1.59 0 0 1 1.16-.61 2 2 0 0 1 1.21.63 55.66 55.66 0 0 1 5.29 6L40 69.67a52.26 52.26 0 0 0-4.73-5.86c-.24-.23-.37-.36-.51-.36s-.26.15-.47.37c-.38.48-1.76 2.25-2.48 3.11a.48.48 0 0 1-.15.42zm8.61-5.95a1.3 1.3 0 0 1 0 2.6 1.3 1.3 0 0 1 0-2.6zm.79 1.3a.83.83 0 0 0-.79-.86.86.86 0 0 0 0 1.71.82.82 0 0 0 .79-.83zm1.93 3.21h7.62v1.51h-7.24a.4.4 0 0 1-.31.22zm10-3.56a14.57 14.57 0 0 1 3.34 1.59l-.75 1.36a16.83 16.83 0 0 0-3.26-1.64zm-.39 8.12a11.84 11.84 0 0 0 7.81-6.89 8.48 8.48 0 0 0 1.33.88 13.41 13.41 0 0 1-7.91 7.24.42.42 0 0 1-.19.31zm14-7.45a10.23 10.23 0 0 1 1 1.69l-1 .56a9.91 9.91 0 0 0-.63-1.28v8.5h-1.4v-7.83a5.2 5.2 0 0 1-.66 2.36l-1-.6a5.67 5.67 0 0 0 .61-2.8l1.06.15v-2.59l1.71.1c0 .12-.09.19-.31.22V62zm4.76 2.09h3v1.14h-7.47v-1.14h2.94v-.49h-2v-1h2v-.5h-2.56v-1.05h2.56v-.89l1.87.11c0 .12-.11.2-.34.23v.55h2.58v1.05h-2.58v.5h2v1h-2zm2 1.62v4.43c0 1.14-.46 1.34-2.31 1.34a5.21 5.21 0 0 0-.4-1.19h1.08c.14 0 .21 0 .21-.18v-.43H68v1.74h-1.4v-5.71zm-1.42 1.08H68V67h2.81zm-2.81 2h2.81v-.49H68zm9.87-6.4V63h2.07v1.21h-1.57l1.21.38c0 .09-.13.12-.29.12a10.14 10.14 0 0 1-.68 1.15h1.14V67h-1.88v.91h1.7v1.21h-1.7v2h-1.33v-2H74.7v-1.18h1.76V67h-1.9v-1.19h1a6.4 6.4 0 0 0-.45-1.39l.93-.26H74.3V63h2.16v-.89h-1.62v-1.2h1.62v-1l1.64.1c0 .11-.1.18-.31.2v.72h1.6v1.2zm.12 3.75l-.3-.13a10.21 10.21 0 0 0 .55-1.52h-2.08a6 6 0 0 1 .51 1.46l-.61.19zm6.57-1l.85.26a.55.55 0 0 1-.11.23 11 11 0 0 1-1 3.63 4.44 4.44 0 0 0 1.48 1 5.36 5.36 0 0 0-.94 1.22 5.18 5.18 0 0 1-1.32-1.05 5.44 5.44 0 0 1-1 1 4.1 4.1 0 0 0-.92-.94A5.17 5.17 0 0 0 82.55 69a10.36 10.36 0 0 1-1-2.52l1.1-.24a7 7 0 0 0 .63 1.46 9 9 0 0 0 .47-1.65h-2.31v5.08h-1.33V60.35h5V63c0 1.29-.61 1.36-2.35 1.36a4.56 4.56 0 0 0-.39-1.22h1.19c.17 0 .22 0 .22-.17v-1.36h-2.34v3.23h2.79zM42.78 10l4-10 6.66 4.23zm0 0l-4-10-6.66 4.23zm-3 19.09V11.45H22.53v17.67zm23.25 0V11.45H45.78v17.67zm-23.25 6H22.53V52h17.25zm6 0V52H63V35.12z" id="gnav"/></g></svg>