<svg xmlns="http://www.w3.org/2000/svg" viewBox="0 0 61.62 79.2"><defs><style>.cls-1{fill:#fff}</style></defs><title>gnav_anniversary</title><g id="レイヤー_2" data-name="レイヤー 2"><g id="gnav"><path class="cls-1" d="M5.5 69v1.46H2.42l-.24 1.78a3.9 3.9 0 0 1 .5 0A2.8 2.8 0 0 1 5.75 75a3.19 3.19 0 0 1-3.46 3.16 4.88 4.88 0 0 1-2.16-.47l.34-1.34a3.93 3.93 0 0 0 1.72.42A1.65 1.65 0 0 0 4 75.16c0-1.09-.8-1.7-2.33-1.7a7.46 7.46 0 0 0-1 .06L1.16 69zm1.41 4.54c0-2.76 1-4.7 3.05-4.7s3 2.11 3 4.63c0 3-1.12 4.71-3 4.71-2.17 0-3.05-2.11-3.05-4.64zm3 3.24c.81 0 1.22-1.15 1.22-3.27s-.37-3.27-1.21-3.27-1.26 1.11-1.26 3.27.45 3.27 1.24 3.27zm14.82-8.31v9.09c0 1.43-.69 1.61-2.83 1.58a5.46 5.46 0 0 0-.44-1.33h.92c.87 0 .9 0 .9-.28V69.8H16.9v2.84c0 2-.21 4.82-1.56 6.56a5.73 5.73 0 0 0-1.16-.92c1.2-1.57 1.29-3.88 1.29-5.65v-4.16zm-7.46 4.14h2.07v-.77h-1.82v-1.09h1.82v-.83L21 70c0 .13-.09.19-.3.23v.51h1.9v1.09h-1.9v.77h2.14v1.12h-5.57zm5.11 5.13H19v.67h-1.3v-4h4.66zm-1.33-2.2H19v1.11h2zm16.44-.33v1.4h-4.14v2.54h-1.49v-2.54h-5.45v-1.4h1.92V72h3.53v-1.42h-2.63a11.06 11.06 0 0 1-1.78 2.28 8 8 0 0 0-1.15-1 10.07 10.07 0 0 0 2.58-4.07l1.74.54a.35.35 0 0 1-.34.14c-.1.24-.2.47-.31.71h6.85v1.39h-3.47V72h3.2v1.35h-3.2v1.82zm-7.73 0h2.1v-1.82h-2.1zM38.29 71v-1.16h5V71zm4.43 3.88v3.67h-2.63V79h-1.25v-4.15zm-3.85-2.23v-1.12h3.89v1.09zm0 1.64v-1.11h3.89v1.08zm3.9-6v1.09H39v-1.16zM41.46 76h-1.37v1.39h1.37zm3.75 1c0 .5.09.59.67.59h1.73c.55 0 .63-.28.72-1.8a4.06 4.06 0 0 0 1.33.57c-.18 2-.58 2.59-1.95 2.59h-2c-1.5 0-2-.42-2-1.93v-4.49h3.8v-2.72h-3.79v-1.37H49v5.93h-1.44v-.47h-2.35zm8.55-5.49v-.72a15.18 15.18 0 0 1-2.71 1.34 5.93 5.93 0 0 0-.79-1.2 11.43 11.43 0 0 0 4.86-3.09l1.94.08a.36.36 0 0 1-.31.21 11.39 11.39 0 0 0 4.87 2.63 7.25 7.25 0 0 0-.89 1.34 16.4 16.4 0 0 1-2.58-1.25v.66zm-.56 4.2a5.06 5.06 0 0 1-1.75 3l-1.18-.85a4.06 4.06 0 0 0 1.62-2.57zM58.65 72l1.09.65a.38.38 0 0 1-.24.15 19.72 19.72 0 0 1-1.83 2.73 7 7 0 0 0-.85-.57 4.89 4.89 0 0 1 .51.46l-1 1a7.89 7.89 0 0 0-2.26-1.63l.91-.94a9 9 0 0 1 1.61.93 12.28 12.28 0 0 0 1-1.53H52V72h6.47zM55 77.26c0 .35.07.38.54.38h1.35c.4 0 .47-.14.53-1.27a3.9 3.9 0 0 0 1.26.52c-.15 1.63-.54 2-1.66 2h-1.7c-1.44 0-1.77-.41-1.77-1.65v-1.8l1.74.09c0 .11-.1.19-.31.23zm2.42-6.89a7.92 7.92 0 0 1-1.52-1.27 9.26 9.26 0 0 1-1.48 1.27zm2.77 8.24a9.55 9.55 0 0 0-2-2.79l1.19-.71a9.6 9.6 0 0 1 2.13 2.72zM19.12 37.3a4.17 4.17 0 0 0 1 2.17 2.79 2.79 0 0 0 2.12.76 2.81 2.81 0 0 0 2.43-1.13 4.59 4.59 0 0 0 .84-2.83 5 5 0 0 0-.78-2.84 2.76 2.76 0 0 0-2.45-1.15 4.3 4.3 0 0 0-1.36.19 2.68 2.68 0 0 0-1.52 1.35l-3.87-.18 1.54-12.12h12.05v3.66h-9L19.38 30a8.26 8.26 0 0 1 1.56-.87 6.6 6.6 0 0 1 2.28-.34A6.61 6.61 0 0 1 30 35.92a8.34 8.34 0 0 1-2 5.43 7.09 7.09 0 0 1-5.83 2.39 7.76 7.76 0 0 1-5.14-1.68 6.52 6.52 0 0 1-2.23-4.76zM44.86 24q1.68 3 1.68 8.38t-1.68 8.37q-1.7 2.92-5.88 2.93t-5.88-2.9q-1.68-2.94-1.68-8.37T33.1 24q1.69-3 5.88-3t5.88 3zm-8.42 14.2a2.5 2.5 0 0 0 2.54 2 2.47 2.47 0 0 0 2.52-2 21.38 21.38 0 0 0 .6-5.79 21.1 21.1 0 0 0-.6-5.87 2.44 2.44 0 0 0-2.5-1.9 2.47 2.47 0 0 0-2.54 1.9 20.57 20.57 0 0 0-.62 5.87 20.85 20.85 0 0 0 .6 5.79zm-8.54 6.45V44h.52v-1h1v1H30v.7h-.61v2c0 .16 0 .25.06.29a.62.62 0 0 0 .36.06H30v.73h-.46a1.29 1.29 0 0 1-.95-.24.74.74 0 0 1-.17-.52v-2.37zm5.42-.71a1.07 1.07 0 0 1 .47.37 1.09 1.09 0 0 1 .19.43 6.09 6.09 0 0 1 0 .72v2.21H33v-2.29a1.07 1.07 0 0 0-.1-.48.52.52 0 0 0-.51-.27.68.68 0 0 0-.58.26 1.18 1.18 0 0 0-.2.75v2h-1v-5.02h1v1.78a1.16 1.16 0 0 1 .49-.45 1.31 1.31 0 0 1 .59-.13 1.56 1.56 0 0 1 .63.12zM8.5 26.46l3 1.19-.11.79-3.24.27.08-.63h.82l.1-.69-.78-.27zm1.14 1.05l-.07.5h1.57l-.21-.05-.43-.12zm1.65 3.64v.59H8.11v-.61l1.14-.45a10.69 10.69 0 0 1 1.27-.4l-.91.05H8.13v-.59h3.17v.61l-1.16.44a9.17 9.17 0 0 1-1.27.4h1.79zm.26 2.85l.08.59-3.14.41-.08-.62 1.05-.61a10.08 10.08 0 0 1 1.19-.6l-.89.19-.88.16-.59.08-.08-.6 3.14-.45.09.6-1.08.62a8.73 8.73 0 0 1-1.19.6l.89-.19.87-.15zm-2.78 2.2l3.07-.79.16.59-3.07.8zm3.92 1.87l.22.59-3.21.47-.28-.74 2.73-1.77.22.6-1.78 1.06c-.15.09-.32.17-.48.25a1.79 1.79 0 0 1-.24.12l.25-.07.53-.12zm-2.31 2.63l2.8-1.48.82 1.48-.41.21-.5-.95-.71.38.46.87-.41.22-.46-.88-.86.46.5 1-.41.22zm2.83 2.15l-1.11.79-.35-.48 2.59-1.84.65.91c.29.42.38.84-.1 1.18-.28.2-.63.34-.9 0a.51.51 0 0 1-.2.71c-.11.07-.75.51-.75.68l-.38-.53a2.76 2.76 0 0 1 .61-.52c.16-.12.38-.27.31-.47a1.7 1.7 0 0 0-.26-.43zm.38-.27l.27.38c.12.15.31.2.57 0s.25-.36.13-.54l-.26-.36zm2.59 2.57c.21-.2.4-.41.17-.64a.28.28 0 0 0-.44 0c-.17.17-.13.34-.09.56a5.29 5.29 0 0 1 .11.88.8.8 0 0 1-.29.65.88.88 0 0 1-1.34-.08.85.85 0 0 1 0-1.36l.17-.16.4.43-.13.13c-.23.2-.33.42-.13.63a.32.32 0 0 0 .52 0 .46.46 0 0 0 .14-.46 4.72 4.72 0 0 1-.11-1.18.88.88 0 0 1 .25-.44.79.79 0 0 1 1.25.09.87.87 0 0 1-.12 1.39zm-.48 2.62l2.58-2 .62.5-1.43 2.93-.47-.4.38-.72-.54-.44-.63.53zm1.49-.43l.39.32.44-.8a3.48 3.48 0 0 1 .23-.38l.12-.18-.15.16c-.1.1-.2.2-.32.3zm2.34 1.57l-.71 1.18-.51-.31L20 47.06l1 .57c.44.27.68.62.38 1.12-.18.3-.44.57-.81.41a.48.48 0 0 1 .1.72c-.07.12-.48.78-.41.93l-.56-.33a3.81 3.81 0 0 1 .36-.73c.1-.17.24-.39.1-.55a1.91 1.91 0 0 0-.41-.29zm.23-.4l.4.24c.18.09.37.06.54-.21s.08-.43-.11-.55l-.38-.23zm3.03 1.02a1.67 1.67 0 0 1-.06.5 3.36 3.36 0 0 1 .41-.47l.56-.56.59.26-1.48 1.35-.53 1.24-.54-.23.52-1.24-.05-2 .6.25zm19.37-1.6c-.15-.24-.32-.46-.6-.28a.27.27 0 0 0-.11.42c.13.21.3.2.53.2a6.4 6.4 0 0 1 .88 0 .82.82 0 0 1 .58.42.87.87 0 0 1-.33 1.3.85.85 0 0 1-1.33-.3l-.13-.19.5-.32.1.15c.16.27.36.41.6.25a.33.33 0 0 0 .11-.51.45.45 0 0 0-.42-.22 4.64 4.64 0 0 1-1.18-.12.84.84 0 0 1-.39-.33.78.78 0 0 1 .33-1.2.86.86 0 0 1 1.34.38zm2.7.78l-2-2.48.46-.37 2 2.47zm.21-4.47l.42-.42 2.26 2.23-.44.44-1.12-.49a10.69 10.69 0 0 1-1.2-.58l.68.59c.24.21.48.43.66.61l.42.42-.41.42-2.26-2.23.43-.44 1.15.49a11.45 11.45 0 0 1 1.19.58l-.69-.59c-.23-.2-.45-.4-.65-.6zm3.79-1.44l.13.11c.45.37.7.79.3 1.32-.57.79-1.11.47-1.79 0l-.36-.27c-.64-.5-1.09-.91-.52-1.67a.79.79 0 0 1 1.17-.21 1.37 1.37 0 0 1 .2.13l-.34.47c-.18-.1-.47-.34-.65-.11-.27.38.19.68.39.82l.71.52c.21.16.57.4.81.07s-.25-.54-.41-.67zm1.57-.39l-2.79-1.53.81-1.46.4.22-.51.94.66.42.47-.87.41.22-.47.87.85.47.52-.94.41.23zm.01-5.41l-.21.69-.4-.13a.78.78 0 0 0-.27-1l.13-.42 3 .94-.18.56zm1.78-3.39c1 .18 1.21.51 1.1 1.12s-.34.75-.84.65l.1-.54c.1 0 .26 0 .29-.21s-.35-.37-.53-.41h-.2a.56.56 0 0 1 .13.49c-.09.5-.46.65-1.11.54s-1.15-.4-1-1.07.6-.8 1.34-.67zm-1.64.63c0 .31.24.32.64.39.23 0 .56.13.62-.19s-.26-.34-.52-.38-.71-.14-.74.18zm1.06-1.62c-1 0-1.27-.35-1.24-1 0-.46.24-.79.75-.75v.55c-.11 0-.27 0-.26.25s.39.32.58.34h.2a.53.53 0 0 1-.19-.47c0-.5.37-.7 1-.67s1.19.24 1.16.93-.5.87-1.24.83zm1.54-.83c0-.31-.28-.29-.69-.31-.23 0-.57-.05-.58.27s.29.3.55.31.73.05.72-.27zm-.94-3.63c1-.08 1.3.18 1.35.8 0 .47-.14.82-.65.84v-.55c.1 0 .26 0 .23-.27s-.43-.27-.62-.26h-.2a.56.56 0 0 1 .25.45c0 .5-.29.74-.94.8s-1.21-.1-1.27-.79.39-.92 1.13-1zm-1.42 1c0 .31.31.25.71.22.23 0 .58 0 .55-.33s-.33-.27-.59-.25-.73.06-.67.37zM15.93 13.44h3.21v.76H18v4.4h-1v-4.4h-1.07zM21.69 15c0-.46 0-.92-.57-.92-.32 0-.53.14-.53.49s.25.54.55.73a9 9 0 0 1 1.17.85 1.34 1.34 0 0 1 .43 1.08 1.41 1.41 0 0 1-1.58 1.48 1.38 1.38 0 0 1-1.57-1.56v-.38h1v.3c0 .5.13.87.61.87a.53.53 0 0 0 .59-.61.77.77 0 0 0-.38-.68 7.33 7.33 0 0 1-1.52-1.19 1.4 1.4 0 0 1-.25-.79c0-.88.5-1.36 1.51-1.36 1.54 0 1.5 1.18 1.5 1.69zm4.16-1.56h1V17c0 1.14-.37 1.68-1.63 1.68s-1.65-.54-1.65-1.68v-3.6h1V17c0 .49 0 1 .68 1s.66-.5.66-1zm4.95 3.32v.3c-.05.94-.36 1.66-1.44 1.66-1.58 0-1.68-1-1.68-2.38v-.73c0-1.32.14-2.29 1.68-2.29a1.29 1.29 0 0 1 1.41 1.33 1.7 1.7 0 0 1 0 .39h-.95c0-.33 0-.95-.48-.95-.75 0-.69.91-.69 1.31v1.43c0 .42 0 1.12.69 1.12s.47-.86.49-1.19zm.91 1.84v-5.16h1v2H34v-2h1v5.16h-1v-2.36h-1.33v2.36zm4.35 0v-5.16h1v5.16zm3.25-3.8a3.43 3.43 0 0 1 .23.79 4.33 4.33 0 0 1 .32-1l.46-1.17h1.05l-1.36 3v2.18h-1v-2.19l-1.35-3h1.06zm1.93 3.8l1.23-5.16h1.3l1.17 5.16h-1l-.25-1.31h-1.16l-.25 1.31zm1.44-2.06h.83l-.27-1.47c0-.24-.06-.47-.09-.71s0-.24 0-.35v.35c0 .12 0 .47-.1.71z"/><path class="cls-1" d="M46.18 4.13a30.78 30.78 0 1 0 11.26 42 30.78 30.78 0 0 0-11.26-42zM59 29.06a.76.76 0 0 1-.77.75.75.75 0 0 1-.74-.71v-.05a.75.75 0 0 1 .76-.75.76.76 0 0 1 .75.76zm-.44-3.52a.75.75 0 0 1-.67.83.74.74 0 0 1-.82-.6.13.13 0 0 1 0-.06.75.75 0 1 1 1.5-.17zm-.88-3.45a.76.76 0 0 1-1.45.42v-.06a.76.76 0 0 1 1.47-.36zm-2.28-3.74a.76.76 0 0 1 1 .44.75.75 0 0 1-.44 1 .76.76 0 0 1-.95-.38.14.14 0 0 1 0-.06.75.75 0 0 1 .43-1zm-1.75-3a.75.75 0 1 1-.28 1.07v-.05a.75.75 0 0 1 .32-1.01zm-2.11-2.75a.75.75 0 1 1-.15 1.1v-.05a.75.75 0 0 1 .19-1.04zm-2.45-2.46a.76.76 0 0 1 1 1.11.76.76 0 0 1-1 0 .76.76 0 0 1 .04-1.1zM46.4 8a.76.76 0 1 1 .14 1.1.75.75 0 0 1-.14-1.1zm-3-1.78a.75.75 0 0 1 1-.22.76.76 0 0 1 .22 1 .75.75 0 0 1-1 .25h-.05a.76.76 0 0 1-.14-1.02zm-3.15-1.38a.76.76 0 0 1 1.36.66.75.75 0 0 1-1 .37.75.75 0 0 1-.36-1.03zm-3.33-1a.76.76 0 0 1 1-.47.75.75 0 0 1-.43 1.44h-.09a.76.76 0 0 1-.48-.95zM33.5 3.3a.76.76 0 1 1 .65.9h-.06a.75.75 0 0 1-.59-.9zm-2.66-.82a.77.77 0 0 1 .7.81.75.75 0 0 1-.75.7h-.06a.76.76 0 0 1-.7-.81.77.77 0 0 1 .81-.7zm-3.54.22a.75.75 0 0 1 .13 1.5h-.06a.76.76 0 1 1-.07-1.5zm-3.5.66a.76.76 0 0 1 .88.61.75.75 0 0 1-.55.86h-.06a.76.76 0 0 1-.88-.62.75.75 0 0 1 .61-.85zm-3.38 1.09a.77.77 0 0 1 .95.5.75.75 0 0 1-.44.92h-.06a.75.75 0 1 1-.45-1.44zM17.2 6a.75.75 0 0 1 1 .37.76.76 0 0 1-.32 1h-.05A.75.75 0 0 1 17.2 6zm-3 1.9a.75.75 0 0 1 .8 1.21.76.76 0 0 1-1-.24.75.75 0 0 1 .2-1.01zm-2.75 2.26a.75.75 0 0 1 1 1.13.75.75 0 1 1-1-1.17zM9 12.7a.75.75 0 0 1 1.12 1v.05a.75.75 0 0 1-1.06 0A.76.76 0 0 1 9 12.7zm-2.1 2.87a.76.76 0 0 1 1.1-.15.75.75 0 0 1 .19 1v.05a.76.76 0 0 1-1.21-.91zm-1.7 3.11a.75.75 0 0 1 1-.28.75.75 0 0 1 .31 1 .17.17 0 0 1 0 .05.76.76 0 0 1-1.32-.75zM3.89 22a.75.75 0 0 1 1.42.51.14.14 0 0 0 0 .06.76.76 0 0 1-1 .41.75.75 0 0 1-.42-.98zM3 25.43a.75.75 0 0 1 .92-.54.76.76 0 0 1 .55.87v.06a.76.76 0 0 1-.93.53.75.75 0 0 1-.54-.92zM2.54 29a.76.76 0 0 1 1.51.15v.06a.75.75 0 0 1-.85.64.76.76 0 0 1-.66-.85zm0 3.56a.75.75 0 0 1 .76-.75.76.76 0 0 1 .75.71v.05a.77.77 0 0 1-.77.75.76.76 0 0 1-.74-.81zM3 36a.75.75 0 0 1 1.49-.23v.06a.76.76 0 0 1-.67.84A.75.75 0 0 1 3 36zm.87 3.45a.76.76 0 0 1 1.45-.42.14.14 0 0 1 0 .06.76.76 0 0 1-1.47.36zm2.28 3.74a.75.75 0 1 1 .41-1v.05a.76.76 0 0 1-.43.98zm1.75 3a.75.75 0 1 1 .28-1.07.75.75 0 0 1-.3 1.09zM10 49a.77.77 0 0 1-1.06-.18.76.76 0 0 1 1.2-.92A.75.75 0 0 1 10 49zm2.44 2.46a.77.77 0 0 1-1.07 0 .76.76 0 0 1 1.07-1.07h.05a.75.75 0 0 1-.05 1.03zm2.73 2.14a.75.75 0 0 1-1.06.09.76.76 0 0 1 .89-1.23.75.75 0 0 1 .17 1.1zm3 1.78a.77.77 0 0 1-1 .22.76.76 0 0 1 .78-1.3H18a.76.76 0 0 1 .15 1.04zm-10-33.11l3.39 2a20.54 20.54 0 0 1 3.69-6.51l-3.39-1.95a24.22 24.22 0 0 1 37.65-.26l-3.4 2a20.24 20.24 0 0 1 3.79 6.44l3.38-1.95a24.17 24.17 0 0 1-18.59 32.61v-3.92a20.19 20.19 0 0 1-7.48.06v3.91a24.2 24.2 0 0 1-19-32.47zm13.16 34.5a.77.77 0 0 1-1 .35.75.75 0 0 1-.35-1 .74.74 0 0 1 1-.37h.06a.76.76 0 0 1 .29.98zm3.32 1a.75.75 0 1 1-.53-1h.06a.76.76 0 0 1 .47.94zm3.42.56a.76.76 0 1 1-.64-.9h.05a.75.75 0 0 1 .59.84zm2.66.82a.77.77 0 0 1-.7-.81.75.75 0 0 1 .75-.7h.06a.76.76 0 1 1-.11 1.51zm3.55-.22a.75.75 0 0 1-.14-1.5h.06a.76.76 0 0 1 .08 1.51zm3.49-.66a.77.77 0 0 1-.88-.61.75.75 0 0 1 .56-.86h.06a.76.76 0 0 1 .26 1.49zm3.38-1.09a.75.75 0 0 1-.94-.5.74.74 0 0 1 .44-.92h.05a.75.75 0 0 1 .95.49.77.77 0 0 1-.5.87zm3.22-1.51a.75.75 0 0 1-1-.37.76.76 0 0 1 .32-1h.05a.75.75 0 1 1 .63 1.37zm3-1.9a.76.76 0 0 1-.85-1.25.75.75 0 1 1 .8 1.28zm2.74-2.26a.75.75 0 0 1-1-1.13.75.75 0 1 1 .95 1.17zm2.44-2.58a.76.76 0 0 1-1.13-1 .76.76 0 1 1 1.09 1zm2.1-2.93a.76.76 0 0 1-1.24-.86.76.76 0 0 1 1.21.91zm1.72-3.11a.75.75 0 0 1-1 .28.75.75 0 0 1-.31-1 .74.74 0 0 1 1-.28.75.75 0 0 1 .31 1zm1.32-3.31a.76.76 0 0 1-1 .42.75.75 0 0 1-.43-.93.14.14 0 0 1 0-.06.75.75 0 0 1 1-.41.76.76 0 0 1 .43.98zm.89-3.44a.76.76 0 0 1-.93.54.77.77 0 0 1-.55-.87v-.06a.75.75 0 0 1 .92-.53.76.76 0 0 1 .56.92zm.42-3.52a.75.75 0 0 1-.85.64.74.74 0 0 1-.65-.79v-.06a.76.76 0 0 1 1.5.21z"/></g></g></svg>