<svg xmlns="http://www.w3.org/2000/svg" viewBox="0 0 312.17 54"><defs><style>.cls-1{fill:#fff}</style></defs><title>logo_white</title><g id="レイヤー_2" data-name="レイヤー 2"><path class="cls-1" d="M0 .82h21.27v5h-7.42V35H7.47V5.84H0zm38.13 10.39c0-3.05-.23-6.06-3.74-6.06-2.14 0-3.51.87-3.51 3.19 0 2.6 1.64 3.6 3.64 4.87a59.33 59.33 0 0 1 7.75 5.61A8.92 8.92 0 0 1 45.14 26c0 6.47-4.28 9.84-10.52 9.84-7.65 0-10.39-4.28-10.39-10.38v-2.54h6.38v2c-.14 3.32.87 5.74 4 5.74 2.69 0 4-1.41 4-4A5.17 5.17 0 0 0 36 22.15c-3.32-2.6-7.47-4.47-10.07-7.88A9.48 9.48 0 0 1 24.33 9c0-5.84 3.28-9 10-9 10.16 0 9.89 7.84 9.93 11.21zM65.74.82h6.38v23.83c0 7.56-2.46 11.16-10.8 11.16s-10.89-3.6-10.89-11.16V.82h6.38v23.29c0 3.28.23 6.56 4.56 6.56 4.14 0 4.37-3.28 4.37-6.56zm32.75 22.01c0 .64-.09 1.32-.14 2-.32 6.24-2.41 11-9.52 11-10.48 0-11.16-6.65-11.16-15.76v-4.89C77.95 6.47 78.63 0 88.83 0c5.7.09 8.88 3 9.34 8.84a16.61 16.61 0 0 1 .13 2.6H92c-.27-2.19 0-6.29-3.19-6.29-5 0-4.6 6-4.6 8.61v9.48c0 2.82.23 7.42 4.6 7.42 3.51 0 3.1-5.65 3.23-7.83zM104.51 35V.82h6.38v13.54h8.93V.82h6.38V35h-6.38V19.37h-8.93V35zm28.78 0V.82h6.38V35zm21.55-25.2a22.87 22.87 0 0 1 1.5 5.24h.09a29.1 29.1 0 0 1 2.09-6.47l3-7.75h7l-9 19.64V35h-6.38V20.46L144.27.82h7zM167.65 35L175.8.82h8.61L192.15 35h-6.84l-1.69-8.65h-7.47L174.48 35zm9.52-13.66h5.46l-1.73-9.7c-.32-1.6-.45-3.15-.64-4.74 0-.78-.14-1.55-.23-2.28h-.09c-.09.73-.18 1.51-.23 2.28-.18 1.59-.32 3.14-.64 4.74zm49.4 1.49c0 .64-.09 1.32-.13 2-.32 6.24-2.42 11-9.52 11-10.48 0-11.16-6.65-11.16-15.76v-4.89C206 6.47 206.71 0 216.91 0c5.69.09 8.88 3 9.34 8.85a16.59 16.59 0 0 1 .14 2.6h-6.29c-.27-2.19 0-6.29-3.19-6.29-5 0-4.6 6-4.6 8.61v9.48c0 2.82.23 7.42 4.6 7.42 3.51 0 3.1-5.65 3.23-7.83zM229 35L237.14.82h8.61L253.49 35h-6.83L245 26.34h-7.5L235.82 35zm9.52-13.66H244l-1.73-9.7c-.32-1.6-.46-3.15-.64-4.74 0-.78-.14-1.55-.23-2.28h-.09c-.09.73-.18 1.51-.23 2.28-.18 1.59-.32 3.14-.64 4.74zm24.86-1.06V35H257V.82h12.07c5.51 0 9.7 1.91 9.7 8.21 0 3.74-1 7.65-5.24 8.25v.09c3.78.5 4.92 2.91 4.92 6.19 0 1.41-.18 9.79 1.37 10.8V35h-7c-.77-2.19-.64-6.38-.68-8.65 0-2.09 0-5-2.19-5.6a19.54 19.54 0 0 0-5.42-.46zm0-5h5c2.1-.14 3.74-1.5 3.74-4.92 0-3.83-1.6-4.47-4-4.51h-4.74zm18.5-4.2c2-.27 3.05-1.55 2.91-4.33h-2.91V.82h5.51v5.43c0 4.05-1.28 6.24-5.51 6.93zm23.28.13c0-3-.23-6.06-3.74-6.06-2.14 0-3.51.87-3.51 3.19 0 2.6 1.64 3.6 3.64 4.87a58.77 58.77 0 0 1 7.74 5.6 8.91 8.91 0 0 1 2.88 7.19c0 6.47-4.28 9.84-10.52 9.84-7.65 0-10.38-4.28-10.38-10.39v-2.5h6.37v2c-.14 3.32.87 5.74 4 5.74 2.69 0 4-1.41 4-4a5.17 5.17 0 0 0-2.55-4.51c-3.32-2.6-7.47-4.46-10.06-7.88a9.48 9.48 0 0 1-1.68-5.3c0-5.84 3.28-9 10-9 10.16 0 9.88 7.84 9.93 11.21zm-303.99 32h6.56v1.55H5.44v9h-2v-9H1.17zm7.65 4.42c.08-2.68.29-4.63 3.44-4.63s3.36 2 3.44 4.68v1.5c0 2.81-.21 4.86-3.44 4.86s-3.44-2.05-3.44-4.86zm2 2.49c0 .87.07 2.29 1.42 2.29S13.68 51 13.68 50v-2.7c0-.84 0-2.71-1.42-2.71s-1.42 1.84-1.42 2.65zm5.96-6.91h6.56v1.55h-2.28v9h-2v-9h-2.28zm6.92 10.54l2.52-10.54h2.65l2.39 10.54h-2.11l-.52-2.67h-2.3l-.52 2.67zm2.93-4.22h1.69l-.53-3c-.1-.49-.14-1-.2-1.46 0-.23 0-.47-.07-.7 0 .22-.06.46-.07.7-.06.49-.1 1-.2 1.46zm5.71 4.22V43.21h2v9H38v1.55zM49.12 50v.6c-.1 1.93-.75 3.4-2.94 3.4-3.23 0-3.44-2.05-3.44-4.86v-1.5c.09-2.68.3-4.68 3.44-4.68A2.64 2.64 0 0 1 49 45.68a4.85 4.85 0 0 1 0 .8h-1.87c-.09-.67 0-1.94-1-1.94-1.54 0-1.42 1.84-1.42 2.65v2.92c0 .87.07 2.29 1.42 2.29 1.08 0 1-1.74 1-2.42zm.75 3.75l2.52-10.54H55l2.39 10.54h-2.07l-.52-2.67h-2.3l-.5 2.67zm2.94-4.22h1.69l-.54-3c-.1-.49-.14-1-.2-1.46 0-.23 0-.47-.07-.7 0 .22-.05.46-.07.7-.06.49-.1 1-.2 1.46zm7.64-.32v4.54h-2V43.21h3.72c1.7 0 3 .59 3 2.53 0 1.15-.3 2.36-1.61 2.54 1.17.16 1.52.9 1.52 1.91 0 .44-.06 3 .42 3.33v.2h-2.14a10.68 10.68 0 0 1-.21-2.67c0-.64 0-1.53-.67-1.73a6 6 0 0 0-1.67-.14zm0-1.55H62c.65 0 1.15-.46 1.15-1.52s-.49-1.38-1.24-1.39h-1.46zm10.17 6.09V43.21h2v9h3.65v1.55zm7.04 0V43.21h2v10.54zm3.96 0V43.21h5.58v1.55h-3.61v2.67H87V49h-3.41v4.78zm6.9 0V43.21h5.54v1.55h-3.57v2.66h3.29V49h-3.29v3.2h3.57v1.55zm10.66 0V43.21h4.1a2.44 2.44 0 0 1 2 1.19 7.4 7.4 0 0 1 .58 3.64c0 2.08 0 4.48-1.61 5.42a2.9 2.9 0 0 1-1.46.28zM102 52.2c1.76 0 1.87-.93 1.87-4 0-2.49-.25-3.47-1.43-3.47h-1.29v7.47zm5.65 1.55V43.21h5.54v1.55h-3.57v2.66h3.29V49h-3.29v3.2h3.57v1.55zm6.25 0l2.52-10.54h2.65l2.39 10.54h-2.11l-.52-2.67h-2.31l-.52 2.67zm2.93-4.22h1.69l-.53-3c-.1-.49-.14-1-.2-1.46 0-.23 0-.47-.07-.7 0 .22-.05.46-.07.7-.06.49-.1 1-.2 1.46zm5.72 4.22V43.21h2v9h3.65v1.55zm6.97 0V43.21h5.54v1.55h-3.57v2.66h3.29V49h-3.29v3.2h3.57v1.55zm9.02-4.54v4.54h-2V43.21h3.72c1.7 0 3 .59 3 2.53 0 1.15-.3 2.36-1.62 2.54 1.17.16 1.52.9 1.52 1.91 0 .44-.06 3 .42 3.33v.2h-2.16a10.46 10.46 0 0 1-.21-2.67c0-.64 0-1.53-.67-1.73a6 6 0 0 0-1.67-.14zm0-1.55h1.55c.64 0 1.15-.46 1.15-1.52s-.49-1.38-1.24-1.39h-1.46zm14.18-1.25c0-.94-.07-1.87-1.15-1.87-.66 0-1.08.26-1.08 1s.5 1.11 1.12 1.5a17.86 17.86 0 0 1 2.39 1.72 2.74 2.74 0 0 1 .88 2.21c0 2-1.32 3-3.25 3-2.36 0-3.2-1.32-3.2-3.2V50h2v.62c0 1 .27 1.77 1.24 1.77a1.09 1.09 0 0 0 1.22-1.24 1.59 1.59 0 0 0-.79-1.39 15.46 15.46 0 0 1-3.1-2.43 2.92 2.92 0 0 1-.51-1.62c0-1.8 1-2.78 3.09-2.78 3.13 0 3 2.42 3.06 3.46zm3.81 7.34V43.21h2v10.54zm8.6-10.54h2v10.54H165L163.52 50a35.71 35.71 0 0 1-1.4-4.19c.07.87.16 1.94.21 3s.1 2.11.1 3v2h-2v-10.6h2L164 47a35.16 35.16 0 0 1 1.4 4.19c-.07-1-.14-2-.2-3s-.1-2-.1-3zM175.25 50v.6c-.1 1.93-.75 3.4-2.94 3.4-3.23 0-3.44-2.05-3.44-4.86v-1.5c.08-2.68.3-4.68 3.44-4.68a2.64 2.64 0 0 1 2.88 2.73 5.4 5.4 0 0 1 0 .8h-1.94c-.08-.67 0-1.94-1-1.94-1.54 0-1.42 1.84-1.42 2.65v2.92c0 .87.07 2.29 1.42 2.29 1.09 0 1-1.74 1-2.42zm1.52 3.75V43.21h5.54v1.55h-3.57v2.66H182V49h-3.29v3.2h3.57v1.55zm12.64-7.31H187V45c1.36 0 2.5-.38 2.9-1.83h1.45v10.58h-2zm9.36 3.26c0 3.36-1 4.26-3 4.26-1.55 0-2.66-.7-2.6-2.37H195c0 .35.06.87.86.83 1.11 0 1-1.34 1-2v-.67a1.81 1.81 0 0 1-1.55.7c-1.67 0-2.39-1.14-2.39-3.3 0-2.64.65-4 2.92-4s3 1.53 2.94 4zm-3-5c-1 0-.91 1-.91 2.32 0 .76-.1 1.9 1 1.9s1-1 1-1.9c-.04-1.3-.02-2.41-1.07-2.31zm4.17 2.72c0-3.36 1-4.26 3-4.26 1.55 0 2.66.7 2.6 2.37h-1.83c0-.35 0-.88-.85-.83-1.11.08-1 1.34-1 2v.67a1.8 1.8 0 0 1 1.55-.7c1.67 0 2.38 1.14 2.38 3.3 0 2.64-.63 4-2.91 4s-3-1.53-2.95-4zm3 5c1 0 .91-1 .91-2.32 0-.76.1-1.9-1-1.9s-1 1-1 1.9c.04 1.3.01 2.41 1.06 2.31zm9.88-2.72c0 3.36-1 4.26-3 4.26-1.55 0-2.66-.7-2.6-2.37H209c0 .35.05.87.86.83 1.11 0 1-1.34 1-2v-.67a1.8 1.8 0 0 1-1.55.7c-1.67 0-2.39-1.14-2.39-3.3 0-2.64.65-4 2.92-4s3 1.53 2.94 4zm-3-5c-1 0-.92 1-.92 2.32 0 .76-.1 1.9 1 1.9s1-1 1-1.9c-.03-1.3 0-2.41-1.05-2.31z" id="gnav"/></g></svg>