<svg xmlns="http://www.w3.org/2000/svg" viewBox="0 0 887.5 474.39"><defs><style>.cls-1{opacity:.4}.cls-2{fill:#b8d200}.cls-3{fill:#fff}.cls-4{fill:#323232}</style></defs><title>アートボード 7</title><g id="レイヤー_20" data-name="レイヤー 20"><path class="cls-1" d="M860.5 450.39l-822 24-8.5-8.5L8.5 8.5 879 21l8.5 8.5-27 420.89z"/><path class="cls-2" d="M852 441.89l-822 24L0 0l879 21-27 420.89z"/><path class="cls-3" d="M114.25 211.49a36.65 36.65 0 0 0-2.1 4.32c-3.78 8.94-6.12 13.5-8.46 17a143.88 143.88 0 0 1 13.38 12.72l-5.76 6.18A89.24 89.24 0 0 0 99.13 239a68.76 68.76 0 0 1-9.36 10 76.16 76.16 0 0 1-14.28 9.9 18.6 18.6 0 0 0-5.28-6.24 61.07 61.07 0 0 0 15.54-10.38 61.12 61.12 0 0 0 7.62-8.16 107.55 107.55 0 0 0-15.9-10.8l5.28-5.28c4.38 2.58 7 4.26 9.9 6.36 4.5 3.24 4.5 3.24 5 3.54 3.84-6.3 7.68-15 8.46-19.32zm14.58 38.04a57.17 57.17 0 0 0 17.76-4.44 40.09 40.09 0 0 0 17.82-14.7 50.1 50.1 0 0 0 6.12-12 25.89 25.89 0 0 0 6.36 5.88c-5.1 11-10.8 18.06-19 23.52-6.12 4.08-13.56 7-22.86 9a21.23 21.23 0 0 0-4 1zm5.1-37.26c7.14 4.44 10.86 7.2 15.48 11.58l-5.16 6.54a63 63 0 0 0-15.3-12.18zm81.54 19.98c-.3 6.9-1.62 11.88-4.2 16.14-3.18 5.28-7.56 8.58-15.66 11.82a19 19 0 0 0-4.86-6.6c7.2-2.22 11.7-5.4 14.22-10 1.56-2.76 2.46-6.66 2.64-11.34H193a59.37 59.37 0 0 0-7.62.3v-7.14a42.22 42.22 0 0 0 7.74.42h35.1a42.6 42.6 0 0 0 7.74-.42v7.14a59.36 59.36 0 0 0-7.62-.3zm-24.06-22a40.72 40.72 0 0 0 7.74.42h23a40.72 40.72 0 0 0 7.74-.42v7.32a56.52 56.52 0 0 0-7.62-.3H199a56.52 56.52 0 0 0-7.62.3zm95.82 12.34a43 43 0 0 0 7.8-.42v7.56a61.68 61.68 0 0 0-7.68-.3H275c-.54 8.34-1.56 12.3-4.32 16.92-3.3 5.46-7.5 9.18-15.3 13.44-2-3.42-2.94-4.5-5.46-6.48 7.2-3.12 11.76-6.84 14.46-11.82 1.8-3.24 2.46-5.94 2.94-12.06h-14.83a61.69 61.69 0 0 0-7.68.3v-7.56a43.39 43.39 0 0 0 7.8.42h15.12c.06-2.52.06-3.6.06-4.68v-3.54a37.8 37.8 0 0 0-.3-5.76h8.28a37.76 37.76 0 0 0-.3 5.76l-.06 3.6c-.06 4-.06 4-.06 4.62zm17.64 26.94a57.17 57.17 0 0 0 17.76-4.44 40.09 40.09 0 0 0 17.82-14.7 50.1 50.1 0 0 0 6.12-12 25.86 25.86 0 0 0 6.36 5.88c-5.1 11-10.8 18.06-19 23.52-6.12 4.08-13.56 7-22.86 9a21.25 21.25 0 0 0-4 1zm5.1-37.26c7.14 4.44 10.86 7.2 15.48 11.58l-5.16 6.54A63 63 0 0 0 305 218.21zm96.6 46.44a115.3 115.3 0 0 0-18.42-17.82 71.3 71.3 0 0 1-22.86 17.34 24.06 24.06 0 0 0-4.86-6.66 49.51 49.51 0 0 0 12-6.6 57.82 57.82 0 0 0 20.16-24.42l.66-1.56c-1 .06-1 .06-19.86.36a47.27 47.27 0 0 0-6.54.48l-.24-7.68a26.27 26.27 0 0 0 5.28.36h1.44l21.12-.3c3.36-.06 3.84-.12 5.34-.66l4 4.08a11.54 11.54 0 0 0-1.92 3.24 79.49 79.49 0 0 1-9.36 16.56 93.06 93.06 0 0 1 11.1 8.7c1.5 1.32 1.5 1.32 8.76 8.34zm34.62-45.42a6.9 6.9 0 0 0-.3 1.2l-.12 1-.3 1.74-.18 1.44c-2.52 17.22-7.2 29-15.24 38.28a26 26 0 0 0-6.84-5.16 40.41 40.41 0 0 0 8.58-12.79 73 73 0 0 0 5.64-20.58 44 44 0 0 0 .54-5.82v-.84zm17-1.5a74.31 74.31 0 0 0 2.52 13.8c2.94 11.1 7.14 19.2 13.38 25.92a24.71 24.71 0 0 0-6.6 5.52c-8-9.54-13.56-23.34-15.9-39.48a25.28 25.28 0 0 0-.84-4.32zm17 3.54a6.93 6.93 0 1 1-7-6.9 7 7 0 0 1 7.08 6.9zm-10.86 0a3.93 3.93 0 1 0 3.9-3.9 3.89 3.89 0 0 0-3.82 3.9zm25.67 6.9a69.23 69.23 0 0 1 5.88 14.22l-6.78 2.16a60.08 60.08 0 0 0-5.46-14.52zm34.44.42a12.67 12.67 0 0 0-.84 3.06c-1.74 8.16-4.44 14.76-8.28 20-4.44 6.06-9.42 10-18.3 14.46a21.77 21.77 0 0 0-4.8-5.94 38.92 38.92 0 0 0 10.2-5.52c7-5.1 11-11.22 13.62-20.82a26.6 26.6 0 0 0 1.08-6.9zm-21.66-2.88a59 59 0 0 1 5.82 13.8l-6.66 2.1a65.93 65.93 0 0 0-5.46-14.1zm79.47-1.44a11.3 11.3 0 0 0-1.5 3.6c-2.76 9.12-7 17.22-12.3 23.16-5.52 6.3-12.12 11-21.36 15.24A18.49 18.49 0 0 0 542 254c6-2.46 9.36-4.26 13.14-7.08 8.58-6.36 14.22-14.58 17.52-25.32l-18.06.3a58.7 58.7 0 0 1-14 15.36c-1.8-2.46-2.7-3.24-5.82-5.16 6.84-4.68 11.16-9.48 15.54-17.4 1.86-3.42 2.82-5.76 3.06-7.92l8.22 1.62a12.18 12.18 0 0 0-1 1.86 11.91 11.91 0 0 0-.78 1.68l-.78 1.56a14 14 0 0 1-1 1.92c.78-.06 1.74-.12 2.88-.12l13.14-.18a10.63 10.63 0 0 0 4.38-.6zm14.04 40.26c-.06-1.08-.12-1.44-.3-2.82a104.59 104.59 0 0 1-1.56-17.94 115.16 115.16 0 0 1 2.46-23.46 39.27 39.27 0 0 0 .9-5.58l7.92.84c-1.44 3.54-2.82 10.26-3.78 17.94a100.32 100.32 0 0 0-.9 13.26c0 1.32-.06 1.8-.12 3.3a61.25 61.25 0 0 1 3.12-7.92l4.8 2.16c-3.3 7-5.34 13.92-5.34 18.18 0 .36 0 .84.06 1.62zm25.56-23.7c-3 3.48-4.26 6.06-4.26 8.64 0 3.42 3.3 5.22 9.54 5.22a42.17 42.17 0 0 0 14.28-2.28l.6 7.62a20 20 0 0 0-2.46.36 74 74 0 0 1-12.42 1.14c-7.44 0-12.24-1.68-14.88-5.22a10.05 10.05 0 0 1-1.8-5.88c0-3.9 1.8-7.92 5.52-12.36zM612 215c2.7.72 5.88 1 11.1 1 6.66 0 12.36-.54 16.32-1.62l.36 7.26-4.26.54a107.46 107.46 0 0 1-12.84.72 71.23 71.23 0 0 1-10.8-.66zm38.59 5a42.88 42.88 0 0 0 7-1.2c13.68-2.94 16.92-3.42 23.88-3.42 11.88 0 19.62 6.66 19.62 16.86 0 8.16-4.8 15.06-13.32 19.2-5.46 2.7-10.14 3.78-21.12 5a26 26 0 0 0-3.06-7.74c9.6-.42 14.64-1.32 19.74-3.54 4.32-1.92 7.86-5.34 9.06-8.88a13.23 13.23 0 0 0 .66-4.26 8.79 8.79 0 0 0-4.56-7.8 15.64 15.64 0 0 0-7.74-1.62c-6.24 0-14 1.38-23.64 4.26a21.86 21.86 0 0 0-4.8 1.68zm70.62-7.37a69.79 69.79 0 0 0-.48 9.12 112.25 112.25 0 0 0 1.14 16.08c1 6.24 2.94 10.08 4.86 10.08.9 0 1.74-.9 2.46-2.58a44.26 44.26 0 0 0 3.18-10.86 29.59 29.59 0 0 0 6 5.46c-3.12 11.7-6.6 16.56-11.7 16.56-4 0-7.26-2.94-9.66-8.7-2.46-6-3.54-14.7-3.78-31.32a28.67 28.67 0 0 0-.24-3.84zm28.38 2.7c7.56 9.06 11.76 19.08 13.5 32.28l-7.44 2.82a60.85 60.85 0 0 0-3.84-17.34 52.36 52.36 0 0 0-8.52-14.76zm21.12-.33c1.32.06 2 .06 2.28.06 1.08 0 1.08 0 9.9-.6 3.36-.18 13.32-.72 29.94-1.5 4.92-.24 5.82-.3 6.9-.6l.42 7.68a9.28 9.28 0 0 0-1.26-.06 26.83 26.83 0 0 0-11.89 3.27c-7.62 4-12.12 10-12.12 16 0 4.68 2.94 8.28 8 9.78a36.42 36.42 0 0 0 8.94 1.56c.06 0 .6 0 1.2-.06l-1.08 8.16a12.72 12.72 0 0 0-2-.36c-6.6-.84-10.38-1.92-14-4a16.05 16.05 0 0 1-8.58-14.46 21.15 21.15 0 0 1 5.7-14.16 26.44 26.44 0 0 1 8.34-6c-4.86.72-7.2.9-20.22 1.86a87.1 87.1 0 0 0-10 1.2z"/><path class="cls-4" d="M852 441.89l-105.04 3.07L859.2 329.55 852 441.89z"/><path class="cls-3" d="M826.65 416.02h-12.62l12.62-12.61v12.61z"/><path class="cls-3" transform="rotate(-45 67.928 173.433)" d="M61.93 152.48h12v41.91h-12z"/><path class="cls-3" transform="rotate(-15 128.563 139.56)" d="M122.57 118.62h12v41.91h-12z"/><path class="cls-3" transform="rotate(-75 198.023 138.583)" d="M177.07 132.58h41.91v12h-41.91z"/></g></svg>