<svg xmlns="http://www.w3.org/2000/svg" viewBox="0 0 887.5 474.39"><defs><style>.cls-1{fill:none}.cls-2{clip-path:url(#clip-path)}.cls-3,.cls-6{fill:#fff}.cls-3{stroke:#b8d200;stroke-miterlimit:10;stroke-width:3px}.cls-4{fill:#b8d200}.cls-5{opacity:.4}.cls-7{fill:#323232}</style><clipPath id="clip-path"><path class="cls-1" d="M-1336.54 253.22h1242v480h-1242z"/></clipPath></defs><title>アートボード 6</title><g class="cls-2" id="service-05"><circle class="cls-3" cx="294.63" cy="456.63" r="64.88"/><path class="cls-4" d="M317.67 451.58v22.26h-8.76v-3.3h-28.86c-1.2 5.34-3.54 10.68-7.8 14.58a35.75 35.75 0 0 0-6.84-5.88c6.66-5.94 7.26-14.4 7.26-20.46v-7.2zm3.48-12.18h-22.26v2.4h19.44v7.26h-46.44v-7.26h18.18v-2.4h-22.14v-7.32h22.14v-4.26l10.62.54c-.06.72-.54 1.08-1.8 1.32v2.4h22.26zm-30.84 19.2h-9c0 1 0 2.34-.18 4.68h9.18zm18.6 4.68v-4.68h-10.14v4.68z"/><circle class="cls-3" cx="424.4" cy="456.63" r="64.88"/><path class="cls-4" d="M450.56 468.74h-9.84c3.48 5.64 7.74 7.62 13 9.12a19.93 19.93 0 0 0-5 7.2c-5.46-2.1-10-4.92-13.68-10.92-2.7 4.44-7.38 8.46-15.6 11a30.39 30.39 0 0 0-4.62-6.48c8.52-2.58 12.42-6.12 14.16-10h-10.34V451.4h11.7v-2.88h-6.6v-3.36a38.14 38.14 0 0 1-5 2.88 48.7 48.7 0 0 0-2.16-4.38V448h-4.92v1.92c1.56 2.1 5.64 8.46 6.48 9.9l-4.38 6.72c-.48-1.5-1.26-3.42-2.1-5.4v23.7h-8v-19.1a40.29 40.29 0 0 1-4.32 8.82 47.66 47.66 0 0 0-3.84-7.86c3.36-4.62 6.24-12.12 7.74-18.72h-6.36v-8h6.78v-12.16l9.78.54c-.06.6-.54 1-1.74 1.2v10.38h4.92v.12c5.64-2.88 11-7.86 13.56-12.12l9.48.3a1.52 1.52 0 0 1-1.2 1 38 38 0 0 0 15.66 11.22 48.88 48.88 0 0 0-4.44 7.74 35.64 35.64 0 0 1-4.56-2.64v2.94h-7v2.88h12.42zm-24.42-6.6h4.2v-4.2h-4.2zm13.62-20.7a36.84 36.84 0 0 1-5.58-6.12 34.91 34.91 0 0 1-5.64 6.12zm3 16.5h-4.62v4.2h4.62z"/><circle class="cls-3" cx="35.11" cy="456.63" r="64.88"/><path class="cls-4" d="M56.17 463.64l5.64 4.36a2.63 2.63 0 0 1-2 .36c-2 1.38-5.1 3.18-8 4.74a40.28 40.28 0 0 0 12 4 33.82 33.82 0 0 0-5.52 7.86c-13.44-3.12-20.94-10.08-25.86-21.24h-6v11.1c3.6-.42 7.32-.9 11-1.32l.3 7.14c-8.52 1.44-17.52 2.76-23.46 3.6a1.34 1.34 0 0 1-1.08 1L10 476.42c2.1-.18 4.62-.42 7.38-.72v-12.06H7.69V456h9.78v-26.32h38.64v7.08h-29.7v2h28v6.66h-28v1.92h28V454h-28v2h36.12v7.68zm-14.58 0a27 27 0 0 0 3.84 4.8 72.85 72.85 0 0 0 6.84-4.8z"/><circle class="cls-3" cx="164.87" cy="456.63" r="64.88"/><path class="cls-4" d="M192.47 451v8.52h-15.54V475c0 7.92-2.7 9.84-17.16 9.84a34.46 34.46 0 0 0-3-8.88c3.6.18 8.16.18 9.48.18s1.68-.3 1.68-1.32v-15.3h-30.54V451h30.54v-7.5l10.86.42c-.12.72-.54 1.14-1.86 1.38v5.7zm-44.7-8.4v7h-8.88v-15.18H160v-6.66l11.28.6c-.06.72-.6 1.14-1.92 1.32v4.74h21.48v15.18h-9.36v-7zm5.28 34c-1.38-3.42-5.22-8.58-8.64-12.3l7-4.44c3.48 3.42 7.56 8.22 9.24 11.76z"/></g><g id="レイヤー_20" data-name="レイヤー 20"><path class="cls-5" d="M860.5 450.39l-822 24-8.5-8.5L8.5 8.5 879 21l8.5 8.5-27 420.89z"/><path class="cls-4" d="M852 441.89l-822 24L0 0l879 21-27 420.89z"/><path class="cls-6" d="M118.79 250.3c.36 4.05.9 5.85 2.52 7.92 2.61 3.42 7.29 5.31 13.14 5.31 9 0 14.4-4 14.4-10.8a9.14 9.14 0 0 0-4.5-8.28c-2.7-1.44-3.24-1.53-15.66-4.41-6.75-1.53-10.35-3-13.59-5.49a17.71 17.71 0 0 1-6.93-14.55c0-12.51 10.08-20.61 25.56-20.61 10.26 0 18 3.15 22.41 9.09 2.25 3 3.33 5.67 4.41 10.44l-12.87 1.53c-.54-3.06-1.17-4.59-2.7-6.39-2.34-2.79-6.3-4.32-11.25-4.32-7.83 0-13.14 4-13.14 9.81 0 3.78 2 6.39 6.12 8.19 2 .81 2.7 1 12.69 3.24 7.11 1.53 11.43 3.24 14.67 5.49 5.13 3.78 7.47 8.73 7.47 15.48 0 6.39-2 11.61-5.67 15.3-4.77 4.59-11.88 6.84-21.51 6.84-7.38 0-14.58-1.8-18.9-4.68a21.19 21.19 0 0 1-7.92-10.26 30.76 30.76 0 0 1-1.71-7.47zm68.85 0c.36 4.05.9 5.85 2.52 7.92 2.61 3.42 7.29 5.31 13.14 5.31 9 0 14.4-4 14.4-10.8a9.14 9.14 0 0 0-4.5-8.28c-2.7-1.44-3.24-1.53-15.66-4.41-6.75-1.53-10.35-3-13.59-5.49A17.71 17.71 0 0 1 177 220c0-12.51 10.08-20.61 25.56-20.61 10.26 0 18 3.15 22.41 9.09 2.25 3 3.33 5.67 4.41 10.44l-12.87 1.53c-.54-3.06-1.17-4.59-2.7-6.39-2.34-2.79-6.3-4.32-11.25-4.32-7.83 0-13.14 4-13.14 9.81 0 3.78 2 6.39 6.12 8.19 2 .81 2.7 1 12.69 3.24 7.11 1.53 11.43 3.24 14.67 5.49 5.13 3.78 7.47 8.73 7.47 15.48 0 6.39-2 11.61-5.67 15.3-4.77 4.59-11.88 6.84-21.51 6.84-7.38 0-14.58-1.8-18.9-4.68a21.19 21.19 0 0 1-7.92-10.26 30.76 30.76 0 0 1-1.71-7.47zm64.44-7.56c0-3 0-5 .18-9.9a45.94 45.94 0 0 1-6.93 9.09A49.87 49.87 0 0 0 241 231a64.27 64.27 0 0 0 15.21-23.85 62.88 62.88 0 0 0 3.43-12.15l10.08 3.24a24.75 24.75 0 0 0-1.35 4 94.51 94.51 0 0 1-6.93 16.76v49.41a98 98 0 0 0 .45 10.44h-10.35a94.5 94.5 0 0 0 .54-10.53zm38.25-13.86h-9.54a84.07 84.07 0 0 0-9.18.36 80.33 80.33 0 0 0 .36-8.73v-13.14a73 73 0 0 0-.36-8.19 70.41 70.41 0 0 0 10 .45h28.71a73.75 73.75 0 0 0 9.9-.45 77.22 77.22 0 0 0-.36 8.73v12.78a73.07 73.07 0 0 0 .36 8.46 19.71 19.71 0 0 0-2.61-.09 19.17 19.17 0 0 1-2-.09c-1.71-.09-3.15-.09-4.32-.09h-11.42v7.38h15.75a84.83 84.83 0 0 0 9.81-.54v10.08a92.44 92.44 0 0 0-9.54-.54h-12.06a59.53 59.53 0 0 0 9.63 9.9 62.06 62.06 0 0 0 14.4 9.18 51.37 51.37 0 0 0-6 9.63c-6.39-4.32-8.28-5.76-11.43-8.55a52.39 52.39 0 0 1-10.8-12.78c.18 3 .27 7.2.27 9.63v8.37a62.94 62.94 0 0 0 .54 8.28h-10.65a64.28 64.28 0 0 0 .54-8.37v-8.46c0-.72.09-4 .18-9.54A51.84 51.84 0 0 1 279 266.5a64.2 64.2 0 0 1-10.8 8 30.25 30.25 0 0 0-6.12-8.91 70.33 70.33 0 0 0 15.48-10.8 57.08 57.08 0 0 0 8.64-9.54h-10.72a81.57 81.57 0 0 0-9.81.54v-10c2.88.27 5.76.45 9.81.45h14.85zm-8.91-8.82h28.8v-11.61h-28.8zm55.98-9.36a39.65 39.65 0 0 0 7.2.45h18.81a48.1 48.1 0 0 0 7.2-.36v9.27a40.7 40.7 0 0 0-6.84-.36H344.6a53.83 53.83 0 0 0-7.2.36zm2.52 68.3a67.25 67.25 0 0 0 .54-8.82v-13.31a42.31 42.31 0 0 0-.45-7.11 55.64 55.64 0 0 0 6.93.36h15a31.94 31.94 0 0 0 6-.27 56.93 56.93 0 0 0-.27 6.48v14.4a60.41 60.41 0 0 0 .27 7h-8.73v-3.06H349V279zm.36-80.91a55.62 55.62 0 0 0 7.47.36h13.14a56.24 56.24 0 0 0 7.56-.36v8.64a58 58 0 0 0-7.56-.36h-13.14a56.48 56.48 0 0 0-7.47.36zm.36 26.28a49.52 49.52 0 0 0 5.94.27h15.75a44.23 44.23 0 0 0 5.76-.27v8.37a51.46 51.46 0 0 0-5.76-.27h-15.75a50.56 50.56 0 0 0-5.94.27zm0 12.51a49.52 49.52 0 0 0 5.94.27h15.75a44.23 44.23 0 0 0 5.76-.27v8.37a37.53 37.53 0 0 0-5.94-.27h-15.66a49.91 49.91 0 0 0-5.85.27zm8.36 29.89h10.26v-8.91H349zm44-58h-10.15a82.58 82.58 0 0 0-10.35.54v-10.22a79.68 79.68 0 0 0 10.35.54h26.73a79.68 79.68 0 0 0 10.35-.54v10.17a80 80 0 0 0-10.26-.54h-7.29v22h7.38a46.71 46.71 0 0 0 8.82-.54v10.17a47.29 47.29 0 0 0-8.82-.54h-7.38v26.46H411a82.5 82.5 0 0 0 10-.54V276a81.53 81.53 0 0 0-10.17-.54h-30.5a71.55 71.55 0 0 0-10.08.54v-10.13a32.79 32.79 0 0 0 5.58.36v-34.56a62.14 62.14 0 0 0-.54-9.9h10.26a57 57 0 0 0-.54 9.9v34.56h8zm46.46 65.56c-.09-1.62-.18-2.16-.45-4.23a157 157 0 0 1-2.34-26.91 172.77 172.77 0 0 1 3.69-35.19 58.91 58.91 0 0 0 1.35-8.37l11.88 1.26c-2.16 5.31-4.23 15.39-5.67 26.91a150.33 150.33 0 0 0-1.35 19.89c0 2-.09 2.7-.18 4.95 1-3.15 1.17-3.78 4.68-11.88l7.2 3.24c-4.95 10.44-8 20.88-8 27.27 0 .54 0 1.26.09 2.43zm38.34-35.55c-4.5 5.22-6.39 9.09-6.39 13 0 5.13 4.95 7.83 14.31 7.83 7.92 0 15.75-1.26 21.42-3.42l.9 11.43a30.11 30.11 0 0 0-3.69.54 111 111 0 0 1-18.63 1.71c-11.16 0-18.36-2.52-22.32-7.83a15.08 15.08 0 0 1-2.7-8.82c0-5.85 2.7-11.88 8.28-18.54zM463 209c4 1.08 8.82 1.44 16.65 1.44 10 0 18.54-.81 24.48-2.43l.54 10.89-6.39.81a161.2 161.2 0 0 1-19.28 1.07c-6.57 0-6.66 0-16.2-1zm57.91 7.46a64.35 64.35 0 0 0 10.53-1.8c20.52-4.41 25.38-5.13 35.82-5.13 17.82 0 29.43 10 29.43 25.29 0 12.24-7.2 22.59-20 28.8-8.19 4-15.21 5.67-31.68 7.47a39 39 0 0 0-4.59-11.61c14.4-.63 22-2 29.61-5.31 6.48-2.88 11.79-8 13.59-13.32a19.85 19.85 0 0 0 1-6.39 13.18 13.18 0 0 0-6.84-11.7c-2.88-1.62-6.66-2.43-11.61-2.43-9.36 0-21 2.07-35.46 6.39-4.59 1.35-5.31 1.53-7.2 2.52zm105.94-11.07a104.68 104.68 0 0 0-.72 13.68 168.37 168.37 0 0 0 1.71 24.12c1.53 9.36 4.41 15.12 7.29 15.12 1.35 0 2.61-1.35 3.69-3.87a66.35 66.35 0 0 0 4.77-16.29 44.42 44.42 0 0 0 9 8.19c-4.68 17.55-9.9 24.84-17.55 24.84-6 0-10.89-4.41-14.49-13-3.69-9-5.31-22-5.67-47a43 43 0 0 0-.36-5.76zm42.57 4c11.34 13.59 17.64 28.62 20.25 48.42l-11.16 4.23a91.24 91.24 0 0 0-5.76-26 78.56 78.56 0 0 0-12.75-22.1zm31.68-.39c2 .09 3 .09 3.42.09 1.62 0 1.62 0 14.85-.9 5-.27 20-1.08 44.91-2.25 7.38-.36 8.73-.45 10.35-.9l.63 11.52a14 14 0 0 0-1.89-.09 40.25 40.25 0 0 0-17.82 4.86c-11.43 5.94-18.18 14.94-18.18 24 0 7 4.41 12.42 12 14.67a54.62 54.62 0 0 0 13.41 2.34c.09 0 .9 0 1.8-.09l-1.62 12.24a19.1 19.1 0 0 0-3.06-.54c-9.9-1.26-15.57-2.88-21.06-5.94-8.28-4.68-12.87-12.33-12.87-21.69a31.73 31.73 0 0 1 8.55-21.24c3.42-3.69 6.66-6 12.51-9-7.29 1.08-10.8 1.35-30.33 2.79a130.68 130.68 0 0 0-14.94 1.8z"/><path class="cls-7" d="M852 441.89l-105.04 3.07L859.2 329.55 852 441.89z"/><path class="cls-6" d="M826.65 416.02h-12.62l12.62-12.61v12.61z"/><path class="cls-6" transform="rotate(-45 67.929 167.013)" d="M61.93 146.06h12v41.91h-12z"/><path class="cls-6" transform="rotate(-15 128.558 133.145)" d="M122.57 112.2h12v41.91h-12z"/><path class="cls-6" transform="rotate(-75 198.026 132.156)" d="M177.07 126.15h41.91v12h-41.91z"/></g></svg>