<svg xmlns="http://www.w3.org/2000/svg" viewBox="0 0 190.38 34.02"><defs><style>.cls-1{fill:#fff;}.cls-2{fill:none;stroke:#fff;stroke-miterlimit:10;}.cls-3{fill:#b8d200;}</style></defs><title>アセット 5</title><g id="レイヤー_2" data-name="レイヤー 2"><g id="main_SERVICE1"><path class="cls-1" d="M57.62,10.83c0-2.81-.21-5.58-3.45-5.58-2,0-3.23.79-3.23,2.94,0,2.39,1.51,3.32,3.36,4.49a54.29,54.29,0,0,1,7.14,5.17,8.2,8.2,0,0,1,2.65,6.59c0,6-4,9.08-9.71,9.08-7.06,0-9.58-4-9.58-9.58V21.63h5.89v1.85c-.13,3.06.79,5.29,3.69,5.29,2.48,0,3.66-1.3,3.66-3.7a4.76,4.76,0,0,0-2.36-4.15c-3.06-2.4-6.89-4.12-9.28-7.27a8.72,8.72,0,0,1-1.51-4.83c0-5.38,3-8.32,9.24-8.32,9.37,0,9.12,7.23,9.16,10.33Z"/><path class="cls-2" d="M68.79,32.76V1.26H85.34V5.88H74.67v7.94H84.5v4.62H74.67v9.7H85.34v4.62Z"/><path class="cls-1" d="M95.75,19.19V32.76H89.87V1.26H101c5.08,0,9,1.76,9,7.56,0,3.44-.88,7.06-4.83,7.6v.08c3.49.47,4.53,2.69,4.53,5.72,0,1.3-.16,9,1.27,10v.59h-6.47c-.72-2-.59-5.88-.63-8,0-1.93,0-4.58-2-5.17a18.13,18.13,0,0,0-5-.42Zm0-4.62h4.62c1.93-.12,3.45-1.38,3.45-4.53,0-3.53-1.47-4.12-3.7-4.16H95.75Z"/><path class="cls-2" d="M129,1.26h6.3l-6.8,31.5h-7.86l-7-31.5h6.3l3.7,20.2a53.47,53.47,0,0,1,.71,5.38,24.35,24.35,0,0,1,.26,2.6h.08c0-.88.17-1.76.25-2.6.17-1.81.38-3.61.72-5.38Z"/><path class="cls-1" d="M139.85,32.76V1.26h5.88v31.5Z"/><path class="cls-2" d="M170.13,21.55c0,.58-.08,1.21-.12,1.8-.3,5.76-2.23,10.17-8.78,10.17-9.66,0-10.29-6.14-10.29-14.54V14.49c.25-8,.88-14,10.29-14,5.25.08,8.19,2.77,8.61,8.15A16,16,0,0,1,170,11h-5.8c-.25-2,0-5.79-2.94-5.79-4.62,0-4.24,5.5-4.24,7.94v8.73c0,2.61.21,6.85,4.24,6.85,3.23,0,2.86-5.21,3-7.22Z"/><path class="cls-1" d="M173.83,32.76V1.26h16.55V5.88H179.71v7.94h9.83v4.62h-9.83v9.7h10.67v4.62Z"/><circle class="cls-1" cx="16.28" cy="17.15" r="16.28" transform="translate(-7.36 16.54) rotate(-45)"/><path class="cls-3" d="M16.29,13.55a4.32,4.32,0,0,1,4.26-3.23,4.06,4.06,0,0,1,4,4.18c0,2.75-1.5,4.79-3,6.66s-4.45,4.92-5.21,5.68h0c-.76-.76-3.7-3.89-5.19-5.68S8,17.25,8,14.5a4.08,4.08,0,0,1,4-4.18,4.29,4.29,0,0,1,4.22,3.23Z"/></g></g></svg>