<svg xmlns="http://www.w3.org/2000/svg" width="326.854" height="62.888" viewBox="0 0 326.854 62.888"><defs><style>.cls-1{fill:#fff;}</style></defs><title>アートボード 20</title><g id="footer"><path class="cls-1" d="M0,61.444v-60H22.881c5.232,0,9.793,2.428,12.073,7.228A24.592,24.592,0,0,1,36.31,23.993a15.08,15.08,0,0,1-5.029,8.73c-3.52,2.8-8.24,3.68-12.56,3.6H11.2v25.12ZM11.2,27.523h6a9.058,9.058,0,0,0,5-1.209,7.046,7.046,0,0,0,2.823-4.554c.7-3.2.977-8.74-2.477-10.561-1.855-.978-4.182-.957-6.221-.957H11.2Z"/><path class="cls-1" d="M39.76,61.444l14.32-60H69.2l13.6,60h-12l-2.96-15.2H54.72l-2.96,15.2Zm16.72-24h9.6L63.041,20.4c-.56-2.8-.8-5.521-1.12-8.32-.08-1.359-.24-2.72-.4-4h-.16c-.16,1.28-.32,2.641-.4,4-.32,2.8-.56,5.521-1.12,8.32Z"/><path class="cls-1" d="M91.12,26.644C91.6,11.363,92.8,0,110.721,0c9.6.08,16.241,2.56,18.8,12.96a37.194,37.194,0,0,1,.561,7.28h-11.2c-.16-6.08-.561-10.88-8.161-11.2-8.8,0-8.08,10.48-8.08,15.12V40.8c0,4.03.148,9.571,3.992,11.983a7.863,7.863,0,0,0,6.937.511,8.159,8.159,0,0,0,4.187-5.042A28.539,28.539,0,0,0,118.961,38H111.2V29.2h18.641V61.444h-8.4v-6.88h-.16c-2.24,6.24-6.479,8-10.56,8.32-18.4,0-19.6-11.681-19.6-27.681Z"/><path class="cls-1" d="M140.72,61.444v-60h31.521v8.8H151.92v15.12h18.721v8.8H151.92v18.48h20.32v8.8Z"/><path class="cls-1" d="M196.96,1.443h37.36v8.8h-13.04v51.2h-11.2v-51.2H196.96Z"/><path class="cls-1" d="M240.48,26.644c.279-8.886.293-21.071,10.019-25.066A23.953,23.953,0,0,1,258.891.02a29.39,29.39,0,0,1,8.939.926,14.065,14.065,0,0,1,9.428,8.417c2.194,5.39,2.243,11.552,2.423,17.281V35.2c0,9.161.286,21.948-9.833,26.083a24.413,24.413,0,0,1-8.442,1.576,30.07,30.07,0,0,1-9.274-.948,14.169,14.169,0,0,1-9.594-8.73c-2.171-5.631-2.059-12.041-2.059-17.981ZM252,40.8c0,4.1.169,9.852,4.255,12.14a8.459,8.459,0,0,0,7.484.131,7.7,7.7,0,0,0,3.722-5.157,31.215,31.215,0,0,0,.7-8.074V24.483c0-4.547.255-11.044-3.8-14.121a7.829,7.829,0,0,0-8.073-.447c-2.28,1.246-3.353,3.747-3.842,6.182A40.731,40.731,0,0,0,252,24.163Z"/><path class="cls-1" d="M289.919,61.444v-60H312.8c5.232,0,9.794,2.428,12.073,7.228a24.589,24.589,0,0,1,1.356,15.322,15.081,15.081,0,0,1-5.029,8.73c-3.52,2.8-8.24,3.68-12.561,3.6h-7.52v25.12Zm11.2-33.921h6a9.058,9.058,0,0,0,5-1.209,7.046,7.046,0,0,0,2.823-4.554c.7-3.2.977-8.74-2.477-10.561-1.855-.978-4.182-.957-6.221-.957h-5.12Z"/></g></svg>