<svg xmlns="http://www.w3.org/2000/svg" width="292.078" height="45.635" viewBox="0 0 292.078 45.635"><defs><style>.cls-1{fill:#323232}.cls-2{fill:#fff}</style></defs><title>アートボード 5</title><g id="main_base"><path class="cls-1" d="M95.718 29.088c-.058.813-.116 1.684-.174 2.5-.406 7.954-3.077 14.051-12.135 14.051-13.354 0-14.225-8.477-14.225-20.089v-6.216C69.533 8.244 70.4 0 83.41 0c7.257.116 11.322 3.832 11.9 11.264a21.062 21.062 0 0 1 .174 3.309h-8.01c-.348-2.787-.058-8.012-4.064-8.012-6.387 0-5.864 7.606-5.864 10.973V29.61c0 3.6.29 9.464 5.864 9.464 4.47 0 3.948-7.2 4.122-9.986zm7.258-9.754C103.324 8.244 104.2 0 117.2 0s13.876 8.244 14.225 19.334v6.212c0 11.612-.871 20.089-14.225 20.089s-14.225-8.477-14.225-20.089zm8.361 10.276c0 3.6.29 9.464 5.864 9.464 5.806 0 5.864-5.98 5.864-10.16V17.766c0-3.484.174-11.206-5.864-11.206-6.387 0-5.864 7.606-5.864 10.973zm45.809-28.565h8.128V44.59H156.8l-6.329-15.5a146.458 146.458 0 0 1-5.806-17.3h-.116c.29 3.6.639 8.012.871 12.425.232 4.354.406 8.709.406 12.192v8.183H137.7V1.045h8.419l6.329 15.85a146.026 146.026 0 0 1 5.806 17.3h.116c-.29-3.948-.581-8.187-.813-12.367s-.406-8.36-.406-12.25zm14.225 0h27.114v6.387h-9.464V44.59h-8.128V7.432h-9.522zm27.404 43.545l10.393-43.545h10.973l9.87 43.545H221.3l-2.148-11.031h-9.522l-2.146 11.031zm12.135-17.418h6.967l-2.206-12.367c-.406-2.032-.581-4.006-.813-6.038a44.394 44.394 0 0 0-.29-2.9h-.116a44.816 44.816 0 0 0-.29 2.9c-.232 2.032-.406 4.006-.813 6.038zm49.351 1.916c-.058.813-.116 1.684-.174 2.5-.406 7.954-3.077 14.051-12.135 14.051-13.354 0-14.225-8.477-14.225-20.089v-6.216C234.076 8.244 234.947 0 247.953 0c7.257.116 11.322 3.832 11.9 11.264a21.062 21.062 0 0 1 .174 3.309h-8.012c-.348-2.787-.058-8.012-4.064-8.012-6.387 0-5.864 7.606-5.864 10.973V29.61c0 3.6.29 9.464 5.864 9.464 4.47 0 3.948-7.2 4.122-9.986zm4.704-28.043h27.114v6.387h-9.464V44.59h-8.128V7.432h-9.522zm-228.886.542H17.351a17.351 17.351 0 1 0 0 34.7h5.782c-.686 5.085-5.672 8.1-5.672 8.1s9.254 0 12.724-5.784a11.384 11.384 0 0 0 1.01-2.313h4.884a17.351 17.351 0 0 0 0-34.7z"/><circle class="cls-2" cx="37.126" cy="18.938" r="2.313"/><circle class="cls-2" cx="26.715" cy="18.938" r="2.313"/><circle class="cls-2" cx="16.304" cy="18.938" r="2.313"/></g></svg>