<svg xmlns="http://www.w3.org/2000/svg" viewBox="0 0 207 45.6"><style>.st0,.st1{fill:#fff}.st1{opacity:.85}.st2{clip-path:url(#SVGID_2_)}.st3{opacity:.65;fill:#323232}.st4,.st5{fill:#a47359}.st5{stroke:#fff;stroke-width:1.7156;stroke-miterlimit:10}.st6{fill:#dfeb8c}.st7{fill:#b8d200}.st8{fill:#e9f1b2}.st9{fill:#c2d926}.st10{fill:none;stroke:#b8d200;stroke-width:6;stroke-linecap:round;stroke-linejoin:round;stroke-miterlimit:10}.st11{fill:#2878f5}.st12{fill:#ff003c}.st13,.st14{fill:none;stroke:#fff;stroke-width:4;stroke-miterlimit:10}.st14{stroke-width:4.5}.st15{display:none}.st16{display:inline}.st17,.st18{fill:none;stroke:#fff;stroke-width:2;stroke-miterlimit:10}.st18{stroke-width:2.8}.st19{clip-path:url(#SVGID_4_)}.st20{fill:#323232}.st21,.st22,.st23{fill:none;stroke:#b8d200;stroke-width:3;stroke-miterlimit:10}.st22,.st23{fill:#fff;stroke:#2878f5;stroke-width:20}.st23{stroke:#b8d200;stroke-width:3}.st24,.st25,.st26{display:inline;fill:#323232}.st25,.st26{fill:none;stroke:#b8d200;stroke-width:3;stroke-miterlimit:10}.st26{fill:#fff;stroke:#2878f5;stroke-width:20}.st27,.st28{display:inline;fill:#2878f5}.st28{fill:#fff;stroke:#b8d200;stroke-width:3;stroke-miterlimit:10}.st29{fill:#dbe87f}.st30,.st31{fill:none;stroke:#b8d200;stroke-width:2.4;stroke-miterlimit:10}.st31{stroke:#323232;stroke-width:2;stroke-linecap:round}.st32{fill-rule:evenodd;clip-rule:evenodd;fill:#fff}.st33{fill:#fff;stroke:#b8d200;stroke-width:5.616;stroke-linecap:round;stroke-linejoin:round;stroke-miterlimit:10}.st34{clip-path:url(#SVGID_18_)}.st35{clip-path:url(#SVGID_20_);fill:#a0be00}.st36{fill:none;stroke:#fff;stroke-width:6;stroke-linecap:round;stroke-linejoin:round;stroke-miterlimit:10}</style><path class="st7" d="M17.7 14.3c.1-3.9-.3-7.7-4.8-7.7-2.7 0-4.5 1.1-4.5 4.1 0 3.3 2.1 4.6 4.6 6.2 2.7 1.7 7.6 4.9 9.9 7.1 2.8 2.7 3.7 5.3 3.7 9.1 0 8.2-5.5 12.5-13.4 12.5C3.5 45.6 0 40.2 0 32.4v-3.2h8.1v2.6c-.1 4.2 1.1 7.3 5.1 7.3 3.4 0 5.1-1.8 5.1-5.1 0-2.6-1.2-4.3-3.3-5.7-4.2-3.3-9.5-5.7-12.8-10-1.3-2-2.1-4.4-2.1-6.7C.1 4.1 4.3 0 12.9 0c12.9 0 12.6 10 12.7 14.3h-7.9zm15.5 30.3V1H56v6.4H41.3v11h13.6v6.4H41.3v13.4H56v6.4H33.2zm39.5-18.8v18.8h-8.1V1H80c7 0 12.4 2.4 12.4 10.5 0 4.8-1.2 9.8-6.7 10.5v.1c4.8.6 6.3 3.7 6.3 7.9 0 1.8-.2 12.5 1.7 13.8v.8h-8.9c-1-2.8-.8-8.1-.9-11-.1-2.7 0-6.3-2.8-7.1-2.2-.6-4.6-.6-6.9-.6h-1.5zm0-6.4h6.4c2.7-.2 4.8-1.9 4.8-6.3 0-4.9-2-5.7-5.1-5.7h-6v12zM119.8 1h8.7l-9.4 43.5h-10.9L98.6 1h8.7l5.1 27.9c.5 2.4.8 4.9 1 7.4.1 1.2.3 2.4.3 3.6h.1c0-1.2.2-2.4.3-3.6.2-2.5.5-5 1-7.4L119.8 1zm15.1 43.6V1h8.1v43.5h-8.1zm43-15.5c-.1.8-.1 1.7-.2 2.5-.4 8-3.1 14.1-12.1 14.1-13.4 0-14.2-8.5-14.2-20.1v-6.2C151.7 8.2 152.6 0 165.6 0c7.3.1 11.3 3.8 11.9 11.3.1 1.1.2 2.2.2 3.3h-8c-.3-2.8-.1-8-4.1-8-6.4 0-5.9 7.6-5.9 11v12.1c0 3.6.3 9.5 5.9 9.5 4.5 0 3.9-7.2 4.1-10h8.2zm6.3 15.5V1H207v6.4h-14.7v11h13.6v6.4h-13.6v13.4H207v6.4h-22.8z" id="greeting"/></svg>