<svg xmlns="http://www.w3.org/2000/svg" viewBox="0 0 241.4 45.6"><style>.st0,.st1{fill:#fff}.st1{opacity:.85}.st2{clip-path:url(#SVGID_2_)}.st3{opacity:.65;fill:#323232}.st4,.st5{fill:#a47359}.st5{stroke:#fff;stroke-width:1.7156;stroke-miterlimit:10}.st6{fill:#dfeb8c}.st7{fill:#b8d200}.st8{fill:#e9f1b2}.st9{fill:#c2d926}.st10{fill:none;stroke:#b8d200;stroke-width:6;stroke-linecap:round;stroke-linejoin:round;stroke-miterlimit:10}.st11{fill:#2878f5}.st12{fill:#ff003c}.st13,.st14{fill:none;stroke:#fff;stroke-width:4;stroke-miterlimit:10}.st14{stroke-width:4.5}.st15{display:none}.st16{display:inline}.st17,.st18{fill:none;stroke:#fff;stroke-width:2;stroke-miterlimit:10}.st18{stroke-width:2.8}.st19{clip-path:url(#SVGID_4_)}.st20{fill:#323232}.st21,.st22,.st23{fill:none;stroke:#b8d200;stroke-width:3;stroke-miterlimit:10}.st22,.st23{fill:#fff;stroke:#2878f5;stroke-width:20}.st23{stroke:#b8d200;stroke-width:3}.st24,.st25,.st26{display:inline;fill:#323232}.st25,.st26{fill:none;stroke:#b8d200;stroke-width:3;stroke-miterlimit:10}.st26{fill:#fff;stroke:#2878f5;stroke-width:20}.st27,.st28{display:inline;fill:#2878f5}.st28{fill:#fff;stroke:#b8d200;stroke-width:3;stroke-miterlimit:10}.st29{fill:#dbe87f}.st30,.st31{fill:none;stroke:#b8d200;stroke-width:2.4;stroke-miterlimit:10}.st31{stroke:#323232;stroke-width:2;stroke-linecap:round}.st32{fill-rule:evenodd;clip-rule:evenodd;fill:#fff}.st33{fill:#fff;stroke:#b8d200;stroke-width:5.616;stroke-linecap:round;stroke-linejoin:round;stroke-miterlimit:10}.st34{clip-path:url(#SVGID_18_)}.st35{clip-path:url(#SVGID_20_);fill:#a0be00}.st36{fill:none;stroke:#fff;stroke-width:6;stroke-linecap:round;stroke-linejoin:round;stroke-miterlimit:10}</style><path class="st7" d="M0 19.3C.3 8.2 1.2 0 14.2 0c7 .1 11.8 1.9 13.6 9.4.4 1.7.3 3.5.4 5.3h-8.1c-.1-4.4-.4-7.9-5.9-8.1-6.4 0-5.9 7.6-5.9 11v12.1c0 3.6.3 9.5 5.9 9.5 4.6 0 6.2-4.9 6-11.5h-5.6v-6.4h13.5v23.4H22v-5h-.1c-1.6 4.5-4.7 5.8-7.7 6C.9 45.6 0 37.2 0 25.5v-6.2zm44.2 6.5v18.8h-8.1V1h15.4c7 0 12.4 2.4 12.4 10.5 0 4.8-1.2 9.8-6.7 10.5v.1c4.8.6 6.3 3.7 6.3 7.9 0 1.8-.2 12.5 1.7 13.8v.8h-8.9c-1-2.8-.8-8.1-.9-11-.1-2.7 0-6.3-2.8-7.1-2.2-.6-4.6-.6-6.9-.6h-1.5zm0-6.4h6.4c2.7-.2 4.8-1.9 4.8-6.3 0-4.9-2-5.7-5.1-5.7h-6v12zm27.3 25.2V1h22.9v6.4H79.6v11h13.6v6.4H79.6v13.4h14.7v6.4H71.5zm29 0V1h22.9v6.4h-14.7v11h13.6v6.4h-13.6v13.4h14.7v6.4h-22.9zM129.1 1h27.1v6.4h-9.5v37.2h-8.1V7.4h-9.5V1zm33.2 43.6V1h8.1v43.5h-8.1zM199 1h8.1v43.5h-8.5L192.3 29c-2.1-5.2-3.9-10.5-5.8-17.3h-.1c.3 3.6.6 8 .9 12.4.2 4.4.4 8.7.4 12.2v8.2h-8.1V1h8.4l6.3 15.9c2.1 5.1 3.8 10.2 5.8 17.3h.1c-.3-3.9-.6-8.2-.8-12.4-.2-4.2-.4-8.4-.4-12.3V1zm14.1 18.3C213.5 8.2 214.4 0 227.4 0c7 .1 11.8 1.9 13.6 9.4.4 1.7.3 3.5.4 5.3h-8.1c-.1-4.4-.4-7.9-5.9-8.1-6.4 0-5.9 7.6-5.9 11v12.1c0 3.6.3 9.5 5.9 9.5 4.6 0 6.2-4.9 6-11.5h-5.6v-6.4h13.5v23.4h-6.1v-5h-.2c-1.6 4.5-4.7 5.8-7.7 6-13.4 0-14.2-8.5-14.2-20.1v-6.3z" id="greeting"/></svg>