<svg xmlns="http://www.w3.org/2000/svg" viewBox="0 0 819.71 72.5"><defs><style>.cls-1{fill:#fff;}.cls-2{fill:none;}</style></defs><title>tit_togane</title><g id="レイヤー_2" data-name="レイヤー 2"><g id="main_SHOP1"><path class="cls-1" d="M0,1.49H38.67V10.6H25.17v53H13.58v-53H0Z"/><path class="cls-1" d="M45,27.57C45.54,11.76,46.78,0,65.33,0S85.12,11.76,85.61,27.57v8.86c0,16.56-1.24,28.65-20.29,28.65S45,53,45,36.43ZM57,42.23c0,5.13.41,13.5,8.36,13.5,8.28,0,8.36-8.53,8.36-14.49V25.34c0-5,.25-16-8.36-16C56.22,9.36,57,20.2,57,25Z"/><path class="cls-1" d="M95.14,27.57C95.63,11.76,96.88,0,115.42,0c9.94.08,16.81,2.65,19.46,13.41a38.49,38.49,0,0,1,.58,7.53H123.87c-.17-6.29-.58-11.26-8.45-11.59-9.11,0-8.36,10.85-8.36,15.65V42.23c0,5.13.41,13.5,8.36,13.5,6.62,0,8.78-7,8.53-16.39h-8V30.22h19.29V63.59h-8.69V56.47h-.17c-2.32,6.46-6.71,8.28-10.93,8.61-19,0-20.28-12.09-20.28-28.65Z"/><path class="cls-1" d="M143.57,63.59l14.82-62.1H174l14.08,62.1H175.7l-3.06-15.73H159.06L156,63.59Zm17.3-24.84h9.94l-3.15-17.64c-.58-2.9-.83-5.71-1.16-8.61-.08-1.41-.25-2.82-.41-4.14h-.17c-.17,1.32-.33,2.73-.41,4.14-.33,2.9-.58,5.71-1.16,8.61Z"/><path class="cls-1" d="M223.89,1.49h11.59v62.1H223.39l-9-22.11a208.85,208.85,0,0,1-8.28-24.67h-.17c.41,5.13.91,11.43,1.24,17.72s.58,12.42.58,17.39V63.59H196.15V1.49h12l9,22.6a208.35,208.35,0,0,1,8.28,24.67h.17c-.41-5.63-.83-11.67-1.16-17.64s-.58-11.92-.58-17.47Z"/><path class="cls-1" d="M246.41,63.59V1.49H279V10.6H258V26.25h19.37v9.11H258V54.48h21v9.11Z"/><rect class="cls-2" y="1.13" width="819.71" height="71.37"/></g></g></svg>