<svg xmlns="http://www.w3.org/2000/svg" viewBox="0 0 819.71 72.5"><defs><style>.cls-1{fill:#fff;}.cls-2{fill:none;}</style></defs><title>tit_mobara</title><g id="レイヤー_2" data-name="レイヤー 2"><g id="main_SHOP1"><path class="cls-1" d="M11.59,63.59H0V1.49H18.46L24.67,30.3a139,139,0,0,1,2.15,14.32H27A135.72,135.72,0,0,1,28.81,30.3L35,1.49H53.4v62.1H41.81V44c0-12.34.25-24.67,1-37h-.17L30.22,63.59h-7L11,7H10.6c.75,12.34,1,24.67,1,37Z"/><path class="cls-1" d="M62.27,27.57C62.76,11.76,64,0,82.55,0s19.79,11.76,20.29,27.57v8.86c0,16.56-1.24,28.65-20.29,28.65S62.27,53,62.27,36.43ZM74.19,42.23c0,5.13.41,13.5,8.36,13.5,8.28,0,8.36-8.53,8.36-14.49V25.33c0-5,.25-16-8.36-16-9.11,0-8.36,10.85-8.36,15.65Z"/><path class="cls-1" d="M113.19,63.59V1.49H131.9c5,0,9.85.33,13.16,4.55,2.65,3.39,3.06,7,3.06,11.18,0,5.38-1.16,10.68-7.45,13v.17c6.54.91,9,6.38,9,14.41a29.45,29.45,0,0,1-.83,7.62c-2.48,7.87-7,11.18-15.23,11.18Zm13.74-37c2.82,0,6.46.17,8.28-2.15,1.08-1.57,1.24-3.72,1.24-6.71,0-4.64-1-7-6.29-7.12h-5.38v16Zm.33,27.9c2.4,0,4.89.25,7-.66,3.15-1.41,3.56-5.46,3.56-8.61,0-6.71-1.33-9.52-8.53-9.52h-4.47V54.48Z"/><path class="cls-1" d="M154.59,63.59l14.82-62.1h15.65l14.08,62.1H186.71l-3.06-15.73H170.07L167,63.59Zm17.3-24.84h9.94l-3.15-17.64c-.58-2.9-.83-5.71-1.16-8.61-.08-1.41-.25-2.82-.41-4.14h-.17c-.17,1.33-.33,2.73-.41,4.14-.33,2.9-.58,5.71-1.16,8.61Z"/><path class="cls-1" d="M218.59,36.84V63.59H207V1.49h21.94c10,0,17.64,3.48,17.64,14.9,0,6.79-1.74,13.91-9.52,15v.17c6.87.91,8.94,5.3,8.94,11.26,0,2.57-.33,17.8,2.48,19.62v1.16H235.73c-1.41-4-1.16-11.59-1.24-15.73-.08-3.81,0-9-4-10.18-3.15-.91-6.54-.83-9.85-.83Zm0-9.11h9.11c3.81-.25,6.79-2.73,6.79-8.94,0-7-2.9-8.12-7.29-8.2h-8.61Z"/><path class="cls-1" d="M254.53,63.59l14.82-62.1H285l14.08,62.1H286.65l-3.06-15.73H270l-3.06,15.73Zm17.3-24.84h9.94l-3.15-17.64c-.58-2.9-.83-5.71-1.16-8.61-.08-1.41-.25-2.82-.41-4.14h-.17c-.17,1.33-.33,2.73-.41,4.14-.33,2.9-.58,5.71-1.16,8.61Z"/><rect class="cls-2" y="1.13" width="819.71" height="71.37"/></g></g></svg>