<svg xmlns="http://www.w3.org/2000/svg" viewBox="0 0 164.55 97.86"><defs><style>.cls-1{fill:none;stroke:#b8d200;stroke-miterlimit:10;stroke-width:4.5px;}.cls-2{fill:#b8d200;}.cls-3{fill:#fff;}</style></defs><title>アセット 17</title><g id="レイヤー_2" data-name="レイヤー 2"><g id="main_SHOP1_1"><polyline class="cls-1" points="2.25 35.59 2.25 2.25 35.59 2.25"/><polyline class="cls-1" points="128.96 2.25 162.3 2.25 162.3 35.59"/><polyline class="cls-1" points="2.25 62.27 2.25 95.61 35.59 95.61"/><polyline class="cls-1" points="128.96 95.61 162.3 95.61 162.3 62.27"/><rect class="cls-2" x="15.59" y="15.59" width="133.38" height="66.69"/><path class="cls-3" d="M46.9,67.4H40.36v-35H50.77l3.5,16.24a78.24,78.24,0,0,1,1.21,8.08h.09a76.52,76.52,0,0,1,1-8.08l3.5-16.24H70.47v35H63.93v-11c0-7,.14-13.91.56-20.86H64.4l-7,31.88h-4L46.57,35.52h-.23c.42,7,.56,13.91.56,20.86Z"/><path class="cls-3" d="M74.91,67.4l8.36-35h8.82l7.93,35H93l-1.73-8.87H83.63L81.91,67.4Zm9.76-14h5.6l-1.77-9.94c-.33-1.63-.47-3.22-.65-4.85,0-.79-.14-1.59-.23-2.33h-.09c-.09.75-.19,1.54-.23,2.33-.19,1.63-.33,3.22-.65,4.85Z"/><path class="cls-3" d="M104.55,67.4v-35H117.9c6.25,0,8.17,5,8.17,9.94,0,3-.79,6.35-3.27,8.31a11.44,11.44,0,0,1-7.33,2.1h-4.39V67.4Zm6.54-19.79h3.5c2.85,0,4.76-1.21,4.76-5.46,0-4-1.59-4.62-5.27-4.62h-3Z"/></g></g></svg>