<svg xmlns="http://www.w3.org/2000/svg" viewBox="0 0 152.29 36.39"><defs><style>.cls-1{fill:#fff;}.cls-2,.cls-4{fill:none;stroke-miterlimit:10;}.cls-2{stroke:#fff;stroke-width:1.1px;}.cls-3{fill:#ff7900;}.cls-4{stroke:#ff7900;stroke-linecap:round;stroke-width:2px;}</style></defs><title>アセット 8</title><g id="レイヤー_2" data-name="レイヤー 2"><g id="main_SERVICE1"><path class="cls-1" d="M35.82,17.91A17.91,17.91,0,1,1,17.91,0,17.91,17.91,0,0,1,35.82,17.91Z"/><path class="cls-1" d="M64,3.58h5.88v31.5H63.75L59.17,23.87A107.38,107.38,0,0,1,55,11.35h-.08c.21,2.6.46,5.8.63,9s.29,6.3.29,8.82v5.92H49.93V3.58H56L60.6,15.05a106.22,106.22,0,0,1,4.2,12.51h.08c-.21-2.85-.42-5.92-.58-8.94S64,12.57,64,9.75Z"/><path class="cls-2" d="M75.42,35.08V3.58H92V8.2H81.3v7.94h9.83v4.62H81.3v9.7H92v4.62Z"/><path class="cls-1" d="M118.52,19.88c.59,3.15.88,7.18,1.3,11.21h.09c.08-.75.12-1.51.21-2.27.21-2.68.46-5.37.88-8.06l2.35-17.18h6.09l-5.84,31.5h-7.06l-2.35-12.43c-.63-3.32-.84-6.68-1.26-10h-.08c-.42,3.36-.63,6.72-1.26,10l-2.1,12.43h-7.06l-6-31.5h6.09l2.65,17.18c.42,2.69.67,5.38.88,8.06.09.76.13,1.52.17,2.27h.08c.47-4,.76-8.06,1.35-11.21l2.86-16.3h4.87Z"/><path class="cls-2" d="M145.27,13.16c0-2.82-.21-5.59-3.44-5.59-2,0-3.24.8-3.24,2.94,0,2.39,1.51,3.32,3.36,4.49a54.29,54.29,0,0,1,7.14,5.17,8.21,8.21,0,0,1,2.65,6.6c0,6-4,9.07-9.7,9.07-7.06,0-9.58-4-9.58-9.58V24h5.88V25.8c-.13,3.07.8,5.29,3.7,5.29,2.47,0,3.65-1.3,3.65-3.69a4.77,4.77,0,0,0-2.35-4.16c-3.07-2.4-6.89-4.12-9.29-7.27a8.8,8.8,0,0,1-1.51-4.83c0-5.38,3-8.32,9.24-8.32,9.37,0,9.12,7.23,9.16,10.34Z"/><path class="cls-3" d="M30,19.71l-3.9.7-7.9-10.12L10.85,23.76l12.73,1.43,1.7,3.61A9.41,9.41,0,0,0,28.38,25,12.85,12.85,0,0,0,30,19.71Z"/><line class="cls-4" x1="4.48" y1="18.54" x2="10.09" y2="18.76"/><line class="cls-4" x1="5.33" y1="12.2" x2="11.76" y2="15.68"/><line class="cls-4" x1="10.2" y1="8.03" x2="13.44" y2="12.61"/></g></g></svg>