<svg xmlns="http://www.w3.org/2000/svg" viewBox="0 0 56.82 55.8"><defs><style>.cls-1{fill:#b8d200;}</style></defs><title>アートボード 11</title><g id="greeting"><path class="cls-1" d="M23.1,27.9l1.8-.06,4.44.36-.18,2.34C28.68,44.88,28,50.7,26.34,52.8c-2,2.46-4,3.06-12,2.88a19.79,19.79,0,0,0-2.28-7.5,43,43,0,0,0,5.7.24,2.15,2.15,0,0,0,1.68-.72c.78-.9,1.26-4.32,1.56-12.24H16C14.52,42.6,11.76,50,5.88,55.62A22.33,22.33,0,0,0,0,49.38C7.56,42.6,8.76,32,9.24,23.22H3.54V1.56H28.86V23.22H17.64c-.18,1.5-.3,3.06-.48,4.68ZM11.4,9.24V15.6h9.06V9.24ZM42.72,6.66c-.06.66-.54,1.08-1.74,1.26V40.44H32.52V6.12ZM46.38,0,56.82.48c-.06.66-.48,1.14-1.8,1.32V45.48c0,8.1-2.34,10.32-16.32,10.32a34.91,34.91,0,0,0-3-9.06c3.78.18,7.74.18,9.06.18,1.14,0,1.62-.36,1.62-1.5Z"/></g></svg>