<svg xmlns="http://www.w3.org/2000/svg" viewBox="0 0 107.41 111.39"><defs><style>.cls-1{fill:#fff;}</style></defs><title>アートボード 21</title><g id="greeting"><path class="cls-1" d="M107.41,45.4V62H77.11V92.2c0,15.44-5.27,19.19-33.46,19.19-.7-5-3.51-12.64-5.85-17.32,7,.35,15.91.35,18.49.35s3.28-.58,3.28-2.57V62H0V45.4H59.56V30.77l21.18.82c-.23,1.4-1.05,2.22-3.63,2.69V45.4ZM20.24,29V42.59H2.93V13H44.11V0l22,1.17c-.12,1.4-1.17,2.22-3.74,2.57V13h41.89v29.6H86V29Zm10.3,66.22c-2.69-6.67-10.18-16.73-16.85-24L27.26,62.6c6.79,6.67,14.74,16,18,22.93Z"/></g></svg>