<svg xmlns="http://www.w3.org/2000/svg" viewBox="0 0 174 36.39"><defs><style>.cls-1{fill:#fff;}.cls-2{fill:none;stroke:#fff;stroke-miterlimit:10;stroke-width:1.1px;}.cls-3{fill:#9163a7;}</style></defs><title>アセット 9</title><g id="レイヤー_2" data-name="レイヤー 2"><g id="main_SERVICE1"><path class="cls-1" d="M35.82,17.91A17.91,17.91,0,1,1,17.91,0,17.91,17.91,0,0,1,35.82,17.91Z"/><path class="cls-1" d="M47.79,3.58H67.41V8.2H60.56V35.08H54.68V8.2H47.79Z"/><path class="cls-2" d="M70.64,16.81c.25-8,.88-14,10.29-14s10,6,10.29,14V21.3c0,8.41-.63,14.54-10.29,14.54S70.64,29.71,70.64,21.3Zm6,7.44c0,2.6.21,6.84,4.25,6.84,4.2,0,4.24-4.32,4.24-7.35V15.68c0-2.52.13-8.11-4.24-8.11-4.62,0-4.25,5.5-4.25,7.94Z"/><path class="cls-1" d="M96.59,35.08V3.58h12c5.63,0,7.35,4.53,7.35,9,0,2.68-.72,5.71-2.94,7.47a10.32,10.32,0,0,1-6.6,1.89h-4V35.08Zm5.88-17.81h3.15c2.57,0,4.29-1.09,4.29-4.91,0-3.62-1.43-4.16-4.75-4.16h-2.69Z"/><path class="cls-2" d="M120,35.08V3.58h5.88v31.5Z"/><path class="cls-1" d="M150.27,23.87c0,.59-.08,1.22-.13,1.8-.29,5.76-2.22,10.17-8.77,10.17-9.67,0-10.3-6.13-10.3-14.54V16.81c.26-8,.88-14,10.3-14,5.25.09,8.19,2.77,8.61,8.15a16.08,16.08,0,0,1,.12,2.4h-5.79c-.26-2-.05-5.8-2.94-5.8-4.63,0-4.25,5.5-4.25,7.94v8.74c0,2.6.21,6.84,4.25,6.84,3.23,0,2.85-5.21,3-7.22Z"/><path class="cls-2" d="M167,13.16c0-2.82-.22-5.59-3.45-5.59-2,0-3.23.8-3.23,2.94,0,2.39,1.51,3.32,3.36,4.49a54.29,54.29,0,0,1,7.14,5.17,8.24,8.24,0,0,1,2.64,6.6c0,6-3.95,9.07-9.7,9.07-7.06,0-9.58-4-9.58-9.58V24h5.88V25.8c-.12,3.07.8,5.29,3.7,5.29,2.48,0,3.66-1.3,3.66-3.69a4.78,4.78,0,0,0-2.36-4.16c-3.06-2.4-6.89-4.12-9.28-7.27a8.72,8.72,0,0,1-1.51-4.83c0-5.38,3-8.32,9.24-8.32,9.37,0,9.11,7.23,9.16,10.34Z"/><path class="cls-3" d="M17.91,6.86A10.95,10.95,0,0,0,9.3,24.57L8.38,29l4.08-1.65A11,11,0,1,0,17.91,6.86Zm-5.43,12.8a1.75,1.75,0,1,1,1.75-1.75A1.75,1.75,0,0,1,12.48,19.66Zm5.43,0a1.75,1.75,0,1,1,1.75-1.75A1.75,1.75,0,0,1,17.91,19.66Zm5.43,0a1.75,1.75,0,1,1,1.75-1.75A1.75,1.75,0,0,1,23.34,19.66Z"/></g></g></svg>